<svg xmlns="http://www.w3.org/2000/svg" width="31" height="31" viewBox="0 0 31 31"><path d="M12.905,20.31c0,1.335-.969,1.758-2.159,1.758H7.625v-3.66h3.183C12.1,18.414,12.905,18.947,12.905,20.31Zm-.533-5.695c0-1.225-.948-1.515-2-1.515H7.632v3.1h2.955c1.045,0,1.785-.457,1.785-1.585Zm9.155,1.605a2.063,2.063,0,0,0-2.194,2.055h4.3A1.972,1.972,0,0,0,21.527,16.221ZM31,5.571V29.929a3.322,3.322,0,0,1-3.321,3.321H3.321A3.322,3.322,0,0,1,0,29.929V5.571A3.322,3.322,0,0,1,3.321,2.25H27.679A3.322,3.322,0,0,1,31,5.571ZM18.8,12.837h5.383V11.529H18.8Zm-2.975,7.632A3.44,3.44,0,0,0,13.4,16.9a2.583,2.583,0,0,0,1.813-2.56c0-2.643-1.972-3.287-4.249-3.287H4.705V24.338h6.442C13.563,24.324,15.825,23.168,15.825,20.469Zm10.469-1.024c0-2.844-1.668-5.217-4.678-5.217a4.829,4.829,0,0,0-4.92,5.093,4.688,4.688,0,0,0,4.92,5.051,4.29,4.29,0,0,0,4.5-3.238H23.79a2.189,2.189,0,0,1-2.09,1.252,2.171,2.171,0,0,1-2.36-2.443h6.933C26.281,19.784,26.295,19.611,26.295,19.445Z" transform="translate(0 -2.25)" fill="#fff"/></svg>