<svg xmlns="http://www.w3.org/2000/svg" width="450.473" height="87.52" viewBox="0 0 450.473 87.52">
  <g id="Group_2572" data-name="Group 2572" transform="translate(-4809.547 -2443.085)">
    <path id="Path_2806" data-name="Path 2806" d="M6956.507,2610.686h-24.1c-.3-.672-.026-.842.6-.852a15.917,15.917,0,0,0,5.429-.82,1.749,1.749,0,0,0,1.252-1.727c.031-.563.077-1.126.076-1.689-.021-9.528,0-19.055-.12-28.581a17.34,17.34,0,0,0-.992-5.475c-1.351-3.812-5.171-4.823-8.45-2.4a10.364,10.364,0,0,0-3.509,4.945,39.443,39.443,0,0,0-2.608,13.548q-.009,8.771,0,17.542c0,.712.007,1.426.058,2.135.1,1.321.487,1.811,1.8,2.017,1.756.275,3.528.449,5.41.681.012.113.038.353.067.62a2.242,2.242,0,0,1-.4.083q-12.527.008-25.054.015c-.565,0-.778-.179-.579-.81,1.142-.062,2.326-.061,3.491-.2,1.41-.175,2.8-.49,4.206-.707a1.049,1.049,0,0,0,.973-.989,19.021,19.021,0,0,0,.172-2.3q.017-16.25,0-32.5a3.058,3.058,0,0,0-2.993-3.294c-1.684-.151-3.378-.2-5.069-.259-.574-.021-.854-.189-.612-.9l18.373-1.734v12.109c.635-2.044,1.135-4.087,1.9-6.022,1.143-2.874,3-5.2,6.208-5.86a17.578,17.578,0,0,1,10.086.655c4.146,1.607,6.066,4.911,6.782,9.09.05.292.083.587.118.882s.063.585.122,1.137c.334-1.336.571-2.435.886-3.511a13.9,13.9,0,0,1,3.316-5.917,8.377,8.377,0,0,1,5.064-2.551,17.077,17.077,0,0,1,8.6.611,11.8,11.8,0,0,1,7.574,10.944q.014,13.267.009,26.535a18.078,18.078,0,0,0,.138,2.217,1.77,1.77,0,0,0,1.733,1.814c1.754.275,3.523.451,5.389.683.009.128.025.369.044.654-.3.022-.534.054-.766.054q-11.234,0-22.468,0c-.535,0-1.07.038-.786-.8,1.16-.075,2.321-.075,3.456-.246a9.165,9.165,0,0,0,2.626-.772,2.214,2.214,0,0,0,.988-1.309,8.993,8.993,0,0,0,.171-2.3c.01-8.34.055-16.681-.025-25.021-.023-2.419-.405-4.836-.646-7.251a4.236,4.236,0,0,0-.3-1.02c-1.529-4.119-5.2-5.207-8.778-2.6a11,11,0,0,0-3.766,5.7,39.217,39.217,0,0,0-2.372,13.052c.077,5.786.015,11.575.023,17.363,0,.681.073,1.361.094,2.042a1.76,1.76,0,0,0,1.682,1.756c1.607.277,3.227.494,4.849.665C6956.484,2609.877,6956.737,2610.015,6956.507,2610.686Z" transform="translate(-1721.899 -101.622)" fill="#141e30"/>
    <path id="Path_2807" data-name="Path 2807" d="M4837.178,2479v1.1q0,11,.01,21.993c0,1.064.1,2.131.208,3.191a1.748,1.748,0,0,0,1.361,1.563,26.74,26.74,0,0,0,7.568,1.014c2.431.077,4.867.016,7.362.016.031.465.046.706.066,1h-44.075c-.209-.806-.208-.784.643-.828,3.263-.167,6.529-.284,9.783-.562a12.179,12.179,0,0,0,3.394-.966,1.761,1.761,0,0,0,.886-1.187,22.631,22.631,0,0,0,.25-3.541q.021-25.866,0-51.732a17.937,17.937,0,0,0-.287-3.446,1.889,1.889,0,0,0-1.037-1.265,26.808,26.808,0,0,0-4.934-1.042c-2.6-.233-5.222-.226-7.835-.321a2.233,2.233,0,0,1-.7-.048.606.606,0,0,1-.288-.444.5.5,0,0,1,.272-.37,1.334,1.334,0,0,1,.527-.033c13.226,0,26.45-.028,39.675.029a32.02,32.02,0,0,1,15.543,3.592c4.662,2.552,8.024,6.184,9.236,11.492,1.521,6.665-.779,12.39-6.557,16.506a21.276,21.276,0,0,1-11.613,4.062c-6.052.245-12.118.167-18.178.226C4838.073,2479,4837.692,2479,4837.178,2479Zm.046-.7c2.388,0,4.673.044,6.955-.012a74.188,74.188,0,0,0,7.729-.373c5.063-.661,8.461-3.441,9.661-8.507a30.547,30.547,0,0,0-.094-15.317c-1.571-5.72-5.284-9.222-11.28-9.824-3.148-.316-6.342-.181-9.517-.216a9.194,9.194,0,0,0-1.852.22,1.662,1.662,0,0,0-1.5,1.708c-.067.947-.137,1.9-.138,2.843q-.018,14.286-.009,28.572C4837.18,2477.662,4837.2,2477.923,4837.224,2478.306Z" transform="translate(0)" fill="#141e30"/>
    <path id="Path_2808" data-name="Path 2808" d="M6187.1,2532.922c.084-1.654.162-3.22.246-4.786a6.12,6.12,0,0,1,.078-.617c.614-3.949,3.4-5.192,7.549-4.553,2.679.412,3.771,3.959,2.123,6.124-.891,1.168-3.285,1.479-4.761.618a3.418,3.418,0,0,1-1.1-4.055l.364-.9a2.772,2.772,0,0,0-2.971,2.373c-.28,1.649-.223,3.353-.339,5.032-.074,1.077.439,1.615,1.379,2.146,2.983,1.685,5.509,3.906,6.611,7.276,1.726,5.272.474,10.6-4.461,14.091-6.441,4.559-13.391,5.056-20.794,2.858a8.1,8.1,0,0,0-7.956,1.866,4.9,4.9,0,0,0-1.41,4.333c.089.925.862,1.371,1.619,1.752a13.257,13.257,0,0,0,5.707,1.195c4.187.115,8.377.1,12.564.2a32.5,32.5,0,0,1,10.163,1.589c5.777,2.037,7.914,6.313,7.66,11.924-.356,7.892-5.621,12.011-12.422,13.862a33.564,33.564,0,0,1-11.771.635,31.483,31.483,0,0,1-8.76-1.88,21.468,21.468,0,0,1-6.153-3.525,8.441,8.441,0,0,1-2.705-3.685,4.865,4.865,0,0,1,1.658-5.8,19.333,19.333,0,0,1,6.517-2.976c.636-.2,1.277-.391,2.145-.656-.8-.333-1.4-.567-1.988-.825a14.244,14.244,0,0,1-5.61-3.665c-2.584-3.138-2.722-6.661-1.213-10.207,1.457-3.426,4.315-5.076,8.01-5.3.264-.016.529-.025.952-.044a4.8,4.8,0,0,0-.536-.43c-8.392-4.7-7.592-14.528-2.641-19.512,5.809-5.848,12.688-7.561,20.577-5.021C6185.982,2532.531,6186.532,2532.728,6187.1,2532.922Zm-7.034,62.283a20.421,20.421,0,0,0,8.711-1.507c3.232-1.5,5.648-3.733,6.155-7.474a9.236,9.236,0,0,0-.732-5.042c-.967-2.185-2.89-3.051-5.042-3.534a44.908,44.908,0,0,0-20.534.7,5.823,5.823,0,0,0-3.865,3.317,8.6,8.6,0,0,0,4.875,12.042A32.067,32.067,0,0,0,6180.067,2595.2Zm7.974-49.253c-.323-2.62-.482-4.874-.907-7.077a8.139,8.139,0,0,0-3.479-5.775,8.283,8.283,0,0,0-11.984,3.707,18.42,18.42,0,0,0-1.385,6.4,30.8,30.8,0,0,0,1.139,11.434,5.5,5.5,0,0,0,4.338,3.9,15.986,15.986,0,0,0,3.708.357c3.809-.112,6.332-1.937,7.314-5.6A72.681,72.681,0,0,0,6188.042,2545.951Z" transform="translate(-1107.243 -65.5)" fill="#141e30"/>
    <path id="Path_2809" data-name="Path 2809" d="M5463.167,2610.782v.659h-26.084c-.294-.621-.071-.775.581-.844,2.119-.221,4.229-.527,6.343-.793a1.186,1.186,0,0,0,1.1-1.193,19.54,19.54,0,0,0,.155-2.037c.009-8.964.024-17.929-.011-26.893a21.9,21.9,0,0,0-.989-7.194c-1.568-4.494-5.489-4.43-8.287-2.89a9.579,9.579,0,0,0-3.59,3.867,32.041,32.041,0,0,0-3.911,15.069c-.043,5.788-.018,11.576-.017,17.364,0,.623,0,1.248.029,1.869.086,1.66.415,2.1,2.057,2.361,1.55.241,3.122.362,4.689.471.563.039.87.135.649.824h-25.915c-.289-.61-.067-.824.594-.813a23.371,23.371,0,0,0,7.221-.877,1.686,1.686,0,0,0,.926-.889,4.265,4.265,0,0,0,.2-1.572q.026-14.158.028-28.317c0-1.781.015-3.562-.006-5.343a2.728,2.728,0,0,0-2.474-2.941c-1.853-.226-3.729-.254-5.591-.414-.3-.025-.781-.257-.815-.457-.109-.622.458-.457.8-.487q7.855-.695,15.711-1.372c.588-.051,1.179-.063,1.875-.1v12.219l.119,0a27.707,27.707,0,0,1,1.231-4.017,32.807,32.807,0,0,1,2.967-5.133,7.236,7.236,0,0,1,5.829-3.1,22.734,22.734,0,0,1,7.6.456,12.014,12.014,0,0,1,8.582,11.4c-.105,8.7-.031,17.394-.023,26.091,0,.8.051,1.6.118,2.4.108,1.287.491,1.767,1.767,1.933C5458.766,2610.363,5460.922,2610.548,5463.167,2610.782Z" transform="translate(-493.205 -102.389)" fill="#141e30"/>
    <path id="Path_2810" data-name="Path 2810" d="M5931.806,2604.938c-.15.268-.271.465-.373.672a11.442,11.442,0,0,1-10.091,6.682,19.979,19.979,0,0,1-7.078-.42c-7.2-2.064-10.034-9.871-5.912-16.379,2.366-3.736,5.965-5.718,10.166-6.617,2.255-.483,4.589-.593,6.875-.944,1.109-.17,2.192-.51,3.287-.772a3.255,3.255,0,0,0,2.515-2.9,10.461,10.461,0,0,0,.2-1.943c-.029-2.906.029-5.82-.184-8.714-.227-3.087-1.235-4.1-4.277-4.486-3.143-.4-6.272-.238-9.035,1.541a17.21,17.21,0,0,0-2.642,2.456,2.993,2.993,0,0,0-.424.835,9.719,9.719,0,0,1,2.174.235,4.69,4.69,0,0,1,3.1,4.2,4.924,4.924,0,0,1-4.521,5.633,5.531,5.531,0,0,1-5.946-4.794,8.474,8.474,0,0,1,4.568-8.5,20.233,20.233,0,0,1,8.03-2.458,26.318,26.318,0,0,1,11.023.83,16.981,16.981,0,0,1,4.3,2.251,7.165,7.165,0,0,1,3.05,6.212q0,13.223.054,26.446a20.787,20.787,0,0,0,.347,3.8c.4,2.085,1.639,3.177,3.446,3.253a3.692,3.692,0,0,0,3.891-3,32.3,32.3,0,0,0,.855-5.695c.147-2.574.05-5.162.058-7.745,0-.32,0-.64,0-1.025h1.1a1.042,1.042,0,0,1,.088.267c.061,3.114.176,6.229.147,9.342a32.2,32.2,0,0,1-.477,4.5,5.072,5.072,0,0,1-4.14,4.361,17.375,17.375,0,0,1-8.038.115c-3.325-.728-4.98-3.093-5.8-6.2-.076-.287-.136-.577-.205-.866A1.441,1.441,0,0,0,5931.806,2604.938Zm-.57-17.549a30.453,30.453,0,0,1-3.465,1.539,15.766,15.766,0,0,1-3.42.555,8.094,8.094,0,0,0-7.274,5.546c-1.262,3.141-1.169,6.452-.947,9.745a20.339,20.339,0,0,0,.645,4.024,3.9,3.9,0,0,0,4.173,3.032c4.593-.036,9.328-4.2,10.063-9.055a41.975,41.975,0,0,0,.218-5.856C5931.257,2593.688,5931.235,2590.456,5931.235,2587.389Z" transform="translate(-901.218 -102.68)" fill="#141e30"/>
    <path id="Path_2811" data-name="Path 2811" d="M6691.959,2593.716h1.156a2.838,2.838,0,0,1,.064.389c.057,3.144.189,6.289.13,9.431a29.031,29.031,0,0,1-.633,4.921,4.386,4.386,0,0,1-3.075,3.414,15.317,15.317,0,0,1-10.055.072c-2.727-.929-3.991-3.213-4.688-5.859-.083-.312-.151-.628-.255-1.069-.163.262-.278.414-.36.583a11.46,11.46,0,0,1-10.015,6.8,19.96,19.96,0,0,1-7.253-.415c-7.4-2.149-10.145-10.337-5.584-16.835,2.625-3.741,6.444-5.594,10.84-6.357,2.773-.481,5.591-.727,8.345-1.294,2.561-.526,3.383-1.473,3.479-4.1a91.758,91.758,0,0,0-.125-9.69c-.215-3.107-1.229-4.09-4.287-4.47a13.582,13.582,0,0,0-9.279,1.663,6.072,6.072,0,0,0-2.74,3.184c.067.031.14.094.209.091a4.562,4.562,0,0,1,5.021,4.361,5,5,0,0,1-4.3,5.587c-3.957.465-6.9-2.933-6.123-7.016a8.667,8.667,0,0,1,4.6-6.311,23.345,23.345,0,0,1,11.6-2.584,21.672,21.672,0,0,1,7.884,1.179,17.652,17.652,0,0,1,3.789,2.1,7.263,7.263,0,0,1,3.029,6.227q-.018,12.465.029,24.93a34.226,34.226,0,0,0,.367,5.226,3.506,3.506,0,0,0,3.469,3.322,3.7,3.7,0,0,0,3.876-3.022,31.035,31.035,0,0,0,.844-5.7C6692.062,2599.6,6691.959,2596.717,6691.959,2593.716Zm-18.232-6.549a6.544,6.544,0,0,1-4.109,2.063,15.909,15.909,0,0,1-2.555.358c-3.564.026-6.8,2.79-7.8,6.688a27.08,27.08,0,0,0-.232,11.39c.611,3.6,2.614,4.83,6.206,4.1,4.4-.9,8.428-5.531,8.521-10.014.1-4.686.04-9.375.046-14.063A4.832,4.832,0,0,0,6673.727,2587.166Z" transform="translate(-1511.442 -102.8)" fill="#141e30"/>
    <path id="Path_2812" data-name="Path 2812" d="M5743.552,2478.71h-8.183c-.921,0-1.844.034-2.763-.01-.658-.032-.886.185-.87.858.041,1.779.014,3.561.014,5.342,0,7.093-.023,14.187.014,21.28.012,2.192.183,4.384.3,6.575a5.486,5.486,0,0,0,.228,1.22c.577,1.974,1.689,3.415,3.89,3.626a5.027,5.027,0,0,0,5.174-2.418,11.35,11.35,0,0,0,1.441-5.452c.191-4.087.263-8.181.366-12.272.014-.546.029-.985.764-.725.029.052.081.1.081.154.006,4.447.034,8.895-.01,13.341a15.219,15.219,0,0,1-.441,2.8,6.841,6.841,0,0,1-5.438,5.594,17.273,17.273,0,0,1-9.5-.188c-4.005-1.242-5.932-4.228-6.477-8.221a24.7,24.7,0,0,1-.179-3.282q-.021-13.578-.008-27.156v-1.21h-1.807c-1.842,0-3.686.017-5.527-.02-.27-.006-.535-.271-.8-.416.226-.215.417-.549.682-.626a19.464,19.464,0,0,0,11.949-9.361,28.288,28.288,0,0,0,3.629-13.069c.011-.289.05-.576.08-.9h1.59v1.036c0,6.529.013,13.059-.017,19.588,0,.774.2,1.021.992,1.011,3.3-.042,6.6,0,9.9-.033.749-.008,1.008.225.942.959C5743.509,2477.347,5743.552,2477.967,5743.552,2478.71Z" transform="translate(-742.954 -9.11)" fill="#141e30"/>
    <path id="Path_2813" data-name="Path 2813" d="M5220.342,2589.707h-26.071c-.083.131-.139.178-.14.227-.057,4.641.12,9.265,1.592,13.716a14.9,14.9,0,0,0,1.783,3.558,7.9,7.9,0,0,0,6.451,3.566,15.108,15.108,0,0,0,15.5-12.47c.188-1.048.232-2.12.375-3.177a2.91,2.91,0,0,1,.3-.712c.129.242.367.483.37.726a16.417,16.417,0,0,1-11.323,15.734,19.461,19.461,0,0,1-24.952-14.247c-1.88-8.142-.652-15.843,4.827-22.466a18.022,18.022,0,0,1,11.123-6.715c8.561-1.39,15.489,2.686,18.467,10.843A31.435,31.435,0,0,1,5220.342,2589.707Zm-8.728-.914a50.6,50.6,0,0,0-.832-11.5,34.168,34.168,0,0,0-1.879-5.888,4.919,4.919,0,0,0-4.588-3,7.872,7.872,0,0,0-7.947,4.875,18.263,18.263,0,0,0-1.03,2.831,45.921,45.921,0,0,0-1.212,12.521c0,.047.06.094.108.163Z" transform="translate(-307.161 -101.958)" fill="#141e30"/>
    <path id="Path_2814" data-name="Path 2814" d="M6443.655,2612.109h-29.61c-.175-.812-.172-.776.581-.839,2.6-.219,5.2-.406,7.785-.723,1.311-.16,1.415-.393,1.577-1.735a13.236,13.236,0,0,0,.1-1.6c.006-10.625.02-21.251-.023-31.877a7.254,7.254,0,0,0-.635-2.789,2.515,2.515,0,0,0-2.421-1.372c-1.989-.068-3.977-.155-5.965-.233a1.892,1.892,0,0,1-.618-.029,2.322,2.322,0,0,1-.527-.427c.185-.17.357-.472.554-.49,3.727-.325,7.458-.618,11.189-.915q3.462-.276,6.927-.543c.288-.022.58,0,.948,0v12.129l.172.024c.142-.584.263-1.174.427-1.752a16.651,16.651,0,0,1,4.587-8,8.583,8.583,0,0,1,10.51-1.16c3.468,1.9,4.192,6.626,3.221,9.163-1.284,3.355-5.725,4.587-8.324,2.246a5.459,5.459,0,0,1-1.443-5.815,7.139,7.139,0,0,1,1.774-2.909,8.348,8.348,0,0,1,2.432-1.224,2.617,2.617,0,0,0-1.861-1.667,5.247,5.247,0,0,0-5.394,1.446,17.94,17.94,0,0,0-4.307,6.572,26.736,26.736,0,0,0-1.741,9.752c-.046,6.589-.064,13.179,0,19.767.032,3.121.063,3.325,3.495,3.785,1.966.263,3.967.279,5.955.365C6443.587,2611.288,6443.905,2611.39,6443.655,2612.109Z" transform="translate(-1318.146 -103.049)" fill="#141e30"/>
  </g>
</svg>
