<svg xmlns="http://www.w3.org/2000/svg" width="492.658" height="89.385" viewBox="0 0 492.658 89.385">
  <g id="Group_2571" data-name="Group 2571" transform="translate(-5572.323 -1762.113)">
    <path id="Path_2787" data-name="Path 2787" d="M5572.323,1922.2a10.162,10.162,0,0,1,5.474-4.449c5.373-2.158,10.805-4.172,16.238-6.179,4.615-1.7,9.263-3.32,13.9-4.969.455-.162.923-.283,1.514-.462,0,3.178.055,6.237-.058,9.289-.017.465-.731,1.12-1.259,1.316-5.333,1.971-10.7,3.854-16.043,5.79a13.162,13.162,0,0,0-2.671,1.226c-1.363.881-1.306,2.016.227,2.469a13.31,13.31,0,0,0,5.134.724,52.932,52.932,0,0,0,8.114-1.821c2.145-.6,4.213-1.48,6.452-2.284v9.057a54.468,54.468,0,0,1-13.931.99,61.919,61.919,0,0,1-15.889-3.149c-2.976-.988-5.606-2.4-7.2-5.25Z" transform="translate(0 -96.659)" fill="#141e30"/>
    <path id="Path_2788" data-name="Path 2788" d="M5713.016,1845.843c-4.375-1.375-8.542-2.671-12.7-4-1.609-.514-3.792-.659-4.622-1.78s-.326-3.241-.326-4.923q-.015-35.3-.007-70.591v-2.438c2.926.7,5.7,1.219,8.387,2.023,6.646,1.991,13.385,3.766,19.846,6.252,12.633,4.861,16.547,12.1,16.081,25.806a23.934,23.934,0,0,1-.964,5.963c-2.068,6.942-7.5,9.939-14.5,8.174-4.069-1.026-4.069-1.026-4.069-5.172,0-7.333.026-14.665-.023-22a13.331,13.331,0,0,0-.558-4.193,5.522,5.522,0,0,0-2.031-2.616c-1.766-1.178-3.5-.465-4.1,1.579a12.432,12.432,0,0,0-.406,3.4q-.034,31.191-.017,62.382Z" transform="translate(-82.476)" fill="#141e30"/>
    <path id="Path_2789" data-name="Path 2789" d="M6025.233,1855.965v-5.457c1.691,0,3.36,0,5.029,0,3.349-.008,4.943-1.1,5.864-4.326a20.711,20.711,0,0,0-.111-12.129c-.94-2.969-2.521-4.038-5.591-4.044-2.953-.006-5.907,0-9.077,0v44.644h-8.9v-50.089h1.966q8.791,0,17.581,0c7.692,0,11.732,3.231,13.313,10.794a22.128,22.128,0,0,1-.768,12.446c-2.016,5.425-5.989,8.16-11.774,8.163Z" transform="translate(-295.369 -41.91)" fill="#141e30"/>
    <path id="Path_2790" data-name="Path 2790" d="M5759.862,1933.436c0-3.393-.039-6.614.052-9.831.011-.377.683-.921,1.15-1.071a60.645,60.645,0,0,1,20.025-3.027,53.211,53.211,0,0,1,18.441,3.525,21.7,21.7,0,0,1,5.17,2.765c2.677,2.035,2.75,4.841.128,6.915a22.624,22.624,0,0,1-6.052,3.531c-12.667,4.671-25.394,9.177-38.1,13.736a7.939,7.939,0,0,1-.811.18c0-3.2-.049-6.3.061-9.406.014-.4.8-.927,1.322-1.118,8.535-3.078,17.089-6.105,25.632-9.161a14.42,14.42,0,0,0,2.844-1.24c.528-.333,1.179-1.089,1.116-1.57-.065-.5-.856-1.137-1.444-1.3a17.978,17.978,0,0,0-10.814.54c-5.688,1.948-11.347,3.983-17.019,5.978C5761.062,1933.058,5760.554,1933.211,5759.862,1933.436Z" transform="translate(-125.852 -105.618)" fill="#141e30"/>
    <path id="Path_2791" data-name="Path 2791" d="M6286.51,1861.1c3.03,0,5.861-.053,8.685.062.388.015.905.8,1.088,1.33,2.49,7.174,4.931,14.365,7.386,21.55.172.5.37,1,.667,1.794.32-.653.548-1.043.709-1.459,2.843-7.336,5.7-14.667,8.488-22.024a1.654,1.654,0,0,1,1.89-1.284c2.288.078,4.581.024,7.046.024-.239.655-.409,1.16-.606,1.654q-10.715,26.873-21.411,53.755c-.4,1.021-.856,1.459-2,1.4-2.019-.1-4.046-.029-6.319-.029.243-.683.422-1.223.627-1.753,2.03-5.249,4.1-10.481,6.058-15.758a4.478,4.478,0,0,0,.067-2.771c-3.877-11.549-7.831-23.073-11.764-34.6C6286.933,1862.429,6286.759,1861.867,6286.51,1861.1Z" transform="translate(-479.294 -66.407)" fill="#141e30"/>
    <path id="Path_2792" data-name="Path 2792" d="M6604.9,1899.271v-32.635c-2.925,0-5.659-.134-8.371.046a3.96,3.96,0,0,0-3.611,3.159,40.147,40.147,0,0,0-1.239,7.4c-.21,3.929-.1,7.876-.068,11.816a9.553,9.553,0,0,0,.368,2.423,2.964,2.964,0,0,0,3.106,2.4c1.908,0,3.817,0,5.944,0,0,1.6.074,3.064-.056,4.51-.029.328-.757.827-1.18.845-2.077.088-4.164-.039-6.24.057-6.936.32-10.419-4.5-10.65-9.275a96.2,96.2,0,0,1,.553-17.487c.958-7.065,5.252-10.814,12.435-11.291,5.882-.39,11.81-.08,17.964-.08v1.6c0,11.6-.022,23.2.03,34.8.006,1.378-.4,1.8-1.754,1.742C6609.79,1899.2,6607.441,1899.271,6604.9,1899.271Z" transform="translate(-678.101 -66.388)" fill="#141e30"/>
    <path id="Path_2793" data-name="Path 2793" d="M6207.8,1861.475v37.88h-8.751v-32.447c-3.077,0-5.958-.147-8.813.059a3.763,3.763,0,0,0-3.146,2.819,18.307,18.307,0,0,0-1.147,4.915c-.177,5.187-.25,10.385-.108,15.572.081,2.948,1.252,3.792,4.2,3.8,1.626,0,3.252,0,5.041,0,0,1.316.008,2.451,0,3.586,0,.534-.045,1.068-.067,1.568-3.638,0-7.25.465-10.686-.117-4.357-.738-6.734-4.127-7.24-8.331a58.387,58.387,0,0,1,.39-18.3c1.3-6.575,5.049-10.348,11.758-10.9C6195.342,1861.078,6201.541,1861.475,6207.8,1861.475Z" transform="translate(-405.492 -66.583)" fill="#141e30"/>
    <path id="Path_2794" data-name="Path 2794" d="M6932.744,1861.129h4.988c3.667,0,7.335-.025,11,.011,8.691.084,14.059,4.642,14.671,13.31.577,8.163.424,16.378.595,24.726h-9.055c0-.652.005-1.288,0-1.925-.08-7.6-.151-15.2-.255-22.8a13.747,13.747,0,0,0-.337-2.431c-.8-4.086-2.452-5.438-6.644-5.454-1.964-.008-3.928,0-6.1,0v32.643h-8.866Z" transform="translate(-912.986 -66.445)" fill="#141e30"/>
    <path id="Path_2795" data-name="Path 2795" d="M6848.371,1888.724c-1.315,5.717-4.894,9.453-10.794,10.226a33.315,33.315,0,0,1-9.92-.141c-5.5-.962-8.768-4.677-10.045-10.04a36.379,36.379,0,0,1-.176-16.113c1.516-7.152,5.964-10.871,13.491-11.345a28.115,28.115,0,0,1,6.857.381c6.208,1.157,10,5.341,10.967,11.883C6849.079,1875.787,6849,1885.973,6848.371,1888.724Zm-9.135-17.808a4.566,4.566,0,0,0-3.106-3.754c-4.812-1.364-8.935-.4-9.631,4.869a103.788,103.788,0,0,0-.5,13.86,11.643,11.643,0,0,0,1.151,4.726,6.118,6.118,0,0,0,2.6,2.758c4.42,2.162,8.818.034,9.8-4.759C6840.106,1885.9,6839.829,1874.009,6839.236,1870.916Z" transform="translate(-835.053 -66.532)" fill="#141e30"/>
    <path id="Path_2796" data-name="Path 2796" d="M6407.67,1869.473h1.869c3.451,0,6.9.038,10.352-.017,3.739-.06,5.951-1.782,6.458-5.437a20.974,20.974,0,0,0-.164-6.5c-.56-3.107-2.488-4.516-5.624-4.754a42.492,42.492,0,0,1-5.224-.509,11.649,11.649,0,0,1-9.408-10.664,25.844,25.844,0,0,1,.6-8.106,11.159,11.159,0,0,1,10.423-8.592c4.859-.3,9.742-.207,14.614-.208a1.474,1.474,0,0,1,1.066.961c.125,1.4.051,2.819.051,4.449h-5.348c-2.3,0-4.6-.042-6.9.016-3.337.085-5.26,1.584-5.814,4.871a17.3,17.3,0,0,0-.04,5.526c.489,3.048,2.33,4.469,5.424,4.728,1.908.16,3.819.312,5.716.565a10.014,10.014,0,0,1,8.66,7.275,22.066,22.066,0,0,1,.092,14.033,10.233,10.233,0,0,1-9.839,7.612c-5.41.26-10.841.107-16.262.124a3.2,3.2,0,0,1-.7-.176Z" transform="translate(-559.378 -41.983)" fill="#141e30"/>
    <path id="Path_2797" data-name="Path 2797" d="M6715.532,1880.813v5.528c-3-.165-5.985.029-8.807-.567-4.347-.918-7.17-5.181-7.2-10.358-.067-10.281-.028-20.563-.033-30.844,0-.971,0-1.942,0-3h8.807v6.356h9.526v5.422h-9.192a3.087,3.087,0,0,0-.222.669c-.008,7.492-.063,14.985.016,22.476.035,3.343,1.19,4.317,4.552,4.321Z" transform="translate(-756.442 -53.323)" fill="#141e30"/>
    <path id="Path_2798" data-name="Path 2798" d="M6515.543,1841.548h8.831v6.383h9.527v5.4h-9.373c-.04.691-.091,1.168-.091,1.643q-.008,10.261,0,20.522a12.028,12.028,0,0,0,.141,2.123c.436,2.386,1.366,3.145,3.8,3.172,1.029.012,2.059,0,3.287,0v5.532c-3.065-.168-6.053.018-8.881-.568-4.2-.87-7.077-5.021-7.184-9.869-.12-5.47-.05-10.944-.056-16.416q-.007-8.045,0-16.089Z" transform="translate(-632.99 -53.309)" fill="#141e30"/>
    <path id="Path_2799" data-name="Path 2799" d="M6130.36,1874.866v-50.193c2.748,0,5.5-.018,8.258.036.211,0,.5.484.6.791a4.044,4.044,0,0,1,.039,1.141c0,15.421-.023,30.843.036,46.263.006,1.594-.433,2.088-2.018,2C6135,1874.767,6132.717,1874.866,6130.36,1874.866Z" transform="translate(-374.501 -41.982)" fill="#141e30"/>
    <path id="Path_2800" data-name="Path 2800" d="M6781.205,1899.462h-8.733v-38h8.733Z" transform="translate(-805.426 -66.673)" fill="#141e30"/>
    <path id="Path_2801" data-name="Path 2801" d="M6780.959,1824.584v7.391h-8.841c0-2.233-.028-4.446.039-6.656.008-.253.547-.7.848-.7C6775.617,1824.56,6778.231,1824.584,6780.959,1824.584Z" transform="translate(-805.185 -41.921)" fill="#141e30"/>
    <path id="Path_2802" data-name="Path 2802" d="M5873.879,1999.558a4.034,4.034,0,0,1-4.012-4.247,4.09,4.09,0,0,1,4.147-3.974,4.111,4.111,0,1,1-.135,8.221Zm.135-.687a3.434,3.434,0,1,0-.148-6.866,3.4,3.4,0,0,0-3.342,3.519A3.343,3.343,0,0,0,5874.015,1998.871Z" transform="translate(-199.682 -153.833)" fill="#141e30"/>
    <path id="Path_2803" data-name="Path 2803" d="M7049.455,1960.492a4,4,0,0,1-4.128-3.956,4.1,4.1,0,1,1,8.194-.086A4.042,4.042,0,0,1,7049.455,1960.492Zm-.025-.663a3.452,3.452,0,0,0,3.445-3.448,3.521,3.521,0,0,0-3.489-3.437,3.466,3.466,0,0,0-3.419,3.485A3.38,3.38,0,0,0,7049.43,1959.829Z" transform="translate(-988.539 -127.624)" fill="#141e30"/>
    <path id="Path_2804" data-name="Path 2804" d="M5880.514,2001.208l-.605-1.8h-1.625l-.379,1.752-.345-.036V1996.7a11.339,11.339,0,0,1,2.3.044,1.576,1.576,0,0,1,1.074.96,27.606,27.606,0,0,1,.051,3.431Zm-2.055-4.589c-.123.5-.388.959-.276,1.3a1.226,1.226,0,0,0,.938.688c.359-.013.7-.435,1.055-.679Z" transform="translate(-204.845 -157.379)" fill="#141e30"/>
    <path id="Path_2805" data-name="Path 2805" d="M7056,1962.392c-.383-1-.253-2.617-2.2-1.75-.11.442-.257,1.026-.4,1.611l-.333-.021v-4.4a13.863,13.863,0,0,1,2.38.042,1.385,1.385,0,0,1,.95.88c.117,1.168.045,2.356.045,3.535Zm-1.375-4.265-.958,1c.3.215.61.625.884.6a3.394,3.394,0,0,0,1.15-.6Z" transform="translate(-993.736 -131.326)" fill="#141e30"/>
  </g>
</svg>
