<svg id="Group_2569" data-name="Group 2569" xmlns="http://www.w3.org/2000/svg" width="275.118" height="89.356" viewBox="0 0 275.118 89.356">
  <path id="Path_2773" data-name="Path 2773" d="M4701.841,944.546c.593-1.219,1.275-2.405,1.756-3.668a19.021,19.021,0,0,0,1.038-3.8c.188-1.2-.449-1.654-1.546-1.075a20.634,20.634,0,0,0-3.757,2.455,101.056,101.056,0,0,0-17.369,19.705,225.758,225.758,0,0,0-15.825,26.181,5.024,5.024,0,0,0-.545,1.632,7.83,7.83,0,0,0,1.2-.7c3.03-2.573,6.159-5.045,9.036-7.78a164.54,164.54,0,0,0,18.176-20.2,2.668,2.668,0,0,1,1.394-.734,13.97,13.97,0,0,1,2.1-.224c-1.551,2.082-2.9,4.016-4.371,5.845-8.806,10.929-18.464,20.985-30.021,29.085a1.911,1.911,0,0,0-.656.68c-2.338,5.08-4.477,10.236-5.308,15.814a5.882,5.882,0,0,0,.264,2.521,1.61,1.61,0,0,0,2.5.949,10.118,10.118,0,0,0,2.551-2.1c1.837-2.285,3.661-4.6,5.267-7.049,3.833-5.841,7.511-11.785,12.149-17.051a44.649,44.649,0,0,1,9.324-8.226,10.454,10.454,0,0,1,5.645-1.821,5.062,5.062,0,0,1,4.408,2.607c.119.174.262.331.42.528.1-.077.217-.119.24-.191.58-1.8,1.887-2.09,3.6-1.967,1.994.143,4,.033,6.225.033-.271.522-.444.889-.645,1.241q-8.1,14.236-16.188,28.476a23.707,23.707,0,0,0-1.608,3.506c-.166.451-.1,1.376.148,1.5a1.9,1.9,0,0,0,1.638-.107,17.733,17.733,0,0,0,3.683-2.934c2.541-3,4.938-6.126,7.3-9.274,1.407-1.879,1.326-1.94,3.821-1.658a1.848,1.848,0,0,1-.141.472,85.544,85.544,0,0,1-13.339,16.922,26.689,26.689,0,0,1-6.662,4.486c-.161.079-.325.152-.49.221-3.831,1.6-6.757-.51-6.437-4.655.041-.531.105-1.06.191-1.907-.5.476-.8.75-1.089,1.031a26.844,26.844,0,0,1-6.832,5.164,7.62,7.62,0,0,1-2.215.769c-3.547.492-5.834-1.45-6.062-5.115-.07-1.135-.011-2.279-.011-3.586-.3.331-.516.591-.756.821-2.091,2-4.178,4.008-6.292,5.987a6.47,6.47,0,0,1-1.263.812c-4.821,2.734-9.25.347-9.264-5.212a33.536,33.536,0,0,1,1.173-7.811c.666-2.774,1.691-5.462,2.556-8.189.126-.4.229-.8.361-1.27-1.512.164-2.932.265-4.33.5a1.758,1.758,0,0,0-.971.849,83.307,83.307,0,0,1-8.768,12.724,33.774,33.774,0,0,1-9.777,8.138,14.059,14.059,0,0,1-4.138,1.373,5.006,5.006,0,0,1-5.895-3.8,14.521,14.521,0,0,1,.112-7.645,45.613,45.613,0,0,1,6.872-15.168c3.555-5.287,7.46-10.271,12.725-14.008a20.1,20.1,0,0,1,6.885-3.428c4.687-1.122,7.559,1.177,7.533,6.011a22.422,22.422,0,0,1-2.016,8.509c-.5,1.213-1.045,2.411-1.628,3.751a8.288,8.288,0,0,0,4.632-1.049c.3-.165.458-.619.627-.967a200.892,200.892,0,0,1,15.84-27.4,123.986,123.986,0,0,1,24.51-26.66c2.7-2.135,5.538-4.112,9.013-4.827a7.46,7.46,0,0,1,2.242-.083,2.586,2.586,0,0,1,2.388,2.372c.516,3.286-.694,6.172-2.363,8.823-.435.692-1.854.766-2.821,1.124Zm-26.458,64.385c.147,1.565,1.246,2.482,2.565,1.75a12.575,12.575,0,0,0,3.713-2.984c6.419-8.044,10.769-17.379,16.094-26.108a1.365,1.365,0,0,0-1.37-2.142,4.071,4.071,0,0,0-1.81.564,14.926,14.926,0,0,0-2.375,1.832,70.128,70.128,0,0,0-15.372,22.181A34.142,34.142,0,0,0,4675.383,1008.931Zm-39.005-19.99c-3.688,5.13-7.075,10.165-8.65,16.161a9.182,9.182,0,0,0-.268,3.075c.192,2.224,1.831,3.2,3.9,2.317a10.247,10.247,0,0,0,2.712-1.7,41.036,41.036,0,0,0,9.548-12.981c.025-.052-.009-.134-.023-.277A14.991,14.991,0,0,1,4636.377,988.941Zm12.411-6.509c.045-3.225-1.867-4.631-4.467-3.144a12.1,12.1,0,0,0-3.364,2.775c-3.307,4.082-.977,9.119,3.557,10.761a1.021,1.021,0,0,0,.93-.308C4647.156,989.357,4648.665,986.12,4648.789,982.432Z" transform="translate(-4451.049 -931.4)" fill="#141e30"/>
  <path id="Path_2774" data-name="Path 2774" d="M4071.851,1030.991c.471-1.723,1.75-1.658,3.081-1.625,2.075.052,4.152.014,6.448.014-.324.583-.553,1.009-.794,1.427q-8.582,14.892-17.159,29.787a5.16,5.16,0,0,0-.726,1.656,1.841,1.841,0,0,0,.349,1.439c.241.228.981.152,1.371-.043a11.793,11.793,0,0,0,2.232-1.475,48.36,48.36,0,0,0,8.661-9.8,3.374,3.374,0,0,1,4.051-1.506c-.433.643-.834,1.263-1.258,1.867-3.962,5.643-8.121,11.121-13.425,15.609-2.025,1.714-4.083,3.4-6.729,4.114-3.372.9-5.7-.959-5.553-4.44a6.771,6.771,0,0,0-.307-2.2,2.075,2.075,0,0,1-.519,1.045,21.01,21.01,0,0,1-7.122,5.265,6.847,6.847,0,0,1-4.42.422c-2.437-.637-3.736-2.625-3.493-5.559.15-1.8.549-3.588.866-5.564-.344.311-.606.559-.879.793-2.984,2.568-5.856,5.283-8.989,7.656a13.644,13.644,0,0,1-9.268,2.845,6.736,6.736,0,0,1-6.262-4.776c-1.117-3.065-.951-5.718-.2-9.366.731-3.528,2.856-6.623,4.309-9.925.18-.41.4-.8.672-1.345-1.449.341-2.741.6-4,.969a1.753,1.753,0,0,0-.8.783c-1.365,2.188-2.67,4.413-4.055,6.587a51.381,51.381,0,0,1-13.053,14.135,13.543,13.543,0,0,1-6.726,2.908,5.454,5.454,0,0,1-6.079-4,15.5,15.5,0,0,1,.01-8.379c1.669-7.3,5.452-13.491,10.136-19.2a46.655,46.655,0,0,1,11.063-10.117,17.86,17.86,0,0,1,6.722-2.731,5.536,5.536,0,0,1,6.789,5.468,21.736,21.736,0,0,1-1.849,9.079,8.757,8.757,0,0,0-.64,2.263,15.338,15.338,0,0,0,2.216-.732,37.664,37.664,0,0,0,8.741-6.72c2.542-2.408,5.2-4.7,7.938-6.891a12.244,12.244,0,0,1,5.889-2.461c4.948-.753,8.191,2.379,7.366,7.281a13.029,13.029,0,0,1-4.343,7.829,5.175,5.175,0,0,1-1.757.994,2.211,2.211,0,0,1-2.843-1.72c-.495-2.678,2.208-6.405,4.935-6.754.792-.1,1.491-.146,1.511-1.216s-.425-1.974-1.4-2.122a4.274,4.274,0,0,0-2.2.2,11.277,11.277,0,0,0-2.84,1.688,50.507,50.507,0,0,0-13.622,18.678,43.581,43.581,0,0,0-2.456,7.179,7.78,7.78,0,0,0,.3,3.682,3.256,3.256,0,0,0,3.762,2.325c2.683-.373,4.765-1.9,6.7-3.642a73.511,73.511,0,0,0,10.193-11.622c3.514-4.844,6.82-9.865,11.087-14.094a73.506,73.506,0,0,1,7.654-6.555,14.129,14.129,0,0,1,4.584-1.993,4.985,4.985,0,0,1,5.6,2.013C4071.448,1030.578,4071.6,1030.723,4071.851,1030.991Zm-24.865,31.436a1.848,1.848,0,0,0,1.033,1.552,2.292,2.292,0,0,0,1.881,0,10.618,10.618,0,0,0,2.953-2.281,56.237,56.237,0,0,0,4.969-6.711c4.046-6.747,7.923-13.6,11.858-20.409.67-1.161.091-2.156-1.261-2.116a2.966,2.966,0,0,0-1.53.412,19.586,19.586,0,0,0-3.44,2.687c-1.784,1.952-3.407,4.056-5.033,6.146a68.9,68.9,0,0,0-9.64,15.551C4048.09,1058.9,4046.986,1060.862,4046.986,1062.427Zm-45.718-20.612c-.76,1.106-1.42,2.03-2.044,2.977-2.782,4.224-5.414,8.536-6.6,13.524a9.2,9.2,0,0,0-.1,3.684,2.123,2.123,0,0,0,2.955,1.832,10.661,10.661,0,0,0,3.6-1.981c4.34-3.623,7.148-8.433,9.964-13.222a3.574,3.574,0,0,0,.218-.674C4005.916,1046.862,4003.037,1045.169,4001.269,1041.816Zm12.541-5.716c-.021-.393-.018-.681-.054-.964-.321-2.534-1.847-3.523-4.225-2.589a8.482,8.482,0,0,0-4.8,5.072,4.619,4.619,0,0,0,1.409,5.612,9.129,9.129,0,0,0,2.167,1.361c2.211,1.006,2.537.842,3.5-1.31A20.316,20.316,0,0,0,4013.809,1036.1Z" transform="translate(-3952.476 -1006.483)" fill="#141e30"/>
  <path id="Path_2775" data-name="Path 2775" d="M4451.332,998.962a36.042,36.042,0,0,1,6.218-18.055c3.071-4.375,7.014-7.67,12.368-8.889,4.4-1,7.185,1.112,7.576,5.621a23.442,23.442,0,0,1-1.935,11.1,51.665,51.665,0,0,1-18.494,23.464,20.125,20.125,0,0,1-10.217,3.867c-5.315.346-9.234-1.891-11.86-6.412a20.186,20.186,0,0,1-2.324-11.412c.278-5.824,2.134-11.259,4.5-16.475,8.076-17.813,19.7-32.872,35.479-44.58a51.241,51.241,0,0,1,16.172-8.067,13.585,13.585,0,0,1,8.045-.319,11.51,11.51,0,0,1,3.089,1.653,1.447,1.447,0,0,0,1.438.237,64.027,64.027,0,0,1,8.191-2.082,23.59,23.59,0,0,1,14.781,3.164c4.764,2.635,9.458,5.4,14.18,8.108.27.155.514.355.787.545l-6.56,6.987c-.647-.35-1.377-.695-2.056-1.121-4.825-3.029-9.593-6.15-14.473-9.087a26.338,26.338,0,0,0-9.823-3.611,14.125,14.125,0,0,0-3.511.123,1.1,1.1,0,0,0-.7.818c.3,5.07-1.244,9.71-3.439,14.137a33.96,33.96,0,0,1-9.633,12.349,19.434,19.434,0,0,1-5.3,2.737c-2.991,1.044-5.332-.556-5.879-3.68a10.191,10.191,0,0,1,.659-5.369c3.2-8.684,9.04-15.261,16.515-20.517.779-.548,1.586-1.056,2.522-1.677a7.307,7.307,0,0,0-5.5.13,44.649,44.649,0,0,0-10.9,6.615c-6.91,5.424-12.532,12.065-17.876,18.965a112.436,112.436,0,0,0-14.624,24.333,53.674,53.674,0,0,0-4.279,16.337,11.711,11.711,0,0,0,1.042,6.28,7.042,7.042,0,0,0,8.694,3.86,19.8,19.8,0,0,0,8.236-5.3c5.678-5.611,10.034-12.064,11.926-19.918a19.289,19.289,0,0,0,.342-5.722c-.106-1.6-1.144-2.138-2.759-1.916a5.964,5.964,0,0,0-3.546,2.077,23.227,23.227,0,0,0-5.759,11.228,1.821,1.821,0,0,1-1.092,1.421,35.645,35.645,0,0,0-9.72,7.366A6.4,6.4,0,0,0,4451.332,998.962Zm48.341-63.827-.4-.143c-.528.287-1.07.549-1.581.864a42.157,42.157,0,0,0-16.261,18.694,11.626,11.626,0,0,0-.964,3.6c-.284,2.624,1.593,3.85,4,2.688a12.192,12.192,0,0,0,2.02-1.219,32.222,32.222,0,0,0,12.552-19.639C4499.374,938.392,4499.467,936.752,4499.673,935.135Z" transform="translate(-4306.422 -928.166)" fill="#141e30"/>
  <path id="Path_2776" data-name="Path 2776" d="M3965.547,1016.914a42.93,42.93,0,0,0-14.131-5.458,25.855,25.855,0,0,0-9.729-.126,12.07,12.07,0,0,0-7.463,4.71c-.213.278-.416.563-.652.883-.524-.749-.985-1.473-1.509-2.148-3.089-3.986-7.326-5.978-12.163-6.86a43.68,43.68,0,0,0-17.2.569c-6.506,1.408-12.929,3.2-19.436,4.61a95.63,95.63,0,0,1-13.961,2.347c-7.7.5-14.355-2-18.971-8.582a20.931,20.931,0,0,1-3.364-10.189c-.854-8.513,1.219-16.532,4.592-24.21a88.767,88.767,0,0,1,31.349-37.568,38.8,38.8,0,0,1,16.254-7,16.757,16.757,0,0,1,5.02-.2c4.124.645,6.374,4.364,5.508,8.711a16.43,16.43,0,0,1-3.68,7.31,5.029,5.029,0,0,1-3.349,1.764,2.224,2.224,0,0,1-2.559-1.893c-.668-2.891,2.389-7.481,5.591-7.431.78.012,1.063-.364,1.2-1.063a2.563,2.563,0,0,0-2.23-3.282,9.367,9.367,0,0,0-3.579.359,31.114,31.114,0,0,0-11.926,7.277c-11.255,10.482-20.325,22.559-26.234,36.827-2.431,5.87-4.276,11.941-4.143,18.412a17.718,17.718,0,0,0,2.293,9.054c2.4,3.963,6.329,5.567,10.556,6.559,4.289,1.006,8.591.414,12.795-.539,8.415-1.907,16.794-3.972,25.179-6.007a98.992,98.992,0,0,1,20.792-3.123c9.755-.255,18.567,2.321,26.234,8.457,2.349,1.88,4.655,3.815,6.943,5.769A26.843,26.843,0,0,1,3965.547,1016.914Z" transform="translate(-3846.777 -927.568)" fill="#141e30"/>
  <path id="Path_2777" data-name="Path 2777" d="M4980.071,931.383c-1.525,2.223-2.926,4.544-4.6,6.651-6.129,7.723-13.815,13.153-23.542,15.405a24.377,24.377,0,0,1-10.669.112c-.167-.035-.326-.1-.683-.219,1.617-1.971,3.22-3.792,4.663-5.732a3.958,3.958,0,0,1,3.879-1.674c5.879.313,11.311-1.432,16.481-4.115a54.868,54.868,0,0,0,13.453-9.9c.246-.244.5-.476.756-.713Z" transform="translate(-4704.954 -930.412)" fill="#141e30"/>
  <path id="Path_2778" data-name="Path 2778" d="M4466.391,1033.864c-1.549,2.512-2.96,4.82-4.4,7.108a.959.959,0,0,1-.694.367c-2.466.026-4.933.016-7.544.016a7.912,7.912,0,0,1,.372-.826c1.211-1.982,2.417-3.969,3.667-5.927a1.488,1.488,0,0,1,.93-.706C4461.184,1033.838,4463.652,1033.864,4466.391,1033.864Z" transform="translate(-4322.997 -1010.961)" fill="#141e30"/>
</svg>
