<svg id="Group_2567" data-name="Group 2567" xmlns="http://www.w3.org/2000/svg" width="357.505" height="87.929" viewBox="0 0 357.505 87.929">
  <path id="Path_2755" data-name="Path 2755" d="M3716.664,389.178h2.469c22.426,0,44.852-.05,67.276.034a48.425,48.425,0,0,1,17.152,2.774c9.4,3.56,15.841,9.966,17.526,19.978,2.708,16.095-5.49,28.285-21.368,32.19a63.5,63.5,0,0,1-13.354,1.651c-9.089.248-18.188.074-27.284.074h-2.748c-.047.842-.121,1.57-.122,2.3-.01,5.693.035,11.387-.02,17.079-.037,3.83.018,7.624,1.99,11.388h-41.17c3.132-6.456,1.98-13.19,2.022-19.779.117-18.259.009-36.519.064-54.779C3719.112,397.759,3718.987,393.5,3716.664,389.178Zm39.555,28.594c0,3.608-.054,7.218.054,10.822.018.6.758,1.7,1.136,1.685,5.873-.188,11.843.051,17.584-.971,6.627-1.18,10.1-6.7,9.447-13.158a12,12,0,0,0-11.516-10.613c-4.906-.32-9.834-.273-14.749-.469-1.6-.064-2.018.6-1.983,2.088C3756.273,410.693,3756.218,414.233,3756.219,417.772Z" transform="translate(-3574.972 -389.079)" fill="#141e30"/>
  <path id="Path_2756" data-name="Path 2756" d="M4097.659,447.243c-2.161-.358-4.107-.724-6.067-.993a32.679,32.679,0,0,0-4.336-.38c-11.038-.033-22.076.021-33.112-.065-1.841-.014-2.369.5-2.339,2.337.106,6.454-.091,12.915.1,19.365a80.772,80.772,0,0,0,1.264,9.058h-40.428c2.988-6.5,1.882-13.295,1.921-19.951q.171-28.634-.025-57.269c-.023-3.319-.9-6.632-1.406-10.11a9.847,9.847,0,0,1,1.181-.085q44.15-.009,88.3-.044c1.891,0,2.542.465,2.491,2.438-.134,5.134-.042,10.273-.05,15.41,0,.6-.062,1.2-.106,2.023-6.921-2.933-14.046-2.053-21.066-2.123-9.856-.1-19.715.015-29.573-.057-1.955-.015-2.66.543-2.611,2.6.133,5.689.1,11.384.012,17.075-.028,1.737.551,2.259,2.26,2.249,10.829-.063,21.66.041,32.488-.085a76.028,76.028,0,0,0,9.279-1.024c1.038-.141,1.823-.249,1.823,1.137C4097.656,434.841,4097.659,440.936,4097.659,447.243Z" transform="translate(-3747.705 -389.047)" fill="#141e30"/>
  <path id="Path_2757" data-name="Path 2757" d="M3458.912,476.891H3418.14c3.579-9.6,1.415-19.527,2.152-29.253.328-4.332-1.121-7.563-3.836-10.853-10.154-12.3-19.979-24.878-30.077-37.229-3.04-3.717-6.565-7.037-9.828-10.5h1.524c12.492,0,24.984.038,37.476-.044,1.76-.012,2.4.7,3.231,2.145,3.574,6.252,7.329,12.4,11.124,18.525,2.448,3.948,5.089,7.776,7.625,11.67.708,1.087,1.371,1.6,2.276.178,5.991-9.41,12.292-18.642,17.827-28.312,1.88-3.284,3.542-4.332,7.17-4.258,12.139.25,24.286.1,36.451.1a73.621,73.621,0,0,0-6.4,6.057c-7,8.342-13.853,16.8-20.716,25.257q-8,9.855-15.865,19.82a4.9,4.9,0,0,0-1.1,2.773c0,8.879.029,17.759.278,26.633C3457.512,471.961,3458.367,474.3,3458.912,476.891Z" transform="translate(-3376.552 -388.962)" fill="#141e30"/>
</svg>
