<svg xmlns="http://www.w3.org/2000/svg" width="338.358" height="87.92" viewBox="0 0 338.358 87.92">
  <g id="Group_2573" data-name="Group 2573" transform="translate(-5562.145 45.95)">
    <path id="Path_2815" data-name="Path 2815" d="M7170.3,26.352a10.273,10.273,0,0,1-.395-1.2,30.3,30.3,0,0,0-2.73-8.306,13.208,13.208,0,0,0-6.923-6.556,13.237,13.237,0,0,0-4.787-.775c-1.341-.007-2.682.126-4,.2-.284,1.038-.375,39.392-.087,41.445h1.313c3.532,0,7.064.014,10.6,0a26.111,26.111,0,0,0,25.631-21.88c.407-2.517.554-5.075.837-7.613.052-.466-.149-1.029.514-1.436a3.336,3.336,0,0,1,.246.74c.035.509.014,1.022.014,1.533q0,13.872,0,27.744v1.784h-58.822a4.339,4.339,0,0,1-1.108-.048c-.18-.049-.291-.357-.606-.784h6.964c.312-1.165.4-79.509.127-81.607h-14.732v1.77q0,30.881,0,61.763a20.343,20.343,0,0,1-.984,7,17.7,17.7,0,0,1-8.6,9.673,31.319,31.319,0,0,1-16,3.554,37.582,37.582,0,0,1-12.017-2.142,24.048,24.048,0,0,1-11.422-7.879,18.773,18.773,0,0,1-3.8-10.588c-.053-.927-.032-1.858-.032-2.788q0-29.208,0-58.417v-1.938c-.456-.042-.851-.106-1.245-.109-2-.011-4,0-6-.009-.4,0-.874.075-.871-.564.951-.324,27.951-.425,29.741-.119.209.642-.218.681-.663.682q-2.719.008-5.437,0h-1.7c-.028.623-.066,1.077-.066,1.532q0,31.369-.011,62.739a14.6,14.6,0,0,0,6.324,12.546c6.67,4.766,13.967,6.049,21.6,2.683,6.459-2.85,9.88-8.069,9.905-15.169.074-21.006.027-42.012.028-63.017v-1.227c-.535-.032-.979-.081-1.423-.082-2.324-.008-4.647,0-6.971-.011-.421,0-1.012.161-.929-.727h76.9c.315,1.022.331,28.731-.057,30.136a6.263,6.263,0,0,1-.362-.959c-.457-2.653-.8-5.328-1.364-7.958a30.834,30.834,0,0,0-5.131-11.943,19.165,19.165,0,0,0-13.116-7.911,74,74,0,0,0-8.049-.609c-2.6-.1-5.2-.022-7.807-.022h-1.467V8.189a24.7,24.7,0,0,0,9.707-.258,10.852,10.852,0,0,0,7.475-6.922,23.218,23.218,0,0,0,1.438-6.365c.071-.762.167-1.521.286-2.586.383.415.608.546.634.708a8.206,8.206,0,0,1,.046,1.251q0,15.336,0,30.672c0,.529-.066,1.058-.1,1.587Z" transform="translate(-1290.033 -12.525)" fill="#141e30"/>
    <path id="Path_2816" data-name="Path 2816" d="M6089.038,2.653c-.074,7.415-2.887,17.269-9.315,25.923A35.631,35.631,0,0,1,6061.981,41.7c-8.459,2.761-16.5,1.588-24.122-2.823a38.23,38.23,0,0,1-16.284-18.689c-6.433-15.214-6.066-30.314,1.648-45.01a36.766,36.766,0,0,1,17.462-16.8c9.466-4.35,18.751-3.814,27.73,1.432,7.835,4.577,13.16,11.331,16.66,19.606C6087.772-14.205,6089.036-7.543,6089.038,2.653ZM6073.913,1.2a93.972,93.972,0,0,0-1.523-17.378,65.356,65.356,0,0,0-4.568-15.02,25.551,25.551,0,0,0-5.828-8.426c-4.021-3.643-8.626-4.6-13.7-2.645a15.6,15.6,0,0,0-6.918,5.875,34.335,34.335,0,0,0-4.559,9.055,80.973,80.973,0,0,0-4.278,31.82,83.685,83.685,0,0,0,3.44,19.011,37.8,37.8,0,0,0,6.076,12.452,14.768,14.768,0,0,0,6.368,5.048,12.469,12.469,0,0,0,13.565-2.7,26.64,26.64,0,0,0,6.55-10.087A79.571,79.571,0,0,0,6073.913,1.2Z" transform="translate(-391.438 -1.218)" fill="#141e30"/>
    <path id="Path_2817" data-name="Path 2817" d="M6655.158,5.6h-6.667c0,11.39,0,22.594,0,33.8l-.3.091a4.2,4.2,0,0,1-.643-.6c-2.926-4.13-7.07-4.823-11.618-3.1-1.3.491-2.506,1.207-3.754,1.823a30.914,30.914,0,0,1-13.888,3.616,27.823,27.823,0,0,1-19.021-7.418,40.434,40.434,0,0,1-10.424-15.464,52.36,52.36,0,0,1-3.631-24.173c.815-9.637,3.758-18.545,9.689-26.307a36.666,36.666,0,0,1,15.225-11.843,21.407,21.407,0,0,1,11.283-1.813,37.776,37.776,0,0,1,5.629,1.509c1.862.566,3.675,1.3,5.548,1.821a8.685,8.685,0,0,0,7.672-1.421c.531-.376,1.059-.758,1.612-1.1a6.5,6.5,0,0,1,.958-.4c.37,1.648.3,28.195-.052,29.182-.679-.138-.569-.753-.7-1.191-.666-2.271-1.229-4.575-1.977-6.818a39.669,39.669,0,0,0-9.4-15.466,20.084,20.084,0,0,0-6.234-4.38,13.04,13.04,0,0,0-14.768,2.832,26.432,26.432,0,0,0-5.837,10.193,69.138,69.138,0,0,0-3.081,14.128,131.273,131.273,0,0,0-.513,25.189c.505,7.632,1.719,15.138,4.672,22.259a28.888,28.888,0,0,0,2.1,4.08,11.624,11.624,0,0,0,8.414,5.628A18.349,18.349,0,0,0,6632.1,34.8a8.6,8.6,0,0,0,2.6-6.387c-.053-7.2-.017-14.407-.02-21.611,0-.319-.045-.637-.078-1.078-.428-.038-.827-.1-1.225-.1-1.813-.012-3.625,0-5.438-.013-.428,0-1.014.112-.8-.871h1.316q12.619,0,25.237.015C6654.165,4.752,6654.844,4.454,6655.158,5.6Z" transform="translate(-880.133)" fill="#141e30"/>
    <path id="Path_2818" data-name="Path 2818" d="M5607.029,29.84,5625.634-30.5c-.48-.048-.828-.112-1.175-.114-1.766-.011-3.532,0-5.3-.009-.412,0-.887.049-.807-.613a155.065,155.065,0,0,1,15.948-.056c.15.635-.269.669-.712.67q-2.371,0-4.74,0h-1.585q-13.193,41.961-26.334,83.755c-3.717-9.237-7.078-18.557-10.491-27.858q-5.11-13.925-10.187-27.863c-3.409-9.324-6.822-18.647-10.256-28.034-2.12,0-4.161,0-6.2,0a7.24,7.24,0,0,1-1.25-.054c-.148-.026-.254-.294-.4-.479,1.026-.363,27.368-.488,29.707-.171.135.433.015.691-.487.7-.79.008-1.58.008-2.37.008-1.343,0-2.687,0-3.948,0a1.457,1.457,0,0,0-.164.183.216.216,0,0,0-.036.133c.082.311.152.628.262.929q10.775,29.5,21.561,59C5606.691,29.682,5606.81,29.71,5607.029,29.84Z" transform="translate(0.001 -12.426)" fill="#141e30"/>
  </g>
</svg>
