<svg xmlns="http://www.w3.org/2000/svg" width="353.201" height="87.467" viewBox="0 0 353.201 87.467">
  <g id="Group_2570" data-name="Group 2570" transform="translate(-2728.451 -2721.27)">
    <path id="Path_2779" data-name="Path 2779" d="M3336.287,2745.692H3165.244a1.947,1.947,0,0,1-.057-.454c.325-2.625.54-5.272,1.014-7.871,1.2-6.58,5.068-11.1,11.1-13.814a27.687,27.687,0,0,1,10.714-2.265c.654-.019,1.308-.012,1.962-.012q63.443,0,126.885-.006a32.191,32.191,0,0,1,8.7.969,15.645,15.645,0,0,1,7.711,4.517,15.044,15.044,0,0,1,3.611,8.258,30.43,30.43,0,0,1-.278,8.283C3336.5,2744.067,3336.4,2744.837,3336.287,2745.692Z" transform="translate(-345.469)" fill="#141e30"/>
    <path id="Path_2780" data-name="Path 2780" d="M3134.953,2883.536h1.111q31.115,0,62.23,0a25.612,25.612,0,0,1,9.173,1.468c5.887,2.229,9.048,6.544,9.748,12.752a30.269,30.269,0,0,1-.235,7.265c-.483,3.768-.953,7.538-1.489,11.3-.267,1.879-.63,3.746-1.013,5.605a16.948,16.948,0,0,1-8.505,11.506,27.284,27.284,0,0,1-9.773,3.272,43.435,43.435,0,0,1-6.8.385q-29.9-.012-59.8-.014h-1.127c.041-2,.421-3.883.618-5.781.2-1.951.471-3.895.712-5.842q.356-2.873.716-5.747l.723-5.795h56.432c.519-3.348.85-6.645,1.281-10.065-.431-.018-.788-.047-1.145-.047q-7.756,0-15.511,0-11.353,0-22.706,0a17.874,17.874,0,0,1-6.41-1.092,12.419,12.419,0,0,1-7.663-8.021,17.027,17.027,0,0,1-.913-5.226c-.019-1.306.028-2.615.087-3.921C3134.726,2884.918,3134.851,2884.307,3134.953,2883.536Z" transform="translate(-316.43 -128.357)" fill="#141e30"/>
    <path id="Path_2781" data-name="Path 2781" d="M2734.993,2883.778h77.581c-.83,6.726-1.652,13.387-2.489,20.173-2.037.078-4.048.025-6.056.035-2.024.009-4.049,0-6.073,0H2761.5c-.473,3.333-.819,6.627-1.207,9.842.087.1.1.13.125.151a.216.216,0,0,0,.073.058,1.4,1.4,0,0,0,.181.042.736.736,0,0,0,.093.006l.094,0,.187,0h.28l46.813,0h.093l.187.008c.031,0,.062.006.093.011a.579.579,0,0,1,.091.02.787.787,0,0,1,.082.04c.134.652-2.272,21.011-2.711,22.937-.666.193-76.366.237-77.523.019Q2731.709,2910.476,2734.993,2883.778Z" transform="translate(0 -128.549)" fill="#141e30"/>
    <path id="Path_2782" data-name="Path 2782" d="M3593.895,2903.784,3589.8,2937h-28.791a.472.472,0,0,1-.072-.065.143.143,0,0,1-.034-.083c.035-.464.057-.928.114-1.389q3.174-25.9,6.351-51.774c.792-.208,79.768-.228,80.739-.015-.1.937-.172,1.89-.293,2.838-.217,1.7-.379,3.408-.707,5.085-1.245,6.382-5.212,10.134-11.44,11.623a23.366,23.366,0,0,1-5.468.57q-17.515-.007-35.031,0Z" transform="translate(-658.493 -128.345)" fill="#141e30"/>
    <path id="Path_2783" data-name="Path 2783" d="M4096.756,2745.72h-84.1c1-8.15,1.983-16.229,2.978-24.372.377-.019.679-.048.98-.048q31.2,0,62.392,0a24.177,24.177,0,0,1,8.789,1.48c5.736,2.21,8.785,6.478,9.542,12.5a32.084,32.084,0,0,1-.282,8.188C4096.958,2744.2,4096.859,2744.94,4096.756,2745.72Z" transform="translate(-1015.844 -0.023)" fill="#141e30"/>
    <path id="Path_2784" data-name="Path 2784" d="M2768.237,2721.538h77.584c-.994,8.145-1.98,16.224-2.973,24.362h-77.588C2766.252,2737.776,2767.239,2729.7,2768.237,2721.538Z" transform="translate(-29.116 -0.212)" fill="#141e30"/>
    <path id="Path_2785" data-name="Path 2785" d="M3982.808,2883.856h28.921q-3.28,26.748-6.536,53.311c-.729.194-27.481.253-28.858.073a8.824,8.824,0,0,1,.005-1.062q1.3-10.706,2.612-21.412,1.4-11.4,2.8-22.8.467-3.8.935-7.6A5.156,5.156,0,0,1,3982.808,2883.856Z" transform="translate(-987.1 -128.61)" fill="#141e30"/>
    <path id="Path_2786" data-name="Path 2786" d="M4269.3,2937.239h-28.8c-.173-.892,6.214-52.357,6.5-53.424h28.85C4273.677,2901.651,4271.5,2919.423,4269.3,2937.239Z" transform="translate(-1196.077 -128.578)" fill="#141e30"/>
  </g>
</svg>
