<svg xmlns="http://www.w3.org/2000/svg" width="343.512" height="87.544" viewBox="0 0 343.512 87.544">
  <g id="Group_2568" data-name="Group 2568" transform="translate(0 0)">
    <path id="Path_2759" data-name="Path 2759" d="M3649.327-104.345H3369.421c17.255-8.575,27.965-21.725,30.14-40.8,2.167-19-5.115-34.278-19.874-46.441h269.64Zm-182.615-64.97c-2.575-.516-4.938-1.112-7.338-1.444-5.508-.762-10.972-.834-16.2,1.554a24.285,24.285,0,0,0-9.131,6.456c-5.847,7.17-6.927,15.473-4.893,24.094,2.854,12.1,12.61,18.6,25,17.587,4.34-.356,8.588-1.882,12.856-2.96a1.682,1.682,0,0,0,.965-1.258c.049-7.2.014-14.392.019-21.588,0-.832-.293-1.17-1.157-1.166q-7.563.039-15.126,0c-.9-.005-1.116.374-1.106,1.184.018,1.5.036,3.016-.095,4.512-.119,1.368.365,1.828,1.731,1.773,2.243-.091,4.493-.025,6.853-.025,0,2.867.026,5.489-.006,8.111-.044,3.6.219,3.168-3.163,3.492-5.526.529-10.468-.882-13.971-5.4-4.725-6.087-5.233-12.917-2.088-19.755a14.766,14.766,0,0,1,12.643-8.939c3.563-.287,7.207.31,10.8.624.8.07,1.1-.132,1.328-.807C3465.28-165.175,3465.944-167.076,3466.711-169.315Zm146.218,43.651c.186,1.075.361,2.023.512,2.975.111.695.406,1.069,1.2,1.043,1.836-.06,3.674-.06,5.51-.049.753,0,1.135-.25,1.127-1.055-.084-8.035.072-16.08-.3-24.1-.284-6.107-5.021-10.042-11.172-10.254a25.562,25.562,0,0,0-10.834,2.135c-4.022,1.676-4.351.592-2.151,5.562.476,1.075,1,1.079,2.055.788a56.514,56.514,0,0,1,7.937-1.772c4.364-.554,6.37,2.9,5.721,7.081-.4.028-.821.027-1.232.089-3.657.558-7.452.684-10.941,1.778-9.979,3.127-9.044,13.755-3.954,18.016,3.936,3.3,8.129,3.414,13.144.318C3610.695-123.816,3611.708-124.731,3612.929-125.663Zm-118.844-17.671c-.8.044-1.306.061-1.813.1-3.7.3-7.414.491-10.921,1.9-5.56,2.237-7.845,5.646-7.234,11.542.45,4.339,5.258,8.87,9.442,8.789a13.649,13.649,0,0,0,8.125-2.733c.784-.579,1.537-1.2,2.469-1.934.154.881.32,1.6.4,2.319.121,1.151.573,1.738,1.878,1.644a37.51,37.51,0,0,1,4.661.027c1.072.057,1.5-.234,1.485-1.4-.073-7.618.029-15.239-.142-22.855-.1-4.279-2.335-9.662-8.6-10.71a25.517,25.517,0,0,0-6.991-.1c-3.549.4-6.839,1.806-10.16,3.256.511,1.368,1.038,2.575,1.407,3.827.341,1.156.843,1.39,2.023.988,2.885-.983,5.783-1.975,8.926-1.771a4.617,4.617,0,0,1,4.635,3.758A31.739,31.739,0,0,1,3494.085-143.334Zm49.9,5.669a17.976,17.976,0,0,0,1.963,8.83,14.576,14.576,0,0,0,13.921,7.917,27.843,27.843,0,0,0,8.647-2.341c4.333-1.864,4.3-1.1,1.751-5.64-.046-.082-.075-.213-.142-.237a2.382,2.382,0,0,0-1.041-.29c-1.706.309-3.385.775-5.1,1.035-5.213.794-9.284-1.47-10.646-6.12a12.232,12.232,0,0,1-.382-5.14c.894-5.816,3.318-8.886,8.4-10.035a19.374,19.374,0,0,1,4.352-.171c1.126.008,2.565.6,3.292.1.8-.553.971-2.046,1.391-3.139.877-2.284.875-2.3-1.493-2.98-4.308-1.232-8.6-1.895-12.995-.226C3548.6-153.329,3543.994-146.287,3543.986-137.665ZM3510.871-148.2h-.034c0,8.32.025,16.641-.027,24.96-.008,1.253.372,1.646,1.606,1.584,1.832-.092,3.673-.021,5.509-.024s1.836-.005,1.836-1.893q0-19.179,0-38.357c0-3.714-.025-7.427.014-11.14.01-1.034-.37-1.437-1.4-1.415-1.977.043-3.958.07-5.933-.01-1.238-.05-1.6.379-1.6,1.616C3510.895-164.654,3510.871-156.428,3510.871-148.2Zm17.81-7.968c-.034.644-.087,1.2-.088,1.755q-.026,15.223-.04,30.446c0,.423.025.846.013,1.268-.022.774.325,1.07,1.11,1.056,2.023-.037,4.051-.076,6.071.013,1.281.056,1.667-.35,1.659-1.659-.063-10.477-.049-20.955-.063-31.433,0-.456-.051-.911-.083-1.447Zm49.909,0a4.429,4.429,0,0,0-.106.592q-.011,16.417-.031,32.835c0,.923.419,1.092,1.2,1.08,2.023-.031,4.05-.077,6.07.011,1.215.053,1.487-.411,1.482-1.545-.055-10.522-.056-21.045-.079-31.567,0-.453-.05-.906-.079-1.406ZM3528.427-168.4a4.6,4.6,0,0,0,4.449,4.681,4.757,4.757,0,0,0,4.706-4.48,4.712,4.712,0,0,0-4.519-4.95A4.5,4.5,0,0,0,3528.427-168.4Zm49.78-.214a4.786,4.786,0,0,0,4.606,4.895,4.85,4.85,0,0,0,4.582-4.5,4.591,4.591,0,0,0-4.461-4.951A4.6,4.6,0,0,0,3578.207-168.61Z" transform="translate(-3305.815 191.743)" fill="#141e30"/>
    <path id="Path_2760" data-name="Path 2760" d="M3144.7-104.611V-192.1h4.657c13.431,0,26.861-.1,40.291.025a42.279,42.279,0,0,1,27.082,10.19,42.348,42.348,0,0,1,15.186,26.265,41.528,41.528,0,0,1-8.2,33.507c-8.772,11.4-20.6,17.464-35.217,17.5-14,.038-27.991,0-41.987,0Zm43.62-9.736.349-.017c.806-5.668,1.631-11.333,2.414-17q1.4-10.119,2.724-20.247c.049-.37.01-.992-.208-1.118-2.178-1.261-2.661-3.463-3.094-5.613-.419-2.078-.568-4.21-.846-6.408a27.6,27.6,0,0,1,11,1.684A2.989,2.989,0,0,0,3204.3-164a3.329,3.329,0,0,0,.064-3.947,3.04,3.04,0,0,0-3.587-1.149,26.562,26.562,0,0,1-2.555.8,34.109,34.109,0,0,1-8.643.986c.285-2.394.468-4.595.832-6.765.239-1.427.759-2.8,1.107-4.215a3.321,3.321,0,0,0,.123-1.489,3.163,3.163,0,0,0-4.173-2.471c-1.974.566-2.7,2.194-1.961,4.351a33.174,33.174,0,0,1,1.709,10.532,3.9,3.9,0,0,1-.83.065c-3.416-.6-6.84-1.161-10.237-1.855a3.378,3.378,0,0,0-3.615,1.183,3.37,3.37,0,0,0,.054,3.952,3.054,3.054,0,0,0,3.641.97,16.4,16.4,0,0,1,2.949-.941c2.611-.429,5.241-.733,8.075-1.115-.138,1.5-.175,2.573-.346,3.63-.428,2.636-.506,5.547-2.476,7.492-1.359,1.342-1.3,2.584-1.116,4.1.109.886.2,1.774.32,2.658q1.79,12.837,3.593,25.672C3187.57-119.149,3187.955-116.75,3188.319-114.347Z" transform="translate(-3144.699 192.135)" fill="#141e30"/>
    <path id="Path_2761" data-name="Path 2761" d="M3615.62-117.751c-.768,2.238-1.432,4.14-2.069,6.05-.225.675-.524.877-1.329.807-3.6-.314-7.24-.911-10.8-.624a14.766,14.766,0,0,0-12.643,8.939c-3.146,6.838-2.638,13.668,2.088,19.755,3.5,4.513,8.445,5.924,13.971,5.4,3.381-.324,3.119.108,3.163-3.492.031-2.622.006-5.244.006-8.111-2.36,0-4.61-.066-6.853.025-1.366.055-1.85-.405-1.731-1.773.13-1.5.114-3.008.094-4.512-.01-.81.209-1.189,1.107-1.184q7.563.044,15.127,0c.864,0,1.158.333,1.157,1.166-.005,7.2.031,14.392-.019,21.588a1.683,1.683,0,0,1-.965,1.258c-4.268,1.078-8.516,2.6-12.856,2.96-12.394,1.018-22.15-5.489-25-17.587-2.034-8.621-.954-16.924,4.893-24.094a24.288,24.288,0,0,1,9.13-6.456c5.225-2.388,10.689-2.316,16.2-1.554C3610.681-118.863,3613.044-118.266,3615.62-117.751Z" transform="translate(-3454.723 140.179)" fill="#fff"/>
    <path id="Path_2762" data-name="Path 2762" d="M4178.442-38.352c-1.222.933-2.235,1.848-3.377,2.553-5.014,3.1-9.208,2.977-13.144-.318-5.09-4.26-6.025-14.889,3.954-18.016,3.49-1.093,7.284-1.219,10.941-1.778.411-.063.831-.062,1.232-.089.648-4.18-1.357-7.635-5.721-7.081a56.522,56.522,0,0,0-7.937,1.772c-1.05.291-1.579.287-2.055-.788-2.2-4.97-1.871-3.885,2.151-5.562a25.565,25.565,0,0,1,10.834-2.135c6.15.213,10.887,4.148,11.172,10.254.373,8.021.217,16.066.3,24.1.008.8-.374,1.06-1.127,1.055-1.836-.012-3.675-.012-5.51.049-.8.026-1.091-.348-1.2-1.043C4178.8-36.329,4178.628-37.277,4178.442-38.352Zm-.138-12.095c-1.352.115-2.469.168-3.573.313A14.028,14.028,0,0,0,4168.11-48a3.9,3.9,0,0,0-1.472,4.736,4.007,4.007,0,0,0,3.91,2.856c2.969.023,5.228-1.592,7.429-3.3a1.243,1.243,0,0,0,.314-.872C4178.318-46.452,4178.3-48.324,4178.3-50.447Z" transform="translate(-3871.328 104.432)" fill="#fff"/>
    <path id="Path_2763" data-name="Path 2763" d="M3759.04-55.562a31.8,31.8,0,0,0-.415-3.355,4.616,4.616,0,0,0-4.635-3.758c-3.143-.2-6.041.788-8.926,1.771-1.18.4-1.683.168-2.023-.988-.369-1.252-.9-2.459-1.408-3.827,3.322-1.451,6.611-2.854,10.161-3.256a25.517,25.517,0,0,1,6.991.1c6.266,1.048,8.5,6.43,8.6,10.71.171,7.615.07,15.236.143,22.855.011,1.168-.412,1.459-1.485,1.4a37.515,37.515,0,0,0-4.662-.027c-1.305.094-1.757-.492-1.878-1.644-.076-.723-.242-1.438-.4-2.319-.933.733-1.685,1.355-2.47,1.934a13.649,13.649,0,0,1-8.124,2.733c-4.184.08-8.992-4.45-9.442-8.789-.611-5.9,1.674-9.305,7.234-11.542,3.507-1.411,7.222-1.6,10.92-1.9C3757.734-55.5,3758.243-55.518,3759.04-55.562Zm.069,9.129c0-.235.009-.471,0-.705-.124-2.754-.124-2.753-2.8-2.589a5.1,5.1,0,0,0-1.126.056,37.958,37.958,0,0,0-6.082,1.982c-1.687.843-2.186,2.7-1.869,4.531a3.906,3.906,0,0,0,3.059,2.99c1.92.608,3.617-.19,5.295-.867C3758.591-42.251,3759.19-43.246,3759.109-46.433Z" transform="translate(-3570.77 103.971)" fill="#fff"/>
    <path id="Path_2764" data-name="Path 2764" d="M3986.163-50.3c.008-8.622,4.618-15.664,11.916-18.433,4.4-1.668,8.687-1.006,13,.226,2.369.678,2.371.7,1.493,2.98-.42,1.093-.587,2.586-1.391,3.139-.727.5-2.166-.095-3.291-.1a19.375,19.375,0,0,0-4.352.171c-5.078,1.148-7.5,4.219-8.4,10.035a12.228,12.228,0,0,0,.382,5.14c1.362,4.65,5.434,6.914,10.647,6.12,1.712-.26,3.392-.726,5.1-1.035a2.378,2.378,0,0,1,1.041.29c.067.023.1.155.143.237,2.546,4.537,2.582,3.776-1.752,5.64a27.836,27.836,0,0,1-8.646,2.341,14.576,14.576,0,0,1-13.921-7.917A17.979,17.979,0,0,1,3986.163-50.3Z" transform="translate(-3747.992 104.376)" fill="#fff"/>
    <path id="Path_2765" data-name="Path 2765" d="M3869.012-104.918c0-8.226.024-16.452-.026-24.678-.008-1.237.358-1.667,1.6-1.616,1.975.08,3.956.053,5.933.01,1.032-.022,1.414.38,1.4,1.415-.038,3.713-.014,7.427-.014,11.14q0,19.179,0,38.357c0,1.887-.005,1.89-1.836,1.893s-3.677-.068-5.509.024c-1.234.062-1.614-.331-1.606-1.584.052-8.32.027-16.64.027-24.96Z" transform="translate(-3663.956 148.459)" fill="#fff"/>
    <path id="Path_2766" data-name="Path 2766" d="M3931.764-66.453h8.58c.032.535.082.991.083,1.447.014,10.478,0,20.956.063,31.433.008,1.309-.378,1.715-1.659,1.659-2.02-.089-4.048-.05-6.071-.013-.785.014-1.133-.282-1.11-1.056.012-.422-.013-.845-.013-1.268q.017-15.223.04-30.446C3931.677-65.254,3931.73-65.809,3931.764-66.453Z" transform="translate(-3708.899 102.027)" fill="#fff"/>
    <path id="Path_2767" data-name="Path 2767" d="M4108.07-66.469h8.46c.03.5.08.954.08,1.406.022,10.522.023,21.045.079,31.567.006,1.134-.266,1.6-1.482,1.545-2.02-.088-4.046-.042-6.07-.011-.786.012-1.207-.157-1.2-1.08q.041-16.417.031-32.835A4.348,4.348,0,0,1,4108.07-66.469Z" transform="translate(-3835.296 102.038)" fill="#fff"/>
    <path id="Path_2768" data-name="Path 2768" d="M3931.194-121.682a4.5,4.5,0,0,1,4.636-4.75,4.712,4.712,0,0,1,4.519,4.95,4.758,4.758,0,0,1-4.707,4.48A4.6,4.6,0,0,1,3931.194-121.682Z" transform="translate(-3708.582 145.029)" fill="#fff"/>
    <path id="Path_2769" data-name="Path 2769" d="M4107.064-121.948a4.6,4.6,0,0,1,4.727-4.556,4.591,4.591,0,0,1,4.461,4.951,4.85,4.85,0,0,1-4.582,4.5A4.785,4.785,0,0,1,4107.064-121.948Z" transform="translate(-3834.672 145.081)" fill="#fff"/>
    <path id="Path_2770" data-name="Path 2770" d="M3257.277-89.706c-.365-2.4-.749-4.8-1.089-7.209q-1.81-12.834-3.593-25.672c-.123-.884-.211-1.773-.32-2.658-.186-1.513-.243-2.755,1.116-4.1,1.97-1.945,2.048-4.856,2.476-7.492.171-1.057.208-2.135.346-3.63-2.834.382-5.465.686-8.075,1.115a16.4,16.4,0,0,0-2.949.941,3.054,3.054,0,0,1-3.641-.97,3.369,3.369,0,0,1-.054-3.952,3.378,3.378,0,0,1,3.615-1.183c3.4.693,6.822,1.254,10.237,1.855a3.9,3.9,0,0,0,.83-.065,33.188,33.188,0,0,0-1.71-10.532c-.739-2.157-.012-3.785,1.961-4.351a3.163,3.163,0,0,1,4.173,2.471,3.321,3.321,0,0,1-.123,1.489c-.349,1.411-.869,2.788-1.108,4.215-.363,2.17-.547,4.371-.832,6.765a34.1,34.1,0,0,0,8.642-.986,26.567,26.567,0,0,0,2.555-.8,3.04,3.04,0,0,1,3.587,1.149,3.329,3.329,0,0,1-.064,3.947,2.989,2.989,0,0,1-3.643.929,27.606,27.606,0,0,0-11-1.684c.279,2.2.428,4.33.847,6.408.434,2.15.917,4.352,3.094,5.613.218.126.257.748.208,1.118q-1.336,10.127-2.724,20.247c-.783,5.671-1.607,11.336-2.413,17Z" transform="translate(-3213.656 167.494)" fill="#fff"/>
    <path id="Path_2771" data-name="Path 2771" d="M4199.046-1.4c0,2.123.015,3.994-.014,5.866a1.243,1.243,0,0,1-.314.872c-2.2,1.7-4.46,3.32-7.428,3.3a4.007,4.007,0,0,1-3.91-2.856,3.9,3.9,0,0,1,1.472-4.736,14.03,14.03,0,0,1,6.621-2.13C4196.577-1.237,4197.694-1.29,4199.046-1.4Z" transform="translate(-3892.069 55.39)" fill="#141e30"/>
    <path id="Path_2772" data-name="Path 2772" d="M3779.783,2.656c.081,3.187-.519,4.183-3.528,5.4-1.678.677-3.375,1.475-5.295.867a3.9,3.9,0,0,1-3.059-2.99c-.317-1.835.181-3.687,1.868-4.531a37.955,37.955,0,0,1,6.081-1.982,5.1,5.1,0,0,1,1.126-.056c2.68-.164,2.68-.165,2.8,2.589C3779.792,2.185,3779.783,2.42,3779.783,2.656Z" transform="translate(-3591.443 54.882)" fill="#141e30"/>
  </g>
</svg>
