<svg xmlns="http://www.w3.org/2000/svg" width="250" height="250" viewBox="0 0 250 250">
  <g id="Group_2639" data-name="Group 2639" transform="translate(6354 863)">
    <g id="Group_2638" data-name="Group 2638">
      <rect id="Rectangle_1505" data-name="Rectangle 1505" width="250" height="250" transform="translate(-6354 -863)" fill="#fff"/>
      <path id="Path_2821" data-name="Path 2821" d="M182.439,41H48.208A7.513,7.513,0,0,0,40.7,48.508V266.229a7.513,7.513,0,0,0,7.508,7.508H182.439a7.513,7.513,0,0,0,7.508-7.508V62.617h0V48.508A7.431,7.431,0,0,0,182.439,41ZM55.715,56.015H88.464c-6.213,7.249-8.673,16.827-10.873,25.5A102.282,102.282,0,0,1,73.708,94.46c-2.848,7.119-7.9,13.333-13.2,20.063-1.683,2.071-3.236,4.142-4.919,6.343V56.015Zm0,202.577V203.32c3.107,3.883,6.472,7.508,9.708,11,4.919,5.307,9.579,10.355,13.2,15.921,1.424,2.2,2.718,4.53,4.142,6.99,2.459,4.4,4.919,8.931,8.414,13.074l.129.259a60.006,60.006,0,0,0,7.767,8.025Zm119.216,0H146.066c-28.218,0-38.444-12.426-42.845-17.734l-.129-.259a72.764,72.764,0,0,1-6.86-10.744c-1.424-2.589-2.977-5.307-4.66-7.9-4.4-6.731-9.708-12.426-14.886-17.992-5.7-6.084-11.132-11.909-14.886-18.64A48.7,48.7,0,0,1,60.763,140.8c2.977-5.954,7.249-11.261,11.779-17.086,5.7-7.249,11.65-14.627,15.274-23.688a124.922,124.922,0,0,0,4.53-15.015c2.459-9.579,4.53-17.992,10.744-22.135a2.823,2.823,0,0,0,.647-.518,43.417,43.417,0,0,1,10.744-6.472h49.965a18.814,18.814,0,0,0-6.213,6.213c-5.954,9.19-11.132,11.132-18.122,13.721a78.255,78.255,0,0,0-7.9,3.236c-9.061,4.4-16.957,11.52-24.723,22.393a130.51,130.51,0,0,0-22.911,54.625c-1.036,6.084-1.942,13.98.259,21.876,1.683,5.825,4.66,10.614,7.508,15.274,1.165,1.942,2.33,3.754,3.366,5.566,1.036,1.942,1.942,4.013,2.977,6.213a63,63,0,0,0,7.767,13.591c11.261,14.5,30.289,18.51,48.67,21.358a35.91,35.91,0,0,0,6.343.518,33.953,33.953,0,0,0,13.462-2.977v21.1Zm0-99.929a17.157,17.157,0,0,1-5.566.647c-.777-.129-1.294-.129-1.294-.777a5.457,5.457,0,0,1,1.165-2.977,2.615,2.615,0,0,1,2.589-1.424,13,13,0,0,1,3.107.518v4.013Zm0-19.416a34.2,34.2,0,0,0-3.754-.259,17.635,17.635,0,0,0-14.756,8.543,36.5,36.5,0,0,0-3.624,7.637c-1.424,4.66-.777,8.673,1.683,12.168,2.718,3.754,7.767,6.343,13.462,6.86a14.067,14.067,0,0,0,2.33.129,28.3,28.3,0,0,0,4.66-.388v7.119c-.518.129-1.165.259-1.683.388-6.6,2.589-13.462,5.307-19.8,4.789A19.791,19.791,0,0,1,137,173.549c-2.459-7.119-.518-15.792,1.553-23.429,1.942-7.119,4.919-16.18,9.967-23.558a17.948,17.948,0,0,1,4.013-4.53c4.789-3.624,14.756-3.107,20.063-2.848a6.056,6.056,0,0,0,2.2-.259v20.322Zm0-34.82c-.518-.129-.906-.129-1.424-.259-10.1-.518-21.617-.518-30.031,5.954a32.846,32.846,0,0,0-7.249,8.025c-6.343,9.19-9.838,19.8-12.038,28.089-2.718,9.838-5.048,21.358-1.294,32.361a34.3,34.3,0,0,0,29.513,22.911,19.117,19.117,0,0,0,2.718.129c7.249,0,13.98-2.2,19.934-4.4v23.17l-5.178,3.107c-5.7,2.459-8.155,2.459-12.3,1.812-15.4-2.459-31.2-5.566-39.091-15.663-2.33-2.977-4.013-6.731-5.954-10.614q-1.553-3.495-3.495-6.99c-1.165-2.2-2.589-4.272-3.754-6.343-2.459-3.883-4.789-7.637-5.825-11.391-1.424-4.919-.777-10.485,0-15.274a115.267,115.267,0,0,1,20.193-48.282c6.343-8.8,12.426-14.368,19.028-17.6,2.2-1.036,4.272-1.812,6.6-2.718,7.9-2.977,16.957-6.213,25.629-19.8.129-.259.129-.129.259-.259a4.254,4.254,0,0,1,3.624-1.812v35.855Z" transform="translate(-6334.325 -895.391)"/>
    </g>
  </g>
</svg>
