<svg xmlns="http://www.w3.org/2000/svg" width="262" height="262" viewBox="0 0 262 262">
  <g id="Group_2579" data-name="Group 2579" transform="translate(-2000 -1345)">
    <g id="Group_2575" data-name="Group 2575" transform="translate(463 348)">
      <rect id="Rectangle_1472" data-name="Rectangle 1472" width="262" height="262" rx="15" transform="translate(1537 997)" fill="#f2f2f2"/>
    </g>
    <g id="Group_2580" data-name="Group 2580" transform="translate(1530.637 703.148)">
      <g id="Group_2545" data-name="Group 2545" transform="translate(540.455 695.509)">
        <path id="Path_2140" data-name="Path 2140" d="M652.787,850.195H547.939a7.492,7.492,0,0,1-7.484-7.484V702.994a7.492,7.492,0,0,1,7.484-7.485H652.787a7.492,7.492,0,0,1,7.484,7.485V842.71A7.492,7.492,0,0,1,652.787,850.195ZM547.939,698.031a4.968,4.968,0,0,0-4.962,4.963V842.71a4.968,4.968,0,0,0,4.962,4.962H652.787a4.967,4.967,0,0,0,4.961-4.962V702.994a4.967,4.967,0,0,0-4.961-4.963Z" transform="translate(-540.455 -695.509)" fill="#ff4600"/>
        <path id="Path_2140_-_Outline" data-name="Path 2140 - Outline" d="M652.787,850.695H547.939a7.993,7.993,0,0,1-7.984-7.984V702.994a7.993,7.993,0,0,1,7.984-7.985H652.787a7.993,7.993,0,0,1,7.984,7.985V842.71A7.993,7.993,0,0,1,652.787,850.695ZM547.939,696.009a6.992,6.992,0,0,0-6.984,6.985V842.71a6.992,6.992,0,0,0,6.984,6.984H652.787a6.992,6.992,0,0,0,6.984-6.984V702.994a6.992,6.992,0,0,0-6.984-6.985ZM652.787,848.173H547.939a5.468,5.468,0,0,1-5.462-5.462V702.994a5.468,5.468,0,0,1,5.462-5.463H652.787a5.468,5.468,0,0,1,5.461,5.463V842.71A5.468,5.468,0,0,1,652.787,848.173ZM547.939,698.531a4.467,4.467,0,0,0-4.462,4.463V842.71a4.467,4.467,0,0,0,4.462,4.462H652.787a4.467,4.467,0,0,0,4.461-4.462V702.994a4.467,4.467,0,0,0-4.461-4.463Z" transform="translate(-540.455 -695.509)" fill="#ff4600"/>
      </g>
      <g id="Group_2549" data-name="Group 2549" transform="translate(557.953 714.468)">
        <g id="Group_2546" data-name="Group 2546">
          <path id="Path_2141" data-name="Path 2141" d="M637.851,777.146H561.4a4.192,4.192,0,0,1-4.187-4.188V719.284A4.192,4.192,0,0,1,561.4,715.1h76.446a4.192,4.192,0,0,1,4.187,4.187v53.674A4.192,4.192,0,0,1,637.851,777.146ZM561.4,717.586a1.7,1.7,0,0,0-1.7,1.7v53.674a1.7,1.7,0,0,0,1.7,1.7h76.446a1.7,1.7,0,0,0,1.7-1.7V719.284a1.7,1.7,0,0,0-1.7-1.7Z" transform="translate(-557.217 -715.097)" fill="#ff4600"/>
          <path id="Path_2141_-_Outline" data-name="Path 2141 - Outline" d="M637.851,777.646H561.4a4.693,4.693,0,0,1-4.687-4.688V719.284A4.693,4.693,0,0,1,561.4,714.6h76.446a4.693,4.693,0,0,1,4.687,4.687v53.674A4.693,4.693,0,0,1,637.851,777.646ZM561.4,715.6a3.691,3.691,0,0,0-3.687,3.687v53.674a3.692,3.692,0,0,0,3.687,3.688h76.446a3.692,3.692,0,0,0,3.687-3.688V719.284a3.691,3.691,0,0,0-3.687-3.687Zm76.446,59.56H561.4a2.2,2.2,0,0,1-2.2-2.2V719.284a2.2,2.2,0,0,1,2.2-2.2h76.446a2.2,2.2,0,0,1,2.2,2.2v53.674A2.2,2.2,0,0,1,637.851,775.157ZM561.4,718.086a1.2,1.2,0,0,0-1.2,1.2v53.674a1.2,1.2,0,0,0,1.2,1.2h76.446a1.2,1.2,0,0,0,1.2-1.2V719.284a1.2,1.2,0,0,0-1.2-1.2Z" transform="translate(-557.217 -715.097)" fill="#ff4600"/>
        </g>
        <g id="Group_2547" data-name="Group 2547" transform="translate(0.077 26.744)">
          <path id="Path_2142" data-name="Path 2142" d="M604.435,776.527a1.169,1.169,0,0,1-.863-.381l-21.724-23.871-22.585,20.273a1.167,1.167,0,1,1-1.559-1.738l23.447-21.047a1.169,1.169,0,0,1,1.643.082l20.971,23.042,3.973-18.8a1.168,1.168,0,0,1,1.954-.6l15.514,15.015,14.733-16.7a1.167,1.167,0,1,1,1.751,1.544l-15.542,17.622a1.168,1.168,0,0,1-.829.394,1.137,1.137,0,0,1-.857-.328l-14.876-14.4L605.577,775.6a1.164,1.164,0,0,1-.836.884A1.143,1.143,0,0,1,604.435,776.527Z" transform="translate(-557.316 -749.465)" fill="#ff4600"/>
          <path id="Path_2142_-_Outline" data-name="Path 2142 - Outline" d="M604.435,777.027a1.671,1.671,0,0,1-1.233-.545l-21.39-23.5L559.6,772.921a1.667,1.667,0,0,1-2.228-2.482l23.448-21.047a1.669,1.669,0,0,1,2.347.118l20.314,22.32,3.771-17.841a1.668,1.668,0,0,1,2.791-.853l15.138,14.651,14.387-16.311a1.667,1.667,0,1,1,2.5,2.205L626.523,771.3a1.675,1.675,0,0,1-1.182.562,1.639,1.639,0,0,1-1.228-.469L609.888,757.63l-3.821,18.076a1.658,1.658,0,0,1-1.2,1.263A1.637,1.637,0,0,1,604.435,777.027Zm-22.552-25.456.334.367,21.724,23.871a.669.669,0,0,0,.493.218.644.644,0,0,0,.172-.023.663.663,0,0,0,.481-.505l4.2-19.846,15.526,15.026a.639.639,0,0,0,.485.188h.005a.67.67,0,0,0,.474-.225l15.542-17.622a.667.667,0,1,0-1-.882l-15.079,17.1-15.89-15.379a.665.665,0,0,0-.464-.188.667.667,0,0,0-.653.53l-4.175,19.751-21.628-23.764a.66.66,0,0,0-.493-.217.67.67,0,0,0-.447.171l-23.447,21.046a.667.667,0,0,0,.891.994Z" transform="translate(-557.316 -749.465)" fill="#ff4600"/>
        </g>
        <g id="Group_2548" data-name="Group 2548" transform="translate(46.564 6.8)">
          <path id="Path_2143" data-name="Path 2143" d="M624.041,737.808a6.986,6.986,0,1,1,6.986-6.986A6.994,6.994,0,0,1,624.041,737.808Zm0-11.637a4.651,4.651,0,1,0,4.652,4.651A4.657,4.657,0,0,0,624.041,726.171Z" transform="translate(-617.055 -723.836)" fill="#ff4600"/>
          <path id="Path_2143_-_Outline" data-name="Path 2143 - Outline" d="M624.041,738.308a7.486,7.486,0,1,1,7.486-7.486A7.494,7.494,0,0,1,624.041,738.308Zm0-13.972a6.486,6.486,0,1,0,6.486,6.486A6.493,6.493,0,0,0,624.041,724.336Zm0,11.637a5.151,5.151,0,1,1,5.152-5.152A5.157,5.157,0,0,1,624.041,735.974Zm0-9.3a4.151,4.151,0,1,0,4.152,4.151A4.156,4.156,0,0,0,624.041,726.671Z" transform="translate(-617.055 -723.836)" fill="#ff4600"/>
        </g>
      </g>
      <g id="Group_2553" data-name="Group 2553" transform="translate(557.953 795.426)">
        <g id="Group_2550" data-name="Group 2550" transform="translate(0 28.5)">
          <path id="Path_2144" data-name="Path 2144" d="M644.745,850.955H562.613a1.345,1.345,0,0,1,0-2.689h82.132a1.345,1.345,0,1,1,0,2.689Z" transform="translate(-561.269 -848.266)" fill="#ff4600"/>
          <path id="Path_2144_-_Outline" data-name="Path 2144 - Outline" d="M644.745,851.455H562.613a1.845,1.845,0,0,1,0-3.689h82.132a1.845,1.845,0,1,1,0,3.689Zm-82.132-2.689a.845.845,0,0,0,0,1.689h82.132a.845.845,0,1,0,0-1.689Z" transform="translate(-561.269 -848.266)" fill="#ff4600"/>
        </g>
        <g id="Group_2551" data-name="Group 2551" transform="translate(0 14.25)">
          <path id="Path_2145" data-name="Path 2145" d="M644.745,834.005H562.613a1.345,1.345,0,0,1,0-2.69h82.132a1.345,1.345,0,0,1,0,2.69Z" transform="translate(-561.269 -831.315)" fill="#ff4600"/>
          <path id="Path_2145_-_Outline" data-name="Path 2145 - Outline" d="M644.745,834.505H562.613a1.845,1.845,0,0,1,0-3.69h82.132a1.845,1.845,0,0,1,0,3.69Zm-82.132-2.69a.845.845,0,0,0,0,1.69h82.132a.845.845,0,0,0,0-1.69Z" transform="translate(-561.269 -831.315)" fill="#ff4600"/>
        </g>
        <g id="Group_2552" data-name="Group 2552">
          <path id="Path_2146" data-name="Path 2146" d="M629.484,817.053h-66.87a1.345,1.345,0,0,1,0-2.689h66.87a1.345,1.345,0,1,1,0,2.689Z" transform="translate(-561.269 -814.364)" fill="#ff4600"/>
          <path id="Path_2146_-_Outline" data-name="Path 2146 - Outline" d="M629.484,817.553h-66.87a1.845,1.845,0,0,1,0-3.689h66.87a1.845,1.845,0,1,1,0,3.689Zm-66.87-2.689a.845.845,0,0,0,0,1.689h66.87a.845.845,0,1,0,0-1.689Z" transform="translate(-561.269 -814.364)" fill="#ff4600"/>
        </g>
      </g>
    </g>
  </g>
</svg>
