<svg xmlns="http://www.w3.org/2000/svg" width="262" height="262" viewBox="0 0 262 262">
  <g id="Group_2578" data-name="Group 2578" transform="translate(-2000 -1345)">
    <g id="Group_2575" data-name="Group 2575" transform="translate(463 348)">
      <rect id="Rectangle_1472" data-name="Rectangle 1472" width="262" height="262" rx="15" transform="translate(1537 997)" fill="#f2f2f2"/>
    </g>
    <g id="Group_2576" data-name="Group 2576" transform="translate(88.2 482.7)">
      <g id="Group_2574" data-name="Group 2574" transform="translate(1964.954 915.454)">
        <path id="Ellipse_433" data-name="Ellipse 433" d="M77.846,2.683A74.8,74.8,0,0,0,35.823,15.518,75.39,75.39,0,0,0,8.588,48.59a75.061,75.061,0,0,0,6.93,71.279A75.391,75.391,0,0,0,48.59,147.1a75.061,75.061,0,0,0,71.279-6.93A75.391,75.391,0,0,0,147.1,107.1a75.061,75.061,0,0,0-6.93-71.279A75.39,75.39,0,0,0,107.1,8.588,74.69,74.69,0,0,0,77.846,2.683m0-2.683A77.846,77.846,0,1,1,0,77.846,77.846,77.846,0,0,1,77.846,0Z" transform="translate(0 0)" fill="#ff4600"/>
        <path id="Ellipse_433_-_Outline" data-name="Ellipse 433 - Outline" d="M77.846-.5A78.922,78.922,0,0,1,93.635,1.092,77.919,77.919,0,0,1,121.65,12.881,78.573,78.573,0,0,1,150.035,47.35,77.953,77.953,0,0,1,154.6,62.057a79.1,79.1,0,0,1,0,31.578,77.919,77.919,0,0,1-11.789,28.015,78.573,78.573,0,0,1-34.469,28.385A77.953,77.953,0,0,1,93.635,154.6a79.1,79.1,0,0,1-31.578,0,77.92,77.92,0,0,1-28.015-11.789A78.573,78.573,0,0,1,5.657,108.342,77.953,77.953,0,0,1,1.092,93.635a79.1,79.1,0,0,1,0-31.578A77.92,77.92,0,0,1,12.881,34.042,78.573,78.573,0,0,1,47.35,5.657,77.953,77.953,0,0,1,62.057,1.092,78.922,78.922,0,0,1,77.846-.5Zm0,155.692a76.983,76.983,0,0,0,43.244-13.209,77.573,77.573,0,0,0,28.023-34.03A77.244,77.244,0,0,0,141.983,34.6a77.573,77.573,0,0,0-34.03-28.023A77.244,77.244,0,0,0,34.6,13.709,77.573,77.573,0,0,0,6.578,47.74a77.244,77.244,0,0,0,7.131,73.351,77.573,77.573,0,0,0,34.03,28.023A76.861,76.861,0,0,0,77.846,155.192Zm0-153.009a75.3,75.3,0,0,1,42.3,12.921,75.891,75.891,0,0,1,27.416,33.292,75.561,75.561,0,0,1-6.976,71.753A75.891,75.891,0,0,1,107.3,147.564a75.561,75.561,0,0,1-71.753-6.976A75.89,75.89,0,0,1,8.128,107.3,75.561,75.561,0,0,1,15.1,35.543,75.89,75.89,0,0,1,48.395,8.128,75.188,75.188,0,0,1,77.846,2.183Zm0,150.326a74.3,74.3,0,0,0,41.743-12.749,74.891,74.891,0,0,0,27.054-32.852,74.561,74.561,0,0,0-6.883-70.8A74.89,74.89,0,0,0,106.907,9.049a74.561,74.561,0,0,0-70.8,6.883A74.89,74.89,0,0,0,9.049,48.785a74.561,74.561,0,0,0,6.883,70.8,74.891,74.891,0,0,0,32.852,27.054A74.193,74.193,0,0,0,77.846,152.509Z" transform="translate(0 0)" fill="#fe4600"/>
        <path id="Subtraction_7" data-name="Subtraction 7" d="M51.2,102.385h0A50.534,50.534,0,0,1,30.741,98.1a51.382,51.382,0,0,1-8.885-5.015A51.815,51.815,0,0,1,7.944,78.494a51.279,51.279,0,0,1-4.579-9.1A51.174,51.174,0,0,1,51.194,0,55.861,55.861,0,0,1,70.577,3.561,47.608,47.608,0,0,1,88.027,14.85a48.219,48.219,0,0,1,11.042,17.63,57.047,57.047,0,0,1,3.067,13.574A52.239,52.239,0,0,1,101.8,59a50.906,50.906,0,0,1-9.351,22.515,1.063,1.063,0,0,1-.865.439,1.049,1.049,0,0,1-.746-.311l-.042-.042a1.675,1.675,0,0,1-.165-2.17,48.7,48.7,0,1,0-9.641,10.029,1.039,1.039,0,0,1,.647-.223,1.059,1.059,0,0,1,.751.31l.414.414a1.065,1.065,0,0,1,.309.819,1.025,1.025,0,0,1-.4.756,50.927,50.927,0,0,1-29.246,10.8C52.707,102.369,51.946,102.385,51.2,102.385Z" transform="translate(26.652 26.652)" fill="#ff4600"/>
        <path id="Subtraction_7_-_Outline" data-name="Subtraction 7 - Outline" d="M51.2,102.885h0a51.031,51.031,0,0,1-20.66-4.331,51.882,51.882,0,0,1-8.972-5.063A52.315,52.315,0,0,1,7.522,78.762,51.777,51.777,0,0,1,2.9,69.575,51.674,51.674,0,0,1,51.194-.5,56.359,56.359,0,0,1,70.75,3.092,48.109,48.109,0,0,1,88.384,14.5,48.719,48.719,0,0,1,99.54,32.312,57.549,57.549,0,0,1,102.633,46a52.738,52.738,0,0,1-.343,13.068,51.406,51.406,0,0,1-9.443,22.736,1.561,1.561,0,0,1-2.367.185l-.041-.041a2.173,2.173,0,0,1-.219-2.815,48.2,48.2,0,1,0-9.542,9.926,1.533,1.533,0,0,1,.954-.329,1.556,1.556,0,0,1,1.1.456l.415.415a1.565,1.565,0,0,1,.454,1.2,1.519,1.519,0,0,1-.587,1.119,51.427,51.427,0,0,1-29.533,10.907C52.721,102.869,51.953,102.885,51.2,102.885ZM51.194.5A50.591,50.591,0,0,0,8.366,78.226,51.159,51.159,0,0,0,30.942,97.638,50.037,50.037,0,0,0,51.2,101.885h0c.737,0,1.491-.016,2.241-.048a50.427,50.427,0,0,0,28.96-10.7.525.525,0,0,0,.205-.392.565.565,0,0,0-.163-.436L82.03,89.9a.561.561,0,0,0-.4-.164.536.536,0,0,0-.338.116,49.033,49.033,0,1,1,9.738-10.131,1.176,1.176,0,0,0,.112,1.524l.042.042a.553.553,0,0,0,.393.165.561.561,0,0,0,.462-.235,50.406,50.406,0,0,0,9.26-22.3,51.737,51.737,0,0,0,.337-12.82A56.548,56.548,0,0,0,98.6,32.647,47.571,47.571,0,0,0,79.7,8.693,47.066,47.066,0,0,0,70.4,4.03,55.363,55.363,0,0,0,51.194.5Z" transform="translate(26.652 26.652)" fill="#fe4600"/>
        <path id="Path_2820" data-name="Path 2820" d="M6297.862-2595.126v2.682a1.033,1.033,0,0,0-1.028,1.028v30.039a1.034,1.034,0,0,0,1.028,1.028.988.988,0,0,0,.5-.142l26.015-15.02a.989.989,0,0,0,.511-.885.989.989,0,0,0-.511-.885l-26.015-15.02a.99.99,0,0,0-.5-.142v-2.682m0,0a3.672,3.672,0,0,1,1.847.5l26.015,15.02a3.7,3.7,0,0,1,0,6.417l-26.015,15.02a3.7,3.7,0,0,1-5.557-3.209v-30.039A3.709,3.709,0,0,1,6297.862-2595.126Z" transform="translate(-6229.848 2654.339)" fill="#ff4600"/>
        <path id="Path_2820_-_Outline" data-name="Path 2820 - Outline" d="M6297.861-2595.626v0a4.144,4.144,0,0,1,2.1.569l26.015,15.02a4.163,4.163,0,0,1,2.1,3.641,4.163,4.163,0,0,1-2.1,3.642l-26.015,15.02a4.2,4.2,0,0,1-2.1.569,4.273,4.273,0,0,1-2.927-1.183,4.154,4.154,0,0,1-1.284-3.027v-30.039a4.152,4.152,0,0,1,1.283-3.027A4.269,4.269,0,0,1,6297.861-2595.626Zm0,37.46a3.156,3.156,0,0,0,1.6-.435l26.015-15.02a3.172,3.172,0,0,0,1.6-2.775,3.172,3.172,0,0,0-1.6-2.775l-26.015-15.02a3.2,3.2,0,0,0-1.1-.4v1.732a1.627,1.627,0,0,1,.255.12l26.015,15.02a1.487,1.487,0,0,1,.761,1.318,1.487,1.487,0,0,1-.761,1.318l-26.015,15.02a1.494,1.494,0,0,1-.755.209,1.531,1.531,0,0,1-1.528-1.528v-30.039a1.511,1.511,0,0,1,1.028-1.44v-1.73a3.279,3.279,0,0,0-1.735.865,3.161,3.161,0,0,0-.975,2.3v30.039a3.163,3.163,0,0,0,.976,2.305A3.264,3.264,0,0,0,6297.863-2558.167Zm0-33.778a.54.54,0,0,0-.528.528v30.039a.54.54,0,0,0,.528.528.491.491,0,0,0,.255-.075l26.015-15.02a.485.485,0,0,0,.261-.452.485.485,0,0,0-.261-.452l-26.015-15.02A.49.49,0,0,0,6297.862-2591.944Z" transform="translate(-6229.848 2654.339)" fill="#fe4600"/>
      </g>
    </g>
  </g>
</svg>
