<svg xmlns="http://www.w3.org/2000/svg" width="262" height="262" viewBox="0 0 262 262">
  <g id="Group_2556" data-name="Group 2556" transform="translate(-921 -997)">
    <rect id="Rectangle_1470" data-name="Rectangle 1470" width="262" height="262" rx="15" transform="translate(921 997)" fill="#f2f2f2"/>
    <g id="Group_2508" data-name="Group 2508" transform="translate(-463.319 559.505)">
      <g id="Group_2490" data-name="Group 2490" transform="translate(1439.95 498.586)">
        <path id="Path_2085" data-name="Path 2085" d="M1587.316,524.38h-141.3a6.076,6.076,0,0,1-6.069-6.069V504.655a6.076,6.076,0,0,1,6.069-6.069h141.3a6.076,6.076,0,0,1,6.069,6.069V518.31A6.076,6.076,0,0,1,1587.316,524.38Zm-141.3-23.748a4.028,4.028,0,0,0-4.024,4.024V518.31a4.028,4.028,0,0,0,4.024,4.024h141.3a4.029,4.029,0,0,0,4.024-4.024V504.655a4.029,4.029,0,0,0-4.024-4.024Z" transform="translate(-1439.95 -498.586)" fill="#ff4600"/>
        <path id="Path_2085_-_Outline" data-name="Path 2085 - Outline" d="M1587.316,524.88h-141.3a6.576,6.576,0,0,1-6.569-6.569V504.655a6.576,6.576,0,0,1,6.569-6.569h141.3a6.577,6.577,0,0,1,6.569,6.569V518.31A6.577,6.577,0,0,1,1587.316,524.88Zm-141.3-25.794a5.575,5.575,0,0,0-5.569,5.569V518.31a5.575,5.575,0,0,0,5.569,5.569h141.3a5.575,5.575,0,0,0,5.569-5.569V504.655a5.575,5.575,0,0,0-5.569-5.569Zm141.3,23.748h-141.3a4.529,4.529,0,0,1-4.524-4.524V504.655a4.529,4.529,0,0,1,4.524-4.524h141.3a4.529,4.529,0,0,1,4.524,4.524V518.31A4.529,4.529,0,0,1,1587.316,522.834Zm-141.3-21.7a3.528,3.528,0,0,0-3.524,3.524V518.31a3.528,3.528,0,0,0,3.524,3.524h141.3a3.528,3.528,0,0,0,3.524-3.524V504.655a3.528,3.528,0,0,0-3.524-3.524Z" transform="translate(-1439.95 -498.586)" fill="#ff4600"/>
      </g>
      <g id="Group_2491" data-name="Group 2491" transform="translate(1566.753 610.434)">
        <path id="Path_2086" data-name="Path 2086" d="M1655.829,698.628a1.022,1.022,0,0,1-.723-.3l-10.3-10.294-4.219,8.292a1,1,0,0,1-.96.558,1.021,1.021,0,0,1-.9-.646l-12.695-32.184a1.023,1.023,0,0,1,1.327-1.327l32.18,12.692a1.022,1.022,0,0,1,.089,1.862l-8.371,4.261,10.338,10.318a1.023,1.023,0,0,1,0,1.448l-5.042,5.019A1.018,1.018,0,0,1,1655.829,698.628Zm-11.3-13.334a1.019,1.019,0,0,1,.723.3l10.574,10.566,3.591-3.576L1648.813,682a1.022,1.022,0,0,1,.258-1.635l7.6-3.871-27.878-11,11,27.882,3.828-7.524a1.021,1.021,0,0,1,.751-.546A.973.973,0,0,1,1644.533,685.294Z" transform="translate(-1625.959 -662.657)" fill="#ff4600"/>
        <path id="Path_2086_-_Outline" data-name="Path 2086 - Outline" d="M1655.829,699.128a1.515,1.515,0,0,1-1.076-.445l-9.813-9.808-3.907,7.679a1.5,1.5,0,0,1-1.365.832h-.063a1.523,1.523,0,0,1-1.344-.961l-12.695-32.184a1.523,1.523,0,0,1,.34-1.636,1.521,1.521,0,0,1,1.635-.339l32.179,12.692a1.523,1.523,0,0,1,.131,2.773l-7.756,3.948,9.85,9.831a1.523,1.523,0,0,1,0,2.156l-5.042,5.019A1.512,1.512,0,0,1,1655.829,699.128Zm-11.156-11.933,10.786,10.78a.522.522,0,0,0,.738,0l5.042-5.02a.518.518,0,0,0,.153-.37.526.526,0,0,0-.153-.37l-10.826-10.805,8.985-4.573a.522.522,0,0,0-.045-.952l-32.18-12.692a.523.523,0,0,0-.678.679l12.695,32.183a.522.522,0,0,0,.457.329.5.5,0,0,0,.494-.284Zm11.157,9.672L1644.9,685.947a.517.517,0,0,0-.37-.154.472.472,0,0,0-.078.006.523.523,0,0,0-.387.279l-4.332,8.514-11.826-29.985,29.981,11.825-8.593,4.374a.522.522,0,0,0-.132.835l10.965,10.944Zm-11.3-12.073a1.509,1.509,0,0,1,1.078.447l10.22,10.213,2.882-2.87-10.254-10.235a1.522,1.522,0,0,1,.385-2.434l6.615-3.367-25.774-10.166,10.167,25.778,3.325-6.535a1.524,1.524,0,0,1,1.118-.813A1.46,1.46,0,0,1,1644.533,684.794Z" transform="translate(-1625.959 -662.657)" fill="#ff4600"/>
      </g>
      <g id="Group_2495" data-name="Group 2495" transform="translate(1569.915 506.488)">
        <g id="Group_2492" data-name="Group 2492" transform="translate(0)">
          <path id="Path_2087" data-name="Path 2087" d="M1642.419,511.881H1631.45a.852.852,0,0,1,0-1.7h10.969a.852.852,0,0,1,0,1.7Z" transform="translate(-1630.598 -510.177)" fill="#ff4600"/>
          <path id="Path_2087_-_Outline" data-name="Path 2087 - Outline" d="M1642.419,512.381H1631.45a1.352,1.352,0,0,1,0-2.7h10.969a1.352,1.352,0,0,1,0,2.7Zm-10.969-1.7a.352.352,0,0,0,0,.7h10.969a.352.352,0,0,0,0-.7Z" transform="translate(-1630.598 -510.177)" fill="#ff4600"/>
        </g>
        <g id="Group_2493" data-name="Group 2493" transform="translate(0 4.143)">
          <path id="Path_2088" data-name="Path 2088" d="M1642.419,517.958H1631.45a.852.852,0,0,1,0-1.7h10.969a.852.852,0,0,1,0,1.7Z" transform="translate(-1630.598 -516.254)" fill="#ff4600"/>
          <path id="Path_2088_-_Outline" data-name="Path 2088 - Outline" d="M1642.419,518.458H1631.45a1.352,1.352,0,0,1,0-2.7h10.969a1.352,1.352,0,0,1,0,2.7Zm-10.969-1.7a.352.352,0,0,0,0,.7h10.969a.352.352,0,0,0,0-.7Z" transform="translate(-1630.598 -516.254)" fill="#ff4600"/>
        </g>
        <g id="Group_2494" data-name="Group 2494" transform="translate(0 8.285)">
          <path id="Path_2089" data-name="Path 2089" d="M1642.419,524.035H1631.45a.852.852,0,0,1,0-1.7h10.969a.852.852,0,0,1,0,1.7Z" transform="translate(-1630.598 -522.331)" fill="#ff4600"/>
          <path id="Path_2089_-_Outline" data-name="Path 2089 - Outline" d="M1642.419,524.535H1631.45a1.352,1.352,0,0,1,0-2.7h10.969a1.352,1.352,0,0,1,0,2.7Zm-10.969-1.7a.352.352,0,0,0,0,.7h10.969a.352.352,0,0,0,0-.7Z" transform="translate(-1630.598 -522.331)" fill="#ff4600"/>
        </g>
      </g>
      <g id="Group_2496" data-name="Group 2496" transform="translate(1440.079 529.565)">
        <path id="Path_2090" data-name="Path 2090" d="M1567.836,649.87H1448.064c-6.268,0-7.925-6.168-7.925-9.429V545.052a1.023,1.023,0,0,1,2.045,0v95.389c0,.3.093,7.384,5.88,7.384h119.772a1.023,1.023,0,0,1,0,2.045Z" transform="translate(-1440.139 -544.029)" fill="#ff4600"/>
        <path id="Path_2090_-_Outline" data-name="Path 2090 - Outline" d="M1567.836,650.37H1448.064a7.545,7.545,0,0,1-6.739-3.73,12.5,12.5,0,0,1-1.686-6.2V545.052a1.523,1.523,0,0,1,3.045,0v95.389a10.727,10.727,0,0,0,.733,3.614,4.744,4.744,0,0,0,4.647,3.271h119.772a1.523,1.523,0,0,1,0,3.045ZM1441.161,544.529a.523.523,0,0,0-.522.523v95.389a11.456,11.456,0,0,0,1.538,5.676,6.509,6.509,0,0,0,5.887,3.253h119.772a.523.523,0,0,0,0-1.045H1448.064a5.736,5.736,0,0,1-5.572-3.889,11.615,11.615,0,0,1-.808-3.993V545.052A.523.523,0,0,0,1441.161,544.529Z" transform="translate(-1440.139 -544.029)" fill="#ff4600"/>
      </g>
      <g id="Group_2497" data-name="Group 2497" transform="translate(1591.469 529.565)">
        <path id="Path_2091" data-name="Path 2091" d="M1663.238,626.943a1.023,1.023,0,0,1-1.022-1.023V545.052a1.023,1.023,0,1,1,2.045,0v80.869A1.023,1.023,0,0,1,1663.238,626.943Z" transform="translate(-1662.216 -544.029)" fill="#ff4600"/>
        <path id="Path_2091_-_Outline" data-name="Path 2091 - Outline" d="M1663.238,627.443a1.524,1.524,0,0,1-1.522-1.523V545.052a1.523,1.523,0,1,1,3.045,0v80.869A1.524,1.524,0,0,1,1663.238,627.443Zm0-82.914a.523.523,0,0,0-.522.523v80.869a.523.523,0,1,0,1.045,0V545.052A.523.523,0,0,0,1663.238,544.529Z" transform="translate(-1662.216 -544.029)" fill="#ff4600"/>
      </g>
      <g id="Group_2498" data-name="Group 2498" transform="translate(1470.728 534.859)">
        <path id="Path_2092" data-name="Path 2092" d="M1571.9,595.6H1488.7a3.6,3.6,0,0,1-3.6-3.6V555.4a3.6,3.6,0,0,1,3.6-3.6H1571.9a3.6,3.6,0,0,1,3.6,3.6V592A3.6,3.6,0,0,1,1571.9,595.6ZM1488.7,553.84a1.557,1.557,0,0,0-1.555,1.555V592a1.558,1.558,0,0,0,1.555,1.556H1571.9a1.557,1.557,0,0,0,1.555-1.556V555.4a1.556,1.556,0,0,0-1.555-1.555Z" transform="translate(-1485.098 -551.795)" fill="#ff4600"/>
        <path id="Path_2092_-_Outline" data-name="Path 2092 - Outline" d="M1571.9,596.1H1488.7a4.105,4.105,0,0,1-4.1-4.1V555.4a4.1,4.1,0,0,1,4.1-4.1H1571.9a4.1,4.1,0,0,1,4.1,4.1V592A4.105,4.105,0,0,1,1571.9,596.1Zm-83.206-43.8a3.1,3.1,0,0,0-3.1,3.1V592a3.1,3.1,0,0,0,3.1,3.1H1571.9a3.1,3.1,0,0,0,3.1-3.1V555.4a3.1,3.1,0,0,0-3.1-3.1Zm83.206,41.759H1488.7a2.058,2.058,0,0,1-2.055-2.056V555.4a2.057,2.057,0,0,1,2.055-2.055H1571.9a2.057,2.057,0,0,1,2.055,2.055V592A2.058,2.058,0,0,1,1571.9,594.054ZM1488.7,554.34a1.056,1.056,0,0,0-1.055,1.055V592a1.057,1.057,0,0,0,1.055,1.056H1571.9a1.057,1.057,0,0,0,1.055-1.056V555.4a1.056,1.056,0,0,0-1.055-1.055Z" transform="translate(-1485.098 -551.795)" fill="#ff4600"/>
      </g>
      <g id="Group_2499" data-name="Group 2499" transform="translate(1470.728 588.463)">
        <path id="Path_2093" data-name="Path 2093" d="M1523.554,647.261h-37.078a1.379,1.379,0,0,1-1.378-1.378V631.806a1.379,1.379,0,0,1,1.378-1.378h37.078a1.38,1.38,0,0,1,1.378,1.378v14.077A1.38,1.38,0,0,1,1523.554,647.261Zm-36.411-2.045h35.743V632.473h-35.743Z" transform="translate(-1485.098 -630.428)" fill="#ff4600"/>
        <path id="Path_2093_-_Outline" data-name="Path 2093 - Outline" d="M1523.554,647.761h-37.078a1.88,1.88,0,0,1-1.878-1.878V631.806a1.88,1.88,0,0,1,1.878-1.878h37.078a1.88,1.88,0,0,1,1.878,1.878v14.077A1.88,1.88,0,0,1,1523.554,647.761Zm-37.078-16.833a.879.879,0,0,0-.878.878v14.077a.879.879,0,0,0,.878.878h37.078a.879.879,0,0,0,.878-.878V631.806a.879.879,0,0,0-.878-.878Zm36.911,14.788h-36.743V631.973h36.743Zm-35.743-1h34.743V632.973h-34.743Z" transform="translate(-1485.098 -630.428)" fill="#ff4600"/>
      </g>
      <g id="Group_2500" data-name="Group 2500" transform="translate(1470.728 610.434)">
        <path id="Path_2094" data-name="Path 2094" d="M1523.4,664.7H1486.12a1.023,1.023,0,0,1,0-2.045H1523.4a1.023,1.023,0,1,1,0,2.045Z" transform="translate(-1485.098 -662.657)" fill="#ff4600"/>
        <path id="Path_2094_-_Outline" data-name="Path 2094 - Outline" d="M1523.4,665.2H1486.12a1.523,1.523,0,0,1,0-3.045H1523.4a1.523,1.523,0,1,1,0,3.045Zm-37.278-2.045a.523.523,0,0,0,0,1.045H1523.4a.523.523,0,1,0,0-1.045Z" transform="translate(-1485.098 -662.657)" fill="#ff4600"/>
      </g>
      <g id="Group_2501" data-name="Group 2501" transform="translate(1470.728 616.694)">
        <path id="Path_2095" data-name="Path 2095" d="M1520.416,673.885h-34.3a1.023,1.023,0,0,1,0-2.045h34.3a1.023,1.023,0,0,1,0,2.045Z" transform="translate(-1485.098 -671.84)" fill="#ff4600"/>
        <path id="Path_2095_-_Outline" data-name="Path 2095 - Outline" d="M1520.416,674.385h-34.3a1.523,1.523,0,0,1,0-3.045h34.3a1.523,1.523,0,0,1,0,3.045Zm-34.3-2.045a.523.523,0,0,0,0,1.045h34.3a.523.523,0,0,0,0-1.045Z" transform="translate(-1485.098 -671.84)" fill="#ff4600"/>
      </g>
      <g id="Group_2502" data-name="Group 2502" transform="translate(1520.32 589.142)">
        <path id="Path_2096" data-name="Path 2096" d="M1597.637,633.469h-38.768a1.023,1.023,0,1,1,0-2.045h38.768a1.023,1.023,0,0,1,0,2.045Z" transform="translate(-1557.846 -631.424)" fill="#ff4600"/>
        <path id="Path_2096_-_Outline" data-name="Path 2096 - Outline" d="M1597.637,633.969h-38.768a1.523,1.523,0,1,1,0-3.045h38.768a1.523,1.523,0,0,1,0,3.045Zm-38.768-2.045a.523.523,0,1,0,0,1.045h38.768a.523.523,0,0,0,0-1.045Z" transform="translate(-1557.846 -631.424)" fill="#ff4600"/>
      </g>
      <g id="Group_2503" data-name="Group 2503" transform="translate(1520.32 595.402)">
        <path id="Path_2097" data-name="Path 2097" d="M1597.637,642.651h-38.768a1.023,1.023,0,1,1,0-2.045h38.768a1.023,1.023,0,0,1,0,2.045Z" transform="translate(-1557.846 -640.606)" fill="#ff4600"/>
        <path id="Path_2097_-_Outline" data-name="Path 2097 - Outline" d="M1597.637,643.151h-38.768a1.523,1.523,0,1,1,0-3.045h38.768a1.523,1.523,0,0,1,0,3.045Zm-38.768-2.045a.523.523,0,1,0,0,1.045h38.768a.523.523,0,0,0,0-1.045Z" transform="translate(-1557.846 -640.606)" fill="#ff4600"/>
      </g>
      <g id="Group_2504" data-name="Group 2504" transform="translate(1520.32 601.661)">
        <path id="Path_2098" data-name="Path 2098" d="M1590.433,651.833h-31.565a1.023,1.023,0,1,1,0-2.045h31.565a1.023,1.023,0,0,1,0,2.045Z" transform="translate(-1557.846 -649.788)" fill="#ff4600"/>
        <path id="Path_2098_-_Outline" data-name="Path 2098 - Outline" d="M1590.433,652.333h-31.565a1.523,1.523,0,1,1,0-3.045h31.565a1.523,1.523,0,0,1,0,3.045Zm-31.565-2.045a.523.523,0,1,0,0,1.045h31.565a.523.523,0,0,0,0-1.045Z" transform="translate(-1557.846 -649.788)" fill="#ff4600"/>
      </g>
      <g id="Group_2505" data-name="Group 2505" transform="translate(1520.981 610.604)">
        <path id="Path_2099" data-name="Path 2099" d="M1586.817,670.871h-26.794a1.208,1.208,0,0,1-1.207-1.207v-5.55a1.208,1.208,0,0,1,1.207-1.207h26.794a1.208,1.208,0,0,1,1.207,1.207v5.55A1.208,1.208,0,0,1,1586.817,670.871Zm-26.3-1.7h25.8v-4.556h-25.8Z" transform="translate(-1558.816 -662.907)" fill="#ff4600"/>
        <path id="Path_2099_-_Outline" data-name="Path 2099 - Outline" d="M1586.817,671.371h-26.794a1.709,1.709,0,0,1-1.707-1.707v-5.55a1.709,1.709,0,0,1,1.707-1.707h26.794a1.709,1.709,0,0,1,1.707,1.707v5.55A1.709,1.709,0,0,1,1586.817,671.371Zm-26.794-7.964a.708.708,0,0,0-.707.707v5.55a.708.708,0,0,0,.707.707h26.794a.708.708,0,0,0,.707-.707v-5.55a.708.708,0,0,0-.707-.707Zm26.8,6.26h-26.8v-5.556h26.8Zm-25.8-1h24.8v-3.556h-24.8Z" transform="translate(-1558.816 -662.907)" fill="#ff4600"/>
      </g>
      <g id="Group_2506" data-name="Group 2506" transform="translate(1505.921 546.752)">
        <path id="Path_2100" data-name="Path 2100" d="M1546.734,589.259a10.009,10.009,0,1,1,10.009-10.01A10.021,10.021,0,0,1,1546.734,589.259Zm0-18.314a8.3,8.3,0,1,0,8.3,8.3A8.315,8.315,0,0,0,1546.734,570.945Z" transform="translate(-1536.724 -569.241)" fill="#ff4600"/>
        <path id="Path_2100_-_Outline" data-name="Path 2100 - Outline" d="M1546.734,589.759a10.509,10.509,0,1,1,10.509-10.51A10.522,10.522,0,0,1,1546.734,589.759Zm0-20.018a9.509,9.509,0,1,0,9.509,9.509A9.52,9.52,0,0,0,1546.734,569.741Zm0,18.314a8.8,8.8,0,1,1,8.8-8.805A8.815,8.815,0,0,1,1546.734,588.055Zm0-16.61a7.8,7.8,0,1,0,7.8,7.8A7.814,7.814,0,0,0,1546.734,571.445Z" transform="translate(-1536.724 -569.241)" fill="#ff4600"/>
      </g>
      <g id="Group_2507" data-name="Group 2507" transform="translate(1513.37 552.947)">
        <path id="Path_2101" data-name="Path 2101" d="M1548.4,585.955a.749.749,0,0,1-.749-.75V579.08a.749.749,0,0,1,1.119-.652l5.392,3.064a.75.75,0,0,1,0,1.3l-5.392,3.063A.743.743,0,0,1,1548.4,585.955Zm.75-5.587v3.549l3.124-1.774Z" transform="translate(-1547.651 -578.329)" fill="#ff4600"/>
        <path id="Path_2101_-_Outline" data-name="Path 2101 - Outline" d="M1548.4,586.455a1.249,1.249,0,0,1-1.249-1.25V579.08a1.249,1.249,0,0,1,1.868-1.086l5.39,3.063a1.25,1.25,0,0,1,0,2.173l-5.392,3.063A1.246,1.246,0,0,1,1548.4,586.455Zm0-7.626a.249.249,0,0,0-.25.25v6.126a.249.249,0,0,0,.371.218l5.393-3.064a.25.25,0,0,0,0-.434l-5.392-3.064A.246.246,0,0,0,1548.4,578.829Zm.249,5.947v-5.267l4.636,2.633Zm1-3.549v1.831l1.611-.915Z" transform="translate(-1547.651 -578.329)" fill="#ff4600"/>
      </g>
    </g>
  </g>
</svg>
