<svg xmlns="http://www.w3.org/2000/svg" width="262" height="262" viewBox="0 0 262 262">
  <g id="Group_2555" data-name="Group 2555" transform="translate(-619 -997)">
    <rect id="Rectangle_28" data-name="Rectangle 28" width="262" height="262" rx="15" transform="translate(619 997)" fill="#f2f2f2"/>
    <g id="Group_2527" data-name="Group 2527" transform="translate(134.461 835.384)">
      <path id="Path_2118" data-name="Path 2118" d="M656.444,335.3a2.467,2.467,0,0,0,1.612.934h.006a1.418,1.418,0,0,0,1.009-.549c1.141-1.249.062-2.717-.455-3.29-1.466-1.627-2.889-3.23-4.171-4.947a19.5,19.5,0,0,1-3.918-15c.746-4.975,1.456-10.321,2.172-16.343.551-4.637.982-9.564-.324-14.335-4.982-18.206-20.109-29.476-39.519-29.476l-.338,0h-.007c-8.342.028-16.865,4.291-23.385,11.7a73.226,73.226,0,0,0-8.136,11.4c-3.217,5.5-7.174,11.71-13.443,15.8a1.986,1.986,0,0,0-.372,2.455,1.485,1.485,0,0,0,1.982.771,8.875,8.875,0,0,0,1.39-.868,41.448,41.448,0,0,0,11.583-13.3c1.755-3.017,3.82-6.509,6.116-9.761,6.564-9.3,16.175-14.425,27.07-14.425h.12a34.419,34.419,0,0,1,27.8,14.469c5.721,8.23,7.722,16.026,6.3,24.533-.379,2.263-.675,4.6-.96,6.865-.3,2.376-.611,4.833-1.022,7.248-1.469,8.623.19,15.728,5.073,21.723C653.964,332.545,655.214,333.984,656.444,335.3Z" transform="translate(-0.002 -0.359)" fill="#ff4600"/>
      <path id="Path_2119" data-name="Path 2119" d="M584.232,354.068a3.793,3.793,0,0,0,2.021-.813,219.259,219.259,0,0,0,23.2-20.954,107.819,107.819,0,0,0,14.891-18.792c2.659-4.445,5.392-9.878,5.511-16.489a22.163,22.163,0,0,0-2.931-10.325c-3.772-6.551-10.948-8.985-17.453-5.917a17.752,17.752,0,0,0-8.895,9.84,62.363,62.363,0,0,1-19.589,26.258q-4.281,3.325-8.538,6.69l-4.155,3.264c-.155.118-.31.237-.459.362a2.184,2.184,0,0,0-.665,2.97,1.569,1.569,0,0,0,.987.736,1.913,1.913,0,0,0,1.415-.467c1.49-1.13,2.964-2.284,4.437-3.438,1.844-1.445,3.751-2.94,5.669-4.365,11.434-8.5,19.34-18.627,24.172-30.968a14.484,14.484,0,0,1,3.044-4.549,11.534,11.534,0,0,1,8.2-3.835h.12a9.592,9.592,0,0,1,6.854,2.885,15.162,15.162,0,0,1,4.273,13.4c-.933,6.244-4.2,11.328-7.194,15.6-7.448,10.643-16.455,19.19-24.283,26.148-2.651,2.356-5.417,4.629-8.09,6.828q-1.458,1.2-2.912,2.4a2.066,2.066,0,0,0-.744,2.345C583.227,353.338,583.53,354.067,584.232,354.068Z" transform="translate(0 -0.724)" fill="#ff4600"/>
      <path id="Path_2120" data-name="Path 2120" d="M650.354,346.369a1.428,1.428,0,0,0,1.907-.5,1.672,1.672,0,0,0,.19-2.1,3.709,3.709,0,0,0-1.589-1.2,16.8,16.8,0,0,1-9.5-8.418,31.726,31.726,0,0,1-3.276-17.507c.37-3.286.938-6.574,1.489-9.752q.216-1.255.43-2.508c.936-5.543,1.809-11.986.319-18.324a27.564,27.564,0,0,0-16.983-18.948c-7.7-2.848-15.819-1.585-22.855,3.559-5.1,3.731-9.051,9.087-12.8,17.369a43.168,43.168,0,0,1-5.427,8.841c-4.322,5.493-9.717,9.616-14.423,12.925a2.031,2.031,0,0,0-.7,2.876,1.574,1.574,0,0,0,.939.758,1.835,1.835,0,0,0,1.391-.331c.841-.533,1.724-1.16,2.862-2.035,7.238-5.567,15.214-12.732,19.5-23.66a30.392,30.392,0,0,1,10.884-13.842c6.213-4.354,13.316-5.313,20-2.7,7.144,2.793,12.971,9.4,14.5,16.438,1.172,5.391.483,10.681-.392,16.077-.641,3.96-1.267,7.923-1.777,11.16l-.5,3.184c-.612,8.452,1.236,12.487,3.581,17.567C641.071,340.826,645.188,344.55,650.354,346.369Z" transform="translate(0 -0.538)" fill="#ff4600"/>
      <path id="Path_2121" data-name="Path 2121" d="M569.511,273.991a.794.794,0,0,0,.677.186,2.6,2.6,0,0,0,1.451-1.342c3.873-6.658,8.286-13.589,14.313-19.168,13.518-12.513,35.13-14.7,51.387-5.2a59.307,59.307,0,0,1,18.942,17.724c.971,1.406,1.5,1.319,1.882,1.255a1.52,1.52,0,0,0,1.243-.917,2.977,2.977,0,0,0-.528-2.738c-5.582-8.049-12.109-14.21-19.4-18.311-16.93-9.522-33.805-9.2-50.158.951-9.188,5.7-15.042,15.02-20.717,24.871a3.645,3.645,0,0,0-.2.707c-.03.131-.059.26-.092.391.03.045.059.092.088.138A5.943,5.943,0,0,0,569.511,273.991Z" transform="translate(-0.02 -0.175)" fill="#ff4600"/>
      <path id="Path_2122" data-name="Path 2122" d="M576.158,247.014a38.065,38.065,0,0,1,10.888-9.775c19.345-11.239,39.223-10.766,59.078,1.412a39.612,39.612,0,0,1,4.259,3.163c.709.577,1.418,1.155,2.145,1.7a1.66,1.66,0,0,0,1.244.367,1.5,1.5,0,0,0,.989-.639,2.08,2.08,0,0,0-.322-2.813c-.317-.311-.679-.608-1.063-.922l-.357-.294a58.262,58.262,0,0,0-38.013-13.7h-.056a54.809,54.809,0,0,0-18.152,2.88,48.38,48.38,0,0,0-23.084,16.091c-.89,1.135-.91,2.358-.048,3.117a1.4,1.4,0,0,0,1.052.424A2.3,2.3,0,0,0,576.158,247.014Z" transform="translate(-0.084 0)" fill="#ff4600"/>
      <path id="Path_2123" data-name="Path 2123" d="M576.277,339.715c-.3.235-.6.464-.9.692a19.7,19.7,0,0,0-1.721,1.4,1.844,1.844,0,0,0-.459,2.2c.187.522.429.946,1.537,1.165l.046-.018a4.086,4.086,0,0,0,.973-.454c13.7-10.519,23.913-20.622,32.13-31.793A66.023,66.023,0,0,0,616.563,298c.411-1.039.466-2.444-.736-2.983a1.2,1.2,0,0,0-.515-.126c-.439,0-1.077.28-1.8,1.59q-.749,1.355-1.489,2.723a107.957,107.957,0,0,1-6.537,10.958C598.341,320.23,589.333,329.345,576.277,339.715Z" transform="translate(-0.083 -0.931)" fill="#ff4600"/>
      <path id="Path_2124" data-name="Path 2124" d="M663.183,319.888a113.914,113.914,0,0,0,2.334-22.142c-.019-.357-.037-.8-.058-1.292-.057-1.372-.136-3.253-.311-5.086a47.127,47.127,0,0,0-2.955-13.47,2.255,2.255,0,0,0-1.126-1.311,1.106,1.106,0,0,0-.405-.075,1.524,1.524,0,0,0-.652.161c-1.143.54-1.036,1.96-.744,3.057l.18.678a78.207,78.207,0,0,1,2.282,10.494c1.022,8.28.488,16.935-1.731,28.065-.108.542-.337,2.335,1.242,2.7a1.255,1.255,0,0,0,.99-.165A2.475,2.475,0,0,0,663.183,319.888Z" transform="translate(-1.238 -0.684)" fill="#ff4600"/>
      <path id="Path_2125" data-name="Path 2125" d="M621.4,361.247a1.852,1.852,0,0,0,1.071-2.28,23.1,23.1,0,0,0-4.262-9.284,9.882,9.882,0,0,0-8.277-3.518,8.61,8.61,0,0,0-3.128,1.029l-.173.083c-3.59,1.962-6.4,5.145-8.668,8-.911,1.147-.93,2.309-.049,3.107.953.865,2.036-.036,2.6-.65l.336-.37a53.608,53.608,0,0,1,5.451-5.436,7.894,7.894,0,0,1,4.925-2.138,5.213,5.213,0,0,1,1.063.11c1.953.41,3.563,1.91,4.921,4.588a30.434,30.434,0,0,1,1.538,3.851c.2.562.391,1.125.6,1.679A1.641,1.641,0,0,0,621.4,361.247Z" transform="translate(-0.409 -1.618)" fill="#ff4600"/>
      <path id="Path_2126" data-name="Path 2126" d="M625.327,325.923c-.127.382-.26.767-.391,1.151a24.176,24.176,0,0,0-1.487,5.8c-.7,9.091,3,16.309,12,23.4a.839.839,0,0,0,.691.165,1.753,1.753,0,0,0,1.125-.778,2.013,2.013,0,0,0-.245-2.625c-.432-.426-.9-.83-1.4-1.257-.624-.537-1.271-1.093-1.883-1.733-4.5-4.7-9.961-12.167-5.487-22.606a1.724,1.724,0,0,0-1.531-2.4H626.7A1.242,1.242,0,0,0,625.327,325.923Z" transform="translate(-0.759 -1.335)" fill="#ff4600"/>
    </g>
  </g>
</svg>
