<svg xmlns="http://www.w3.org/2000/svg" width="262" height="262" viewBox="0 0 262 262">
  <g id="Group_2557" data-name="Group 2557" transform="translate(-1226 -997)">
    <rect id="Rectangle_1471" data-name="Rectangle 1471" width="262" height="262" rx="15" transform="translate(1226 997)" fill="#f2f2f2"/>
    <g id="Group_2544" data-name="Group 2544" transform="translate(745.82 597.021)">
      <g id="Group_2530" data-name="Group 2530" transform="translate(538.634 466.956)">
        <g id="Group_2528" data-name="Group 2528" transform="translate(71.23 0)">
          <path id="Path_2127" data-name="Path 2127" d="M622.7,593.2a1.316,1.316,0,0,1-1.315-1.315V482.935a1.313,1.313,0,0,1,.743-1.184c10.034-4.844,25.161-8.806,44.958-11.776,14.7-2.206,26.639-3.007,26.758-3.015a1.3,1.3,0,0,1,.985.352,1.314,1.314,0,0,1,.415.96V582.621a1.315,1.315,0,0,1-1.216,1.311c-41.752,3.105-70.767,9.179-71.057,9.24A1.3,1.3,0,0,1,622.7,593.2Zm1.315-109.434V590.28a618.632,618.632,0,0,1,68.6-8.879V469.688C684.7,470.311,645.313,473.842,624.01,483.766Z" transform="translate(-621.381 -466.956)" fill="#ff4600"/>
          <path id="Path_2127_-_Outline" data-name="Path 2127 - Outline" d="M622.7,593.6a1.716,1.716,0,0,1-1.715-1.715V482.935a1.723,1.723,0,0,1,.97-1.544c10.069-4.861,25.234-8.835,45.072-11.811,14.772-2.217,26.673-3.011,26.791-3.019.038,0,.08,0,.121,0a1.7,1.7,0,0,1,1.163.464,1.722,1.722,0,0,1,.542,1.252V582.621a1.723,1.723,0,0,1-1.586,1.71c-41.856,3.113-70.717,9.172-71,9.233A1.706,1.706,0,0,1,622.7,593.6Zm71.239-126.244-.065,0c-.122.008-11.989.8-26.729,3.012-19.759,2.964-34.846,6.914-44.843,11.741a.919.919,0,0,0-.517.824V591.885a.916.916,0,0,0,1.1.9c.287-.061,29.2-6.131,71.11-9.248a.919.919,0,0,0,.846-.912V468.272a.919.919,0,0,0-.289-.668A.9.9,0,0,0,693.935,467.356ZM623.61,590.766V483.512l.231-.108c21.39-9.965,61.013-13.506,68.738-14.115l.431-.034V581.771l-.37.028a616.634,616.634,0,0,0-68.554,8.873Zm.8-106.744V589.794a620.267,620.267,0,0,1,67.8-8.764V470.121C683.6,470.816,645.356,474.368,624.411,484.022Z" transform="translate(-621.381 -466.956)" fill="#ff4600"/>
        </g>
        <g id="Group_2529" data-name="Group 2529">
          <path id="Path_2128" data-name="Path 2128" d="M612.66,593.2a1.306,1.306,0,0,1-.273-.028c-.288-.061-29.318-6.136-71.055-9.24a1.316,1.316,0,0,1-1.217-1.311V468.272a1.315,1.315,0,0,1,.416-.96,1.288,1.288,0,0,1,.985-.352c.119.008,12.055.809,26.757,3.015,19.8,2.97,34.924,6.931,44.958,11.776a1.314,1.314,0,0,1,.743,1.184V591.885a1.316,1.316,0,0,1-1.315,1.315Zm-69.915-11.8a618.619,618.619,0,0,1,68.6,8.879V483.766c-21.3-9.925-60.688-13.455-68.6-14.078Z" transform="translate(-540.115 -466.955)" fill="#ff4600"/>
          <path id="Path_2128_-_Outline" data-name="Path 2128 - Outline" d="M612.66,593.6a1.7,1.7,0,0,1-.356-.037c-.07-.015-7.361-1.547-19.962-3.475-11.379-1.741-29.47-4.153-51.04-5.758a1.723,1.723,0,0,1-1.588-1.71V468.272a1.722,1.722,0,0,1,.543-1.252,1.694,1.694,0,0,1,1.29-.459c.114.008,12.1.814,26.785,3.018,19.838,2.976,35,6.949,45.072,11.811a1.723,1.723,0,0,1,.969,1.544V591.885a1.716,1.716,0,0,1-1.715,1.715ZM541.417,467.355a.9.9,0,0,0-.612.249.918.918,0,0,0-.289.667V582.62a.92.92,0,0,0,.847.912c21.595,1.606,39.708,4.021,51.1,5.765,12.624,1.932,19.937,3.468,20.007,3.483a.916.916,0,0,0,1.1-.9V482.935a.919.919,0,0,0-.517-.824c-10-4.827-25.086-8.777-44.844-11.741-14.657-2.2-26.605-3-26.724-3.012C541.462,467.356,541.439,467.355,541.417,467.355Zm70.329,123.41-.477-.094a616.7,616.7,0,0,0-68.554-8.873l-.37-.028V469.255l.431.034c7.725.608,47.347,4.148,68.738,14.115l.231.108Zm-68.6-9.736a620.325,620.325,0,0,1,67.8,8.764V484.022c-20.947-9.654-59.19-13.206-67.8-13.9Z" transform="translate(-540.115 -466.955)" fill="#ff4600"/>
        </g>
      </g>
      <g id="Group_2536" data-name="Group 2536" transform="translate(557.227 499.521)">
        <g id="Group_2531" data-name="Group 2531" transform="translate(0 0)">
          <path id="Path_2129" data-name="Path 2129" d="M600.21,512.763a1.3,1.3,0,0,1-.209-.017l-37.565-6.022a1.315,1.315,0,0,1,.415-2.6l37.566,6.022a1.315,1.315,0,0,1-.207,2.613Z" transform="translate(-561.328 -504.11)" fill="#ff4600"/>
          <path id="Path_2129_-_Outline" data-name="Path 2129 - Outline" d="M600.21,513.163a1.7,1.7,0,0,1-.274-.022l-37.565-6.022a1.714,1.714,0,0,1-1.422-1.964,1.724,1.724,0,0,1,1.687-1.445,1.7,1.7,0,0,1,.28.023l37.563,6.022a1.715,1.715,0,0,1-.27,3.408Zm-37.573-8.653a.916.916,0,0,0-.735,1.452.908.908,0,0,0,.6.367l37.566,6.022a.915.915,0,1,0,.29-1.806l-37.566-6.022A.9.9,0,0,0,562.637,504.51Z" transform="translate(-561.328 -504.11)" fill="#ff4600"/>
        </g>
        <g id="Group_2532" data-name="Group 2532" transform="translate(0 12.604)">
          <path id="Path_2130" data-name="Path 2130" d="M600.21,527.142a1.31,1.31,0,0,1-.209-.017L562.435,521.1a1.315,1.315,0,0,1,.415-2.6l37.566,6.023a1.315,1.315,0,0,1-.207,2.613Z" transform="translate(-561.328 -518.489)" fill="#ff4600"/>
          <path id="Path_2130_-_Outline" data-name="Path 2130 - Outline" d="M600.21,527.542a1.714,1.714,0,0,1-.273-.022L562.372,521.5a1.715,1.715,0,0,1,.267-3.409,1.694,1.694,0,0,1,.278.023l37.564,6.022a1.715,1.715,0,0,1-.27,3.408Zm-37.571-8.653a.915.915,0,0,0-.14,1.819l37.565,6.022a.915.915,0,1,0,.29-1.806L562.787,518.9A.9.9,0,0,0,562.638,518.889Z" transform="translate(-561.328 -518.489)" fill="#ff4600"/>
        </g>
        <g id="Group_2533" data-name="Group 2533" transform="translate(0 25.207)">
          <path id="Path_2131" data-name="Path 2131" d="M600.21,541.521a1.432,1.432,0,0,1-.209-.016l-37.565-6.023a1.315,1.315,0,1,1,.415-2.6l37.566,6.022a1.315,1.315,0,0,1-.207,2.613Z" transform="translate(-561.328 -532.869)" fill="#ff4600"/>
          <path id="Path_2131_-_Outline" data-name="Path 2131 - Outline" d="M600.21,541.921a1.838,1.838,0,0,1-.268-.02l-37.57-6.023a1.715,1.715,0,0,1-1.422-1.965,1.724,1.724,0,0,1,1.687-1.444,1.69,1.69,0,0,1,.279.023l37.563,6.021a1.715,1.715,0,0,1-.27,3.408Zm-37.573-8.652a.916.916,0,0,0-.735,1.452.908.908,0,0,0,.6.367l37.566,6.023a1.025,1.025,0,0,0,.146.011.915.915,0,0,0,.144-1.818l-37.566-6.022A.9.9,0,0,0,562.637,533.269Z" transform="translate(-561.328 -532.869)" fill="#ff4600"/>
        </g>
        <g id="Group_2534" data-name="Group 2534" transform="translate(0 37.812)">
          <path id="Path_2132" data-name="Path 2132" d="M600.21,555.9a1.416,1.416,0,0,1-.209-.016l-37.565-6.023a1.315,1.315,0,0,1,.415-2.6l37.566,6.022a1.315,1.315,0,0,1-.207,2.613Z" transform="translate(-561.328 -547.249)" fill="#ff4600"/>
          <path id="Path_2132_-_Outline" data-name="Path 2132 - Outline" d="M600.21,556.3a1.819,1.819,0,0,1-.269-.02l-37.57-6.024a1.715,1.715,0,0,1-1.422-1.964,1.717,1.717,0,0,1,1.963-1.422l37.567,6.023a1.715,1.715,0,0,1-.27,3.408Zm-37.565-8.652a.922.922,0,0,0-.906.769.915.915,0,0,0,.758,1.048l37.566,6.023a1,1,0,0,0,.146.011.915.915,0,0,0,.143-1.818l-37.566-6.022A.914.914,0,0,0,562.645,547.649Z" transform="translate(-561.328 -547.249)" fill="#ff4600"/>
        </g>
        <g id="Group_2535" data-name="Group 2535" transform="translate(0 50.415)">
          <path id="Path_2133" data-name="Path 2133" d="M600.21,570.279a1.31,1.31,0,0,1-.209-.017l-37.565-6.022a1.315,1.315,0,0,1,.415-2.6l37.566,6.023a1.315,1.315,0,0,1-.207,2.613Z" transform="translate(-561.328 -561.628)" fill="#ff4600"/>
          <path id="Path_2133_-_Outline" data-name="Path 2133 - Outline" d="M600.21,570.679a1.712,1.712,0,0,1-.273-.022l-37.565-6.022a1.714,1.714,0,0,1-1.422-1.964,1.718,1.718,0,0,1,1.963-1.423l37.567,6.023a1.715,1.715,0,0,1-.27,3.408Zm-37.564-8.651a.923.923,0,0,0-.906.77.914.914,0,0,0,.758,1.048l37.566,6.022a.915.915,0,1,0,.29-1.806l-37.566-6.023A.916.916,0,0,0,562.646,562.028Z" transform="translate(-561.328 -561.628)" fill="#ff4600"/>
        </g>
      </g>
      <g id="Group_2542" data-name="Group 2542" transform="translate(625.798 499.521)">
        <g id="Group_2537" data-name="Group 2537" transform="translate(0 0)">
          <path id="Path_2134" data-name="Path 2134" d="M640.873,512.763a1.315,1.315,0,0,1-.207-2.613l37.567-6.022a1.315,1.315,0,1,1,.415,2.6l-37.566,6.022A1.3,1.3,0,0,1,640.873,512.763Z" transform="translate(-639.559 -504.11)" fill="#ff4600"/>
          <path id="Path_2134_-_Outline" data-name="Path 2134 - Outline" d="M640.873,513.163a1.715,1.715,0,0,1-.27-3.408l37.567-6.022a1.7,1.7,0,0,1,.278-.023,1.724,1.724,0,0,1,1.687,1.445,1.714,1.714,0,0,1-1.422,1.964l-37.566,6.022A1.707,1.707,0,0,1,640.873,513.163Zm37.575-8.653a.9.9,0,0,0-.148.012l-37.57,6.023a.915.915,0,1,0,.289,1.806l37.567-6.023a.915.915,0,0,0-.138-1.819Z" transform="translate(-639.559 -504.11)" fill="#ff4600"/>
        </g>
        <g id="Group_2538" data-name="Group 2538" transform="translate(0 12.604)">
          <path id="Path_2135" data-name="Path 2135" d="M640.873,527.142a1.315,1.315,0,0,1-.207-2.613l37.567-6.023a1.315,1.315,0,1,1,.415,2.6l-37.566,6.022A1.312,1.312,0,0,1,640.873,527.142Z" transform="translate(-639.559 -518.489)" fill="#ff4600"/>
          <path id="Path_2135_-_Outline" data-name="Path 2135 - Outline" d="M640.873,527.542a1.715,1.715,0,0,1-.27-3.408l37.567-6.023a1.7,1.7,0,0,1,.276-.023,1.715,1.715,0,0,1,.266,3.409l-37.566,6.022A1.717,1.717,0,0,1,640.873,527.542Zm37.573-8.653a.9.9,0,0,0-.148.012l-37.569,6.023a.915.915,0,0,0,.289,1.806l37.567-6.023a.915.915,0,0,0-.139-1.819Z" transform="translate(-639.559 -518.489)" fill="#ff4600"/>
        </g>
        <g id="Group_2539" data-name="Group 2539" transform="translate(0 25.207)">
          <path id="Path_2136" data-name="Path 2136" d="M640.873,541.521a1.315,1.315,0,0,1-.207-2.613l37.567-6.022a1.315,1.315,0,1,1,.415,2.6l-37.566,6.023A1.434,1.434,0,0,1,640.873,541.521Z" transform="translate(-639.559 -532.869)" fill="#ff4600"/>
          <path id="Path_2136_-_Outline" data-name="Path 2136 - Outline" d="M640.873,541.921a1.715,1.715,0,0,1-.27-3.408l37.567-6.022a1.7,1.7,0,0,1,.277-.023,1.724,1.724,0,0,1,1.687,1.444,1.715,1.715,0,0,1-1.422,1.965L641.146,541.9A1.855,1.855,0,0,1,640.873,541.921Zm37.574-8.652a.906.906,0,0,0-.148.012L640.729,539.3a.915.915,0,0,0,.143,1.818,1.041,1.041,0,0,0,.151-.011l37.561-6.022a.915.915,0,0,0,.759-1.049A.918.918,0,0,0,678.447,533.269Z" transform="translate(-639.559 -532.869)" fill="#ff4600"/>
        </g>
        <g id="Group_2540" data-name="Group 2540" transform="translate(0 37.812)">
          <path id="Path_2137" data-name="Path 2137" d="M640.873,555.9a1.315,1.315,0,0,1-.207-2.613l37.567-6.022a1.315,1.315,0,1,1,.415,2.6l-37.566,6.023A1.417,1.417,0,0,1,640.873,555.9Z" transform="translate(-639.559 -547.249)" fill="#ff4600"/>
          <path id="Path_2137_-_Outline" data-name="Path 2137 - Outline" d="M640.873,556.3a1.715,1.715,0,0,1-.27-3.408l37.567-6.023a1.739,1.739,0,0,1,.269-.021,1.714,1.714,0,0,1,.273,3.407l-37.566,6.023A1.837,1.837,0,0,1,640.873,556.3Zm37.566-8.652a.936.936,0,0,0-.144.011l-37.566,6.022a.915.915,0,0,0,.143,1.818,1.02,1.02,0,0,0,.15-.011l37.562-6.023a.914.914,0,0,0-.146-1.817Z" transform="translate(-639.559 -547.249)" fill="#ff4600"/>
        </g>
        <g id="Group_2541" data-name="Group 2541" transform="translate(0 50.415)">
          <path id="Path_2138" data-name="Path 2138" d="M640.873,570.279a1.315,1.315,0,0,1-.207-2.613l37.567-6.023a1.315,1.315,0,0,1,.415,2.6l-37.566,6.022A1.312,1.312,0,0,1,640.873,570.279Z" transform="translate(-639.559 -561.628)" fill="#ff4600"/>
          <path id="Path_2138_-_Outline" data-name="Path 2138 - Outline" d="M640.873,570.679a1.715,1.715,0,0,1-.27-3.408l37.567-6.023a1.734,1.734,0,0,1,.269-.021,1.715,1.715,0,0,1,.273,3.408l-37.566,6.022A1.715,1.715,0,0,1,640.873,570.679Zm37.566-8.651a.931.931,0,0,0-.144.011l-37.566,6.022a.915.915,0,0,0,.143,1.818.92.92,0,0,0,.146-.011l37.567-6.022a.914.914,0,0,0,.759-1.048A.923.923,0,0,0,678.439,562.028Z" transform="translate(-639.559 -561.628)" fill="#ff4600"/>
        </g>
      </g>
      <g id="Group_2543" data-name="Group 2543" transform="translate(528.125 480.43)">
        <path id="Path_2139" data-name="Path 2139" d="M692.919,596.9H529.44a1.315,1.315,0,0,1-1.315-1.315V483.643a1.315,1.315,0,0,1,1.315-1.315h4.426a1.315,1.315,0,0,1,0,2.629h-3.112V594.271H691.6V484.957h-3.36a1.315,1.315,0,1,1,0-2.629h4.674a1.315,1.315,0,0,1,1.315,1.315V595.586A1.315,1.315,0,0,1,692.919,596.9Z" transform="translate(-528.125 -482.328)" fill="#ff4600"/>
        <path id="Path_2139_-_Outline" data-name="Path 2139 - Outline" d="M692.919,597.3H529.44a1.717,1.717,0,0,1-1.715-1.715V483.643a1.717,1.717,0,0,1,1.715-1.715h4.426a1.715,1.715,0,0,1,0,3.429h-2.712V593.871H691.2V485.357h-2.96a1.715,1.715,0,1,1,0-3.429h4.674a1.717,1.717,0,0,1,1.715,1.715V595.586A1.717,1.717,0,0,1,692.919,597.3ZM529.44,482.728a.916.916,0,0,0-.915.915V595.586a.916.916,0,0,0,.915.915h163.48a.916.916,0,0,0,.915-.915V483.643a.916.916,0,0,0-.915-.915h-4.674a.915.915,0,1,0,0,1.829H692V594.671H530.354V484.557h3.512a.915.915,0,0,0,0-1.829Z" transform="translate(-528.125 -482.328)" fill="#ff4600"/>
      </g>
    </g>
  </g>
</svg>
