<svg xmlns="http://www.w3.org/2000/svg" width="262" height="262" viewBox="0 0 262 262">
  <g id="Group_2558" data-name="Group 2558" transform="translate(-1537 -997)">
    <rect id="Rectangle_1472" data-name="Rectangle 1472" width="262" height="262" rx="15" transform="translate(1537 997)" fill="#f2f2f2"/>
    <g id="Group_2526" data-name="Group 2526" transform="translate(1358.294 342.155)">
      <g id="Group_2516" data-name="Group 2516" transform="translate(355.857 735.881)">
        <path id="Path_2107" data-name="Path 2107" d="M398.185,779.172a1.448,1.448,0,0,1-.347-.042,1.762,1.762,0,0,1-1.069-.893q-1.274-2.146-2.565-4.279-1.2-2-2.4-4a.385.385,0,0,0-.31-.22l-1.557-.38c-2.109-.514-4.292-1.047-6.428-1.633a7.263,7.263,0,0,1-4.955-8.46c1.493-6.121,3-12.185,4.472-18.025a7.337,7.337,0,0,1,8.616-5.17q5.65,1.374,11.288,2.791l3.268.813v0l5.84,1.456c3.627.906,7.377,1.844,11.071,2.726a7.521,7.521,0,0,1,5.673,6.524,6.26,6.26,0,0,1-.118,2.051c-1.338,5.473-2.922,11.923-4.529,18.27a7.255,7.255,0,0,1-8.222,5.067c-2.284-.507-4.582-1.088-6.806-1.65l-1.244-.314a.486.486,0,0,0-.465.078q-1.883,1.148-3.776,2.284c-1.483.892-2.964,1.784-4.44,2.69A1.917,1.917,0,0,1,398.185,779.172ZM390.037,738.1a5.075,5.075,0,0,0-4.856,3.682c-1.473,5.833-2.977,11.893-4.467,18.006a5.1,5.1,0,0,0,3.383,5.792c2.107.577,4.274,1.106,6.368,1.618l1.559.381a2.592,2.592,0,0,1,1.692,1.242q1.19,2,2.393,3.991,1.168,1.94,2.33,3.885c1.37-.836,2.7-1.639,4.036-2.442,1.256-.758,2.513-1.514,3.764-2.279a2.676,2.676,0,0,1,2.169-.333l1.244.314c2.207.558,4.491,1.135,6.742,1.635a5.068,5.068,0,0,0,5.585-3.442c1.606-6.339,3.188-12.784,4.526-18.252a4.143,4.143,0,0,0,.063-1.32,5.269,5.269,0,0,0-3.976-4.566c-3.706-.886-7.462-1.825-11.095-2.733l-3.079-.768v0l-6.027-1.5q-5.635-1.405-11.275-2.788A4.594,4.594,0,0,0,390.037,738.1Zm11.386,27.908a1.379,1.379,0,0,1-.328-.041,1.53,1.53,0,0,1-.95-.794L398.77,762.9q-1.423-2.352-2.839-4.711c-.143-.238-.289-.476-.436-.713a20.334,20.334,0,0,1-1.38-2.494,5.818,5.818,0,0,1,10.358-5.235l.255.417c.068.111.136.22.2.332.184-.107.37-.213.556-.318l.316-.18a5.832,5.832,0,0,1,8.607,6.285l-.022.093a5.694,5.694,0,0,1-2.461,3.531q-2.914,1.782-5.841,3.537-1.919,1.156-3.837,2.316A1.574,1.574,0,0,1,401.423,766.006Zm-.327-2.148h0Zm-1.655-14.728a3.286,3.286,0,0,0-1.483.347,3.561,3.561,0,0,0-1.807,4.61,18.107,18.107,0,0,0,1.234,2.217c.153.245.305.491.453.739q1.41,2.355,2.833,4.7l1.047,1.734,3.22-1.941q2.919-1.757,5.828-3.528a3.467,3.467,0,0,0,1.468-2.19,3.609,3.609,0,0,0-5.329-3.9l-.323.184c-.359.2-.718.406-1.067.624a1.542,1.542,0,0,1-1.217.231,1.511,1.511,0,0,1-.945-.773c-.164-.291-.341-.577-.518-.865l-.264-.433A3.692,3.692,0,0,0,399.442,749.13Z" transform="translate(-378.373 -735.881)" fill="#ff4600"/>
        <path id="Path_2107_-_Outline" data-name="Path 2107 - Outline" d="M398.185,779.672a1.952,1.952,0,0,1-.466-.057,2.25,2.25,0,0,1-1.378-1.121c-.843-1.421-1.708-2.856-2.544-4.245l-.02-.033c-.771-1.28-1.592-2.643-2.395-3.992l-.009,0-1.554-.38c-2-.487-4.261-1.039-6.442-1.637a7.762,7.762,0,0,1-5.309-9.061c1.494-6.126,3-12.192,4.473-18.029a7.515,7.515,0,0,1,2.815-4.13,7.945,7.945,0,0,1,4.72-1.6,7.135,7.135,0,0,1,1.684.2c3.813.927,7.615,1.875,11.291,2.792l2.647.659h0l.621.151,5.958,1.485c3.588.9,7.3,1.823,10.949,2.7a8.029,8.029,0,0,1,6.054,6.963,6.755,6.755,0,0,1-.13,2.216c-1.329,5.438-2.906,11.861-4.531,18.274a7.3,7.3,0,0,1-2.776,4,7.832,7.832,0,0,1-4.621,1.584,6.564,6.564,0,0,1-1.418-.153c-2.312-.514-4.6-1.093-6.821-1.654l-1.244-.314-.034-.008-.046.027c-1.131.69-2.284,1.384-3.4,2.056l-.382.23c-1.424.856-2.938,1.769-4.436,2.688A2.4,2.4,0,0,1,398.185,779.672Zm-8.11-43.291a6.875,6.875,0,0,0-6.565,4.978c-1.473,5.835-2.977,11.9-4.471,18.021a6.764,6.764,0,0,0,4.6,7.859c2.167.594,4.423,1.144,6.414,1.629l1.557.38a.875.875,0,0,1,.622.45c.8,1.35,1.626,2.716,2.4,4l.02.033c.837,1.39,1.7,2.827,2.546,4.248a1.276,1.276,0,0,0,.759.663.948.948,0,0,0,.227.028,1.439,1.439,0,0,0,.736-.251c1.5-.921,3.018-1.835,4.443-2.692l.382-.23c1.113-.671,2.264-1.365,3.392-2.052a1.027,1.027,0,0,1,.55-.178,1.223,1.223,0,0,1,.3.042l1.247.315c2.21.559,4.494,1.137,6.792,1.647a5.56,5.56,0,0,0,1.2.129,6.827,6.827,0,0,0,4.024-1.386,6.3,6.3,0,0,0,2.4-3.445c1.623-6.41,3.2-12.831,4.528-18.266a5.764,5.764,0,0,0,.105-1.886,7.016,7.016,0,0,0-5.291-6.084c-3.656-.873-7.369-1.8-10.959-2.7l-5.381-1.342-.576-.139-3.268-.813c-3.675-.916-7.475-1.864-11.286-2.79A6.135,6.135,0,0,0,390.076,736.381Zm8.193,41-.259-.435c-.7-1.182-1.425-2.381-2.123-3.54l-.253-.42c-.772-1.282-1.57-2.608-2.348-3.916a2.089,2.089,0,0,0-1.381-1.012l-1.589-.388c-2.089-.51-4.248-1.037-6.351-1.614a5.289,5.289,0,0,1-3.072-2.484,5.352,5.352,0,0,1-.664-3.908c1.488-6.1,2.992-12.164,4.468-18.01a5.318,5.318,0,0,1,2-2.927,5.638,5.638,0,0,1,3.345-1.133,5.1,5.1,0,0,1,1.2.142c3.736.908,7.527,1.853,11.193,2.767l5.492,1.366h0l.621.151,3.151.786c3.608.9,7.339,1.835,11.018,2.714a5.774,5.774,0,0,1,4.357,5.006,4.642,4.642,0,0,1-.075,1.484c-1.436,5.868-2.977,12.14-4.527,18.257a5.067,5.067,0,0,1-1.989,2.785,5.619,5.619,0,0,1-3.263,1.122,4.279,4.279,0,0,1-.927-.1c-2.279-.506-4.555-1.081-6.756-1.638l-1.244-.313a2.485,2.485,0,0,0-.61-.08,2.192,2.192,0,0,0-1.176.356c-1.1.671-2.219,1.347-3.3,2l-.462.279q-1.953,1.176-4.034,2.44ZM390.037,738.6a4.572,4.572,0,0,0-4.371,3.3c-1.476,5.844-2.979,11.9-4.466,18a4.347,4.347,0,0,0,.556,3.167,4.285,4.285,0,0,0,2.473,2.024c2.09.573,4.242,1.1,6.324,1.607l1.589.388a3.11,3.11,0,0,1,2,1.472c.777,1.306,1.575,2.631,2.346,3.912l.253.42c.613,1.019,1.245,2.068,1.867,3.11q1.854-1.129,3.607-2.18l.462-.279c1.083-.653,2.2-1.328,3.3-2a3.193,3.193,0,0,1,1.7-.5,3.521,3.521,0,0,1,.854.11l1.245.314c2.195.555,4.464,1.129,6.728,1.632a3.277,3.277,0,0,0,.71.076,4.625,4.625,0,0,0,4.282-3.152c1.549-6.114,3.09-12.383,4.525-18.248a3.646,3.646,0,0,0,.051-1.155,4.761,4.761,0,0,0-3.594-4.126c-3.684-.88-7.418-1.814-11.028-2.716l-.071-.018-2.526-.63L408.3,743l-6.113-1.521c-3.665-.914-7.455-1.859-11.187-2.765A4.1,4.1,0,0,0,390.037,738.6Zm11.386,27.908a1.885,1.885,0,0,1-.447-.055,2.035,2.035,0,0,1-1.26-1.024l-1.373-2.273c-.917-1.515-1.891-3.128-2.84-4.713-.15-.25-.3-.5-.432-.706a20.676,20.676,0,0,1-1.413-2.556,6.251,6.251,0,0,1,3.075-8.132,6.011,6.011,0,0,1,2.73-.647,6.4,6.4,0,0,1,5.439,3.085l.2.332.136-.077.316-.18a6.458,6.458,0,0,1,3.191-.854,6.083,6.083,0,0,1,3.771,1.288,6.192,6.192,0,0,1,2.384,6.379l-.005.024-.027.112a6.169,6.169,0,0,1-2.681,3.823c-1.986,1.215-3.976,2.414-5.845,3.539l-.443.267c-1.113.67-2.264,1.363-3.392,2.048A2.072,2.072,0,0,1,401.423,766.506Zm-1.96-19.106a5.019,5.019,0,0,0-2.28.54,5.263,5.263,0,0,0-2.609,6.838,19.906,19.906,0,0,0,1.347,2.432c.131.211.286.462.44.718.947,1.583,1.921,3.195,2.838,4.709l1.379,2.283a1.051,1.051,0,0,0,.64.561.994.994,0,0,0,.772-.151c1.131-.686,2.282-1.379,3.4-2.05l.444-.267c1.867-1.124,3.855-2.322,5.838-3.535a5.214,5.214,0,0,0,2.238-3.231l.017-.072a5.243,5.243,0,0,0-2.018-5.393,5.092,5.092,0,0,0-3.157-1.077,5.457,5.457,0,0,0-2.7.724l-.317.18c-.2.112-.375.213-.551.315l-.425.248-.254-.421c-.066-.11-.133-.218-.2-.328l-.256-.419A5.393,5.393,0,0,0,399.463,747.4Zm1.986,16.812-.707-.707.708.706Zm.1-.047-1.684-2.788c-.807-1.335-1.641-2.716-2.456-4.078-.15-.251-.3-.5-.448-.731l-.006-.01a18.39,18.39,0,0,1-1.261-2.271,4.054,4.054,0,0,1,2.04-5.256,3.76,3.76,0,0,1,1.708-.4,4.177,4.177,0,0,1,3.558,2l.3.5c.163.265.331.538.487.815a1.027,1.027,0,0,0,.634.534.906.906,0,0,0,.216.026,1.167,1.167,0,0,0,.612-.2c.353-.22.718-.427,1.072-.627l.335-.191a4.221,4.221,0,0,1,2.087-.561,3.88,3.88,0,0,1,2.408.82,4.026,4.026,0,0,1,1.573,4.16l0,.025-.007.024a3.97,3.97,0,0,1-1.688,2.479c-1.917,1.173-3.873,2.351-5.764,3.49l-.356.215-2.93,1.767Zm-2.108-14.536a2.769,2.769,0,0,0-1.258.294,3.067,3.067,0,0,0-1.574,3.962,17.676,17.676,0,0,0,1.2,2.147l.005.008c.146.235.3.487.457.746.814,1.359,1.647,2.739,2.453,4.074l1.167,1.932,2.5-1.509.356-.215c1.89-1.138,3.845-2.315,5.758-3.486a3.105,3.105,0,0,0,.034-5.046,2.889,2.889,0,0,0-1.794-.609,3.22,3.22,0,0,0-1.591.43l-.338.193c-.344.195-.7.4-1.035.605a2.148,2.148,0,0,1-1.141.349,1.911,1.911,0,0,1-.461-.057,2,2,0,0,1-1.26-1.013c-.147-.26-.3-.513-.468-.782l-.306-.5A3.173,3.173,0,0,0,399.442,749.63Z" transform="translate(-378.373 -735.881)" fill="#fe4600"/>
      </g>
      <g id="Group_2517" data-name="Group 2517" transform="translate(229.215 753.463)">
        <path id="Path_2108" data-name="Path 2108" d="M233.141,778.326a1.333,1.333,0,0,1-.362-2.616l68.685-19.429a1.333,1.333,0,0,1,.725,2.566l-68.684,19.428A1.323,1.323,0,0,1,233.141,778.326Z" transform="translate(-231.808 -756.229)" fill="#ff4600"/>
        <path id="Path_2108_-_Outline" data-name="Path 2108 - Outline" d="M233.141,778.826a1.84,1.84,0,0,1-1.763-1.335,1.833,1.833,0,0,1,1.265-2.262L301.328,755.8a1.833,1.833,0,0,1,1,3.528l-68.685,19.428A1.831,1.831,0,0,1,233.141,778.826Zm68.689-22.1a.824.824,0,0,0-.228.032l-68.687,19.429a.833.833,0,0,0,.226,1.635.82.82,0,0,0,.227-.032l68.685-19.428a.834.834,0,0,0-.223-1.637Z" transform="translate(-231.808 -756.229)" fill="#fe4600"/>
      </g>
      <g id="Group_2518" data-name="Group 2518" transform="translate(229.215 797.796)">
        <path id="Path_2109" data-name="Path 2109" d="M301.827,829.632a1.318,1.318,0,0,1-.363-.05l-68.685-19.429a1.334,1.334,0,0,1,.726-2.566l68.684,19.429a1.333,1.333,0,0,1-.362,2.616Z" transform="translate(-231.808 -807.536)" fill="#ff4600"/>
        <path id="Path_2109_-_Outline" data-name="Path 2109 - Outline" d="M301.827,830.132a1.82,1.82,0,0,1-.5-.069l-68.684-19.428a1.834,1.834,0,1,1,1-3.528l68.683,19.428a1.833,1.833,0,0,1-.5,3.6Zm-68.686-22.1a.834.834,0,0,0-.226,1.636L301.6,829.1a.824.824,0,0,0,.227.031.833.833,0,0,0,.226-1.635l-68.684-19.429A.829.829,0,0,0,233.142,808.036Z" transform="translate(-231.808 -807.536)" fill="#fe4600"/>
      </g>
      <g id="Group_2519" data-name="Group 2519" transform="translate(299.529 742.67)">
        <path id="Path_2110" data-name="Path 2110" d="M323.722,832.177h-3.735a6.813,6.813,0,0,1-6.8-6.805V750.543a6.813,6.813,0,0,1,6.8-6.805h3.735a6.814,6.814,0,0,1,6.806,6.805v74.828A6.814,6.814,0,0,1,323.722,832.177ZM319.988,746.4a4.143,4.143,0,0,0-4.138,4.139v74.828a4.143,4.143,0,0,0,4.138,4.139h3.735a4.144,4.144,0,0,0,4.139-4.139V750.543a4.144,4.144,0,0,0-4.139-4.139Z" transform="translate(-313.183 -743.738)" fill="#ff4600"/>
        <path id="Path_2110_-_Outline" data-name="Path 2110 - Outline" d="M323.722,832.677h-3.735a7.313,7.313,0,0,1-7.3-7.305V750.543a7.313,7.313,0,0,1,7.3-7.305h3.735a7.314,7.314,0,0,1,7.306,7.305v74.828A7.314,7.314,0,0,1,323.722,832.677Zm-3.735-88.438a6.312,6.312,0,0,0-6.3,6.305v74.828a6.312,6.312,0,0,0,6.3,6.305h3.735a6.313,6.313,0,0,0,6.306-6.305V750.543a6.313,6.313,0,0,0-6.306-6.305Zm3.735,85.772h-3.735a4.644,4.644,0,0,1-4.638-4.639V750.543a4.644,4.644,0,0,1,4.638-4.639h3.735a4.644,4.644,0,0,1,4.639,4.639v74.828A4.644,4.644,0,0,1,323.722,830.01ZM319.988,746.9a3.643,3.643,0,0,0-3.638,3.639v74.828a3.643,3.643,0,0,0,3.638,3.639h3.735a3.643,3.643,0,0,0,3.639-3.639V750.543a3.643,3.643,0,0,0-3.639-3.639Z" transform="translate(-313.183 -743.738)" fill="#fe4600"/>
      </g>
      <g id="Group_2520" data-name="Group 2520" transform="translate(212.731 763.658)">
        <path id="Path_2111" data-name="Path 2111" d="M224.094,814.49h-5.383a5.986,5.986,0,0,1-5.98-5.98v-34.5a5.986,5.986,0,0,1,5.98-5.98h5.383a5.987,5.987,0,0,1,5.981,5.98v34.5A5.987,5.987,0,0,1,224.094,814.49Zm-5.383-43.8a3.317,3.317,0,0,0-3.314,3.314v34.5a3.317,3.317,0,0,0,3.314,3.314h5.383a3.318,3.318,0,0,0,3.315-3.314v-34.5a3.318,3.318,0,0,0-3.315-3.314Z" transform="translate(-212.731 -768.028)" fill="#ff4600"/>
        <path id="Path_2111_-_Outline" data-name="Path 2111 - Outline" d="M224.094,814.99h-5.383a6.487,6.487,0,0,1-6.48-6.48v-34.5a6.488,6.488,0,0,1,6.48-6.48h5.383a6.488,6.488,0,0,1,6.481,6.48v34.5A6.488,6.488,0,0,1,224.094,814.99Zm-5.383-46.462a5.486,5.486,0,0,0-5.48,5.48v34.5a5.486,5.486,0,0,0,5.48,5.48h5.383a5.487,5.487,0,0,0,5.481-5.48v-34.5a5.487,5.487,0,0,0-5.481-5.48Zm5.383,43.8h-5.383a3.818,3.818,0,0,1-3.814-3.814v-34.5a3.818,3.818,0,0,1,3.814-3.814h5.383a3.818,3.818,0,0,1,3.815,3.814v34.5A3.818,3.818,0,0,1,224.094,812.323Zm-5.383-41.129a2.817,2.817,0,0,0-2.814,2.814v34.5a2.817,2.817,0,0,0,2.814,2.814h5.383a2.817,2.817,0,0,0,2.815-2.814v-34.5a2.817,2.817,0,0,0-2.815-2.814Z" transform="translate(-212.731 -768.028)" fill="#fe4600"/>
      </g>
      <g id="Group_2521" data-name="Group 2521" transform="translate(235.655 806.142)">
        <path id="Path_2112" data-name="Path 2112" d="M265.506,836.25a7.79,7.79,0,0,1-1.964-.235l-19.532-5.664a6.323,6.323,0,0,1-4.251-3.64c-1.544-3.784,1-8.608,1.105-8.813a1.333,1.333,0,0,1,2.351,1.257c-.576,1.087-1.877,4.381-.985,6.553a3.721,3.721,0,0,0,2.552,2.089l19.494,5.653a5.023,5.023,0,0,0,3.9-.681c1.4-1.054,2.143-3.128,2.2-6.165a1.373,1.373,0,0,1,1.358-1.308,1.333,1.333,0,0,1,1.308,1.358c-.074,3.92-1.183,6.7-3.295,8.269A7.055,7.055,0,0,1,265.506,836.25Z" transform="translate(-239.261 -817.195)" fill="#ff4600"/>
        <path id="Path_2112_-_Outline" data-name="Path 2112 - Outline" d="M265.506,836.75a8.194,8.194,0,0,1-2.1-.254l-19.545-5.668a6.815,6.815,0,0,1-4.564-3.928,9.474,9.474,0,0,1-.088-6.067,15.971,15.971,0,0,1,1.215-3.171,1.833,1.833,0,0,1,3.233,1.729c-.508.958-1.777,4.145-.963,6.128a3.252,3.252,0,0,0,2.234,1.8l19.477,5.648a5.052,5.052,0,0,0,1.1.117,3.955,3.955,0,0,0,2.372-.714c1.274-.958,1.947-2.9,2-5.775a1.87,1.87,0,0,1,1.841-1.8h.026a1.833,1.833,0,0,1,1.8,1.868c-.077,4.083-1.254,7-3.5,8.661A7.5,7.5,0,0,1,265.506,836.75Zm-21.352-6.878,19.527,5.662a7.385,7.385,0,0,0,1.825.215,6.607,6.607,0,0,0,3.946-1.227c1.981-1.47,3.022-4.12,3.093-7.877a.833.833,0,0,0-.8-.849.873.873,0,0,0-.862.817c-.06,3.2-.867,5.4-2.4,6.556a4.943,4.943,0,0,1-2.973.915,6.137,6.137,0,0,1-1.288-.133H264.2l-19.573-5.676a4.189,4.189,0,0,1-2.864-2.376,6.62,6.62,0,0,1-.082-3.987,13.425,13.425,0,0,1,1.088-2.991.833.833,0,1,0-1.468-.787,15.142,15.142,0,0,0-1.131,2.958,8.838,8.838,0,0,0,.047,5.43A5.859,5.859,0,0,0,244.154,829.873Z" transform="translate(-239.261 -817.195)" fill="#fe4600"/>
      </g>
      <g id="Group_2522" data-name="Group 2522" transform="translate(326.569 760.845)">
        <path id="Path_2113" data-name="Path 2113" d="M345.811,777.164a1.334,1.334,0,0,1-.79-2.408l13.242-9.725a1.333,1.333,0,1,1,1.578,2.15L346.6,776.905A1.33,1.33,0,0,1,345.811,777.164Z" transform="translate(-344.477 -764.772)" fill="#ff4600"/>
        <path id="Path_2113_-_Outline" data-name="Path 2113 - Outline" d="M345.811,777.664a1.834,1.834,0,0,1-1.086-3.311l13.242-9.725a1.833,1.833,0,1,1,2.169,2.956L346.9,777.308A1.825,1.825,0,0,1,345.811,777.664Zm13.24-12.391a.828.828,0,0,0-.493.161l-13.241,9.725a.834.834,0,0,0-.178,1.165.834.834,0,0,0,1.166.179l13.24-9.725a.833.833,0,0,0-.494-1.5Z" transform="translate(-344.477 -764.772)" fill="#fe4600"/>
      </g>
      <g id="Group_2523" data-name="Group 2523" transform="translate(326.569 800.054)">
        <path id="Path_2114" data-name="Path 2114" d="M359.051,822.541a1.326,1.326,0,0,1-.788-.258l-13.242-9.725a1.333,1.333,0,0,1,1.579-2.149l13.241,9.724a1.333,1.333,0,0,1-.79,2.408Z" transform="translate(-344.477 -810.149)" fill="#ff4600"/>
        <path id="Path_2114_-_Outline" data-name="Path 2114 - Outline" d="M359.051,823.041a1.818,1.818,0,0,1-1.084-.355l-13.242-9.725a1.833,1.833,0,0,1-.392-2.563,1.841,1.841,0,0,1,1.479-.748,1.819,1.819,0,0,1,1.084.356l13.241,9.724a1.833,1.833,0,0,1-1.086,3.311Zm-13.239-12.391a.833.833,0,0,0-.495,1.5l13.242,9.725a.834.834,0,0,0,1.165-.179.834.834,0,0,0-.179-1.164L346.3,810.811A.825.825,0,0,0,345.812,810.649Z" transform="translate(-344.477 -810.149)" fill="#fe4600"/>
      </g>
      <g id="Group_2524" data-name="Group 2524" transform="translate(326.569 785.556)">
        <path id="Path_2115" data-name="Path 2115" d="M362.214,796.037h-16.4a1.333,1.333,0,1,1,0-2.667h16.4a1.333,1.333,0,1,1,0,2.667Z" transform="translate(-344.477 -793.371)" fill="#ff4600"/>
        <path id="Path_2115_-_Outline" data-name="Path 2115 - Outline" d="M362.214,796.537h-16.4a1.833,1.833,0,1,1,0-3.667h16.4a1.833,1.833,0,1,1,0,3.667Zm-16.4-2.667a.833.833,0,1,0,0,1.667h16.4a.833.833,0,1,0,0-1.667Z" transform="translate(-344.477 -793.371)" fill="#fe4600"/>
      </g>
      <g id="Group_2525" data-name="Group 2525" transform="translate(355.955 790.118)">
        <path id="Path_2116" data-name="Path 2116" d="M427.483,826.609a4.718,4.718,0,0,0,1.187-5.286,5.03,5.03,0,0,0-3.484-3.024q-4.682-1.3-9.357-2.626c-.178-.05-.35-.122-.569-.2.508-1.124.966-2.208,1.482-3.263A11.727,11.727,0,0,0,418,805.843a9.111,9.111,0,0,0-2.021-5.306,4.566,4.566,0,0,0-5.568-1.137.629.629,0,0,0-.314.372c-.417,2.031-.811,4.067-1.219,6.1a3.973,3.973,0,0,1-.911,2.147q-4.166,4.28-8.311,8.578c-.126.13-.28.233-.485.4-.121-1.42-.557-1.945-1.811-2.3-3.378-.949-6.766-1.863-10.129-2.863a2.155,2.155,0,0,0-2.834,1.59c-1.814,6.592-3.681,13.169-5.527,19.752a2.032,2.032,0,0,0,1.564,2.8q2.393.677,4.787,1.345c1.854.52,3.706,1.047,5.563,1.559a2.009,2.009,0,0,0,2.639-1.464c.08-.281.157-.562.255-.91.128.133.2.2.262.275a8.29,8.29,0,0,0,4.349,2.831q7.766,2.165,15.525,4.353a4.838,4.838,0,0,0,6.147-4.106.4.4,0,0,1,.384-.424,4.793,4.793,0,0,0,3.852-4.957c-.015-.32.086-.427.365-.539a4.726,4.726,0,0,0,3.128-4.254,4.818,4.818,0,0,0-.624-2.711C427.216,826.844,427.352,826.729,427.483,826.609Zm-35.744,9.413a1.046,1.046,0,0,1-1.287.7l-8.943-2.424a1.007,1.007,0,0,1-.728-1.242l5.338-18.5a1.045,1.045,0,0,1,1.287-.695l8.943,2.423a1.006,1.006,0,0,1,.728,1.242ZM425.384,825.7c-.472.216-.961.393-1.477.6.36.366.7.7,1.025,1.047a2.926,2.926,0,0,1-1.93,4.966c-.441.039-.887.036-1.4.055.144.383.272.726.4,1.067a2.924,2.924,0,0,1-3.22,4.122c-.336-.04-.674-.068-1.056-.106.1.447.186.837.26,1.231a2.912,2.912,0,0,1-3.714,3.444q-7.81-2.174-15.612-4.383a6.215,6.215,0,0,1-3.357-2.331,5.469,5.469,0,0,0-.747-.826.52.52,0,0,1-.166-.622q2-7.089,4-14.182a.773.773,0,0,1,.4-.467,8.324,8.324,0,0,0,3.256-2.348c2.406-2.548,4.857-5.053,7.3-7.564a5.791,5.791,0,0,0,1.434-3.119c.316-1.672.658-3.338.976-5.009a.446.446,0,0,1,.466-.423,2.66,2.66,0,0,1,2.347.957,6.925,6.925,0,0,1,1.481,3.777,10.471,10.471,0,0,1-1.213,6.177c-.8,1.616-1.5,3.277-2.276,4.974l.532.149q5.735,1.61,11.472,3.219a3.467,3.467,0,0,1,1.863,1.165A2.831,2.831,0,0,1,425.384,825.7Z" transform="translate(-378.52 -798.685)" fill="#ff4600"/>
        <path id="Path_2116_-_Outline" data-name="Path 2116 - Outline" d="M415.153,844.655h0a5.47,5.47,0,0,1-1.475-.2q-2.883-.808-5.766-1.618c-3.2-.9-6.5-1.828-9.759-2.735a8.854,8.854,0,0,1-4.241-2.575l-.01.035a2.464,2.464,0,0,1-2.42,1.925,3.147,3.147,0,0,1-.832-.117c-1.274-.351-2.567-.715-3.817-1.067l-1.749-.492-1.759-.494c-.993-.278-2.019-.566-3.029-.852a2.522,2.522,0,0,1-1.909-3.415q.778-2.774,1.56-5.548c1.309-4.652,2.663-9.463,3.967-14.2a2.636,2.636,0,0,1,2.574-2.069,3.11,3.11,0,0,1,.885.132c2.4.714,4.857,1.4,7.232,2.055.947.263,1.927.535,2.89.805a2.475,2.475,0,0,1,2.018,1.8l2.716-2.806c1.761-1.821,3.583-3.7,5.38-5.55a3.571,3.571,0,0,0,.779-1.9q.228-1.136.452-2.273c.249-1.255.506-2.554.768-3.83a1.124,1.124,0,0,1,.585-.721,5.283,5.283,0,0,1,2.312-.542,5.047,5.047,0,0,1,3.852,1.8A9.49,9.49,0,0,1,418.5,805.8a12.142,12.142,0,0,1-1.307,6.634c-.35.716-.67,1.438-1.008,2.2l-.245.552.026.008,1.5.421c2.576.726,5.239,1.476,7.86,2.2a5.527,5.527,0,0,1,3.812,3.314,5.237,5.237,0,0,1-1.31,5.847l-.137.123a5.1,5.1,0,0,1,.5,2.633,5.2,5.2,0,0,1-3.439,4.674l-.053.023q0,.013,0,.03a5.281,5.281,0,0,1-4.24,5.468A5.331,5.331,0,0,1,415.153,844.655Zm-21.721-9.121.606.63.11.112a2.387,2.387,0,0,1,.182.2,7.748,7.748,0,0,0,4.092,2.661c3.255.907,6.562,1.836,9.76,2.735l5.765,1.618a4.47,4.47,0,0,0,1.205.167,4.332,4.332,0,0,0,4.31-3.848.882.882,0,0,1,.775-.856,4.3,4.3,0,0,0,3.459-4.446.952.952,0,0,1,.677-1.026,4.214,4.214,0,0,0,2.817-3.834,4.3,4.3,0,0,0-.567-2.433l-.185-.348.295-.261.16-.14c.088-.077.172-.15.25-.222a4.234,4.234,0,0,0,1.064-4.726,4.514,4.514,0,0,0-3.156-2.735c-2.623-.729-5.287-1.48-7.863-2.205l-1.5-.421c-.141-.04-.273-.089-.412-.141l-.189-.069-.511-.182.224-.495c.158-.35.314-.7.464-1.04.342-.773.666-1.5,1.024-2.236a11.171,11.171,0,0,0,1.21-6.1,8.547,8.547,0,0,0-1.9-5.026,4.062,4.062,0,0,0-3.1-1.457,4.291,4.291,0,0,0-1.877.442.224.224,0,0,0-.047.047c-.26,1.264-.515,2.552-.761,3.8q-.225,1.138-.453,2.275a4.468,4.468,0,0,1-1.043,2.4c-1.8,1.845-3.617,3.727-5.378,5.547q-1.466,1.515-2.933,3.03a3.226,3.226,0,0,1-.338.291c-.059.046-.12.094-.187.149l-.736.608-.081-.951c-.1-1.2-.386-1.56-1.448-1.858-.962-.27-1.941-.542-2.887-.8-2.379-.661-4.84-1.344-7.249-2.06a2.11,2.11,0,0,0-.6-.091,1.633,1.633,0,0,0-1.61,1.334c-1.3,4.741-2.659,9.554-3.969,14.207q-.78,2.773-1.559,5.547a1.543,1.543,0,0,0,1.219,2.182c1.008.285,2.034.573,3.027.851l1.759.494,1.75.492c1.248.352,2.539.716,3.811,1.066a2.148,2.148,0,0,0,.567.081,1.475,1.475,0,0,0,1.459-1.2c.05-.176.1-.354.154-.548l.1-.358Zm21.733,7.223a3.813,3.813,0,0,1-1.022-.143c-4.878-1.357-9.985-2.792-15.614-4.384a6.721,6.721,0,0,1-3.621-2.513,4.974,4.974,0,0,0-.677-.751,1.014,1.014,0,0,1-.316-1.132q.779-2.76,1.555-5.521c.8-2.84,1.624-5.776,2.444-8.662a1.261,1.261,0,0,1,.716-.8,7.916,7.916,0,0,0,3.058-2.22c2.1-2.222,4.264-4.446,6.359-6.6l.948-.973a5.217,5.217,0,0,0,1.3-2.864c.162-.854.332-1.72.5-2.558.159-.8.323-1.634.478-2.452a.942.942,0,0,1,.916-.828c.106-.009.213-.014.317-.014a3.134,3.134,0,0,1,2.448,1.141,7.51,7.51,0,0,1,1.6,4.037,10.836,10.836,0,0,1-1.26,6.467c-.544,1.1-1.035,2.2-1.556,3.37-.155.347-.313.7-.473,1.058l3.008.844c2.765.776,5.624,1.579,8.436,2.366a3.948,3.948,0,0,1,2.12,1.336,3.33,3.33,0,0,1-1.232,5.2c-.263.12-.525.227-.8.333.172.173.338.343.5.521a3.426,3.426,0,0,1-2.253,5.8c-.242.021-.481.031-.728.037.052.138.1.273.155.408a3.618,3.618,0,0,1-.294,3.387,3.462,3.462,0,0,1-2.921,1.442,4.554,4.554,0,0,1-.53-.032c-.12-.014-.24-.027-.364-.039.042.194.081.383.118.575a3.56,3.56,0,0,1-.713,2.952A3.363,3.363,0,0,1,415.165,842.757Zm-20.306-8.572a.384.384,0,0,0,.033.033,5.974,5.974,0,0,1,.816.9,5.742,5.742,0,0,0,3.092,2.149c5.627,1.592,10.733,3.026,15.61,4.383a2.815,2.815,0,0,0,.754.106A2.367,2.367,0,0,0,417,840.91a2.531,2.531,0,0,0,.5-2.128c-.049-.263-.107-.527-.168-.807-.029-.133-.059-.27-.089-.413l-.142-.669.681.068.341.033c.25.024.486.046.724.074a3.55,3.55,0,0,0,.413.025,2.478,2.478,0,0,0,2.1-1.01,2.636,2.636,0,0,0,.184-2.463c-.091-.239-.182-.48-.277-.734l-.371-.985.694-.026c.169-.006.332-.01.489-.014.31-.008.6-.015.884-.04a2.427,2.427,0,0,0,1.607-4.128c-.213-.23-.436-.453-.671-.69-.113-.113-.228-.229-.345-.348l-.524-.534.693-.28c.163-.066.324-.129.482-.191.341-.133.663-.259.974-.4a2.386,2.386,0,0,0,1.36-1.6,2.413,2.413,0,0,0-.5-2.065,2.947,2.947,0,0,0-1.606-.994c-2.813-.787-5.672-1.59-8.437-2.366l-3.276-.92-.293-.082-.561-.158.242-.53c.241-.53.48-1.065.71-1.582.525-1.177,1.02-2.288,1.572-3.406a9.888,9.888,0,0,0,1.166-5.888,6.492,6.492,0,0,0-1.363-3.516,2.163,2.163,0,0,0-1.928-.788h-.013l0,.017c-.156.821-.32,1.654-.479,2.459-.165.836-.335,1.7-.5,2.55a6.356,6.356,0,0,1-1.567,3.375l-.948.974c-2.092,2.148-4.256,4.369-6.348,6.585a8.823,8.823,0,0,1-3.439,2.472.363.363,0,0,0-.1.137c-.819,2.885-1.645,5.821-2.443,8.66q-.777,2.761-1.555,5.522A.571.571,0,0,0,394.859,834.185Zm-4.123,3.071a1.59,1.59,0,0,1-.415-.055l-8.943-2.424a1.532,1.532,0,0,1-.944-.73,1.465,1.465,0,0,1-.133-1.134l5.338-18.5a1.538,1.538,0,0,1,1.482-1.094,1.587,1.587,0,0,1,.417.056l8.943,2.423a1.533,1.533,0,0,1,.945.73,1.465,1.465,0,0,1,.132,1.133l-5.338,18.5A1.539,1.539,0,0,1,390.736,837.256Zm-3.615-22.932a.535.535,0,0,0-.521.371l-5.338,18.5a.473.473,0,0,0,.044.366.539.539,0,0,0,.334.255l8.943,2.424a.589.589,0,0,0,.153.021.536.536,0,0,0,.522-.372l5.338-18.5a.473.473,0,0,0-.044-.365.541.541,0,0,0-.335-.255l-8.943-2.423A.588.588,0,0,0,387.121,814.324Z" transform="translate(-378.52 -798.685)" fill="#fe4600"/>
        <path id="Path_2117" data-name="Path 2117" d="M415.115,844.34a5.16,5.16,0,0,1-1.4-.193l-6-1.682q-4.763-1.339-9.529-2.67a8.557,8.557,0,0,1-4.441-2.882c-.053.189-.1.361-.15.533a2.223,2.223,0,0,1-2.911,1.617q-2.005-.552-4-1.121l-3.155-.887q-1.6-.446-3.192-.9a2.248,2.248,0,0,1-1.717-3.073l1.566-5.572c1.307-4.645,2.659-9.447,3.961-14.179a2.376,2.376,0,0,1,3.112-1.745c2.392.711,4.838,1.39,7.2,2.047q1.462.407,2.922.816a2.228,2.228,0,0,1,1.926,2.087,1.543,1.543,0,0,0,.15-.135l3-3.1q2.653-2.74,5.31-5.477a3.783,3.783,0,0,0,.852-2.035l.432-2.175c.26-1.309.518-2.619.787-3.926a.854.854,0,0,1,.435-.527,4.787,4.787,0,0,1,5.832,1.19,9.233,9.233,0,0,1,2.075,5.432,11.877,11.877,0,0,1-1.28,6.486c-.354.725-.676,1.452-1.017,2.222q-.18.4-.364.816c.115.043.22.083.327.112l2.036.574q3.659,1.03,7.322,2.053a5.256,5.256,0,0,1,3.628,3.153,4.957,4.957,0,0,1-1.242,5.535c-.092.085-.187.168-.288.255l0,0a5.1,5.1,0,0,1-2.7,7.118c-.212.087-.235.119-.226.323a5.008,5.008,0,0,1-4.027,5.185c-.168.036-.19.048-.212.231a5.047,5.047,0,0,1-5.03,4.487Zm-21.582-8.3.384.4a2.349,2.349,0,0,1,.161.175,8.012,8.012,0,0,0,4.236,2.755q4.766,1.33,9.529,2.672l6,1.682a4.656,4.656,0,0,0,3.867-.614,4.6,4.6,0,0,0,2-3.3.615.615,0,0,1,.558-.614,4.573,4.573,0,0,0,3.677-4.731.675.675,0,0,1,.5-.755,4.66,4.66,0,0,0,2.391-6.655l-.082-.156.265-.232c.1-.086.191-.167.281-.249h0a4.513,4.513,0,0,0,1.133-5.037,4.834,4.834,0,0,0-3.339-2.894q-3.663-1.02-7.322-2.054l-2.036-.574c-.123-.034-.243-.078-.376-.129l-.434-.156.1-.22c.157-.348.309-.691.461-1.032.342-.773.666-1.5,1.024-2.236a11.438,11.438,0,0,0,1.237-6.249,8.809,8.809,0,0,0-1.968-5.183,4.346,4.346,0,0,0-5.3-1.082.419.419,0,0,0-.193.216c-.269,1.307-.527,2.615-.786,3.924l-.433,2.176a4.175,4.175,0,0,1-.969,2.259q-2.658,2.732-5.308,5.476l-3,3.1a2.966,2.966,0,0,1-.311.266c-.059.046-.123.1-.192.153l-.327.27-.036-.422c-.112-1.318-.468-1.769-1.65-2.1q-1.459-.41-2.921-.815c-2.368-.657-4.815-1.337-7.211-2.049a1.933,1.933,0,0,0-2.555,1.436c-1.3,4.732-2.654,9.536-3.962,14.181l-1.567,5.572a1.816,1.816,0,0,0,1.412,2.526q1.593.451,3.19.9l3.156.887q2,.564,4,1.12a1.785,1.785,0,0,0,2.366-1.311c.059-.2.115-.409.18-.64Zm21.605,6.405a3.555,3.555,0,0,1-.956-.134q-7.812-2.175-15.613-4.384a6.447,6.447,0,0,1-3.474-2.412,5.2,5.2,0,0,0-.716-.792.742.742,0,0,1-.232-.849l1.555-5.526q1.217-4.33,2.442-8.657a1,1,0,0,1,.541-.616,8.154,8.154,0,0,0,3.168-2.292c2.115-2.241,4.3-4.485,6.418-6.656l.887-.91a5.606,5.606,0,0,0,1.374-3.006c.164-.864.334-1.727.5-2.59.159-.806.319-1.612.472-2.419a.664.664,0,0,1,.665-.6,2.879,2.879,0,0,1,2.533,1.032,7.155,7.155,0,0,1,1.535,3.893A10.582,10.582,0,0,1,415,811.831c-.547,1.107-1.04,2.214-1.562,3.386q-.3.669-.6,1.344l2.456.689q4.648,1.306,9.3,2.61a3.694,3.694,0,0,1,1.979,1.241,3.055,3.055,0,0,1-1.13,4.77c-.321.147-.652.277-.993.411l-.183.072.1.1c.238.238.468.469.69.709a3.149,3.149,0,0,1-2.073,5.339c-.308.027-.617.034-.948.042l-.153,0,.292.775a3.144,3.144,0,0,1-3.453,4.422c-.223-.026-.447-.047-.684-.07l-.064-.006.023.109c.062.289.122.559.174.83a3.24,3.24,0,0,1-.938,3.023A3.062,3.062,0,0,1,415.138,842.446Zm-2.667-41.415c-.086,0-.173,0-.262.011-.184.016-.231.058-.266.244q-.231,1.213-.473,2.422c-.17.862-.34,1.724-.5,2.587a6.027,6.027,0,0,1-1.494,3.233l-.887.91c-2.113,2.17-4.3,4.413-6.412,6.652a8.555,8.555,0,0,1-3.343,2.4.569.569,0,0,0-.262.319q-1.226,4.326-2.441,8.655L394.574,834c-.056.2-.037.272.1.394a5.75,5.75,0,0,1,.777.861,6.008,6.008,0,0,0,3.24,2.25q7.8,2.207,15.61,4.383a2.723,2.723,0,0,0,2.634-.575,2.765,2.765,0,0,0,.8-2.613c-.052-.269-.11-.535-.171-.818l-.153-.707.669.066c.241.023.467.044.694.071a2.7,2.7,0,0,0,2.987-3.822l-.512-1.357.778-.024c.321-.008.621-.015.919-.041a2.705,2.705,0,0,0,1.785-4.594c-.218-.235-.444-.462-.679-.7l-.573-.581.308-.124c.169-.068.335-.133.5-.2.332-.13.654-.256.968-.4h0a2.659,2.659,0,0,0,1.515-1.788,2.692,2.692,0,0,0-.548-2.3,3.209,3.209,0,0,0-1.749-1.087q-4.652-1.3-9.3-2.61l-2.953-.83.107-.235c.241-.53.475-1.056.708-1.577.523-1.177,1.019-2.288,1.569-3.4a10.143,10.143,0,0,0,1.192-6.049,6.748,6.748,0,0,0-1.427-3.661A2.408,2.408,0,0,0,412.472,801.031ZM390.7,836.943a1.312,1.312,0,0,1-.34-.046l-8.943-2.424a1.252,1.252,0,0,1-.775-.6,1.192,1.192,0,0,1-.108-.919l5.338-18.495a1.276,1.276,0,0,1,1.558-.849l8.943,2.424a1.257,1.257,0,0,1,.775.6,1.184,1.184,0,0,1,.108.919l-5.337,18.5A1.261,1.261,0,0,1,390.7,836.943Zm-3.611-22.932a.813.813,0,0,0-.79.573l-5.338,18.5a.744.744,0,0,0,.069.578.811.811,0,0,0,.5.387l8.943,2.424a.829.829,0,0,0,1.016-.544l5.337-18.5a.749.749,0,0,0-.068-.578.821.821,0,0,0-.5-.387l-8.943-2.424A.886.886,0,0,0,387.088,814.011Z" transform="translate(-378.485 -798.65)" fill="#ff4600"/>
        <path id="Path_2117_-_Outline" data-name="Path 2117 - Outline" d="M415.115,844.84a5.669,5.669,0,0,1-1.531-.211l-6-1.682c-2.943-.827-6.278-1.765-9.528-2.67a9.1,9.1,0,0,1-4.087-2.369,2.625,2.625,0,0,1-2.517,1.764,3.375,3.375,0,0,1-.9-.127c-1.382-.381-2.793-.779-4.008-1.121l-3.154-.886c-1.075-.3-2.149-.6-3.193-.9a2.74,2.74,0,0,1-2.062-3.689l1.573-5.6c1.3-4.635,2.653-9.428,3.953-14.15a2.983,2.983,0,0,1,1.407-1.884,2.852,2.852,0,0,1,1.381-.349,3.317,3.317,0,0,1,.948.142c2.383.708,4.823,1.386,7.182,2.041l.571.159c.775.216,1.577.439,2.365.661a2.741,2.741,0,0,1,2.053,1.6l3.409-3.522c1.452-1.5,2.953-3.05,4.433-4.572a3.353,3.353,0,0,0,.719-1.781l.546-2.747c.219-1.1.445-2.241.675-3.36a1.341,1.341,0,0,1,.707-.877,5.509,5.509,0,0,1,2.41-.565,5.265,5.265,0,0,1,4.017,1.877,9.706,9.706,0,0,1,2.195,5.712,12.363,12.363,0,0,1-1.328,6.753c-.339.694-.65,1.394-.978,2.135l-.115.258-.053.119,1.814.511c2.386.672,4.854,1.367,7.32,2.053a5.735,5.735,0,0,1,3.956,3.443,5.457,5.457,0,0,1-1.366,6.1l-.017.016a5.247,5.247,0,0,1,.456,2.594,5.791,5.791,0,0,1-1.056,2.978,5.662,5.662,0,0,1-2.43,1.845,5.492,5.492,0,0,1-4.267,5.534,5.547,5.547,0,0,1-5.506,4.766Zm-21.83-9.773,1,1.03a2.619,2.619,0,0,1,.186.2,7.525,7.525,0,0,0,3.978,2.584c3.249.907,6.586,1.844,9.53,2.672l6,1.682a4.239,4.239,0,0,0,1.141.157,4.106,4.106,0,0,0,4.092-3.649,1.1,1.1,0,0,1,.951-1.047,4.081,4.081,0,0,0,3.282-4.219,1.163,1.163,0,0,1,.815-1.242,4.009,4.009,0,0,0,2.679-3.647,4.079,4.079,0,0,0-.542-2.309l-.267-.507.562-.492c.072-.063.147-.128.221-.2l.051-.047a4.012,4.012,0,0,0,1.009-4.477,4.356,4.356,0,0,0-3.011-2.6c-2.445-.681-4.925-1.379-7.324-2.054l-2.036-.574c-.132-.036-.257-.081-.414-.141l-.939-.337.322-.714c.14-.31.276-.616.411-.919l.049-.11c.325-.736.662-1.5,1.032-2.253a10.953,10.953,0,0,0,1.188-5.982,8.336,8.336,0,0,0-1.849-4.9,3.843,3.843,0,0,0-2.93-1.379,4.04,4.04,0,0,0-1.72.393c-.245,1.2-.486,2.409-.718,3.585l-.478,2.406a4.637,4.637,0,0,1-1.1,2.51c-1.783,1.833-3.6,3.709-5.307,5.474l-3,3.1a3.376,3.376,0,0,1-.363.313c-.053.041-.115.09-.181.144l-1.061.876-.118-1.371c-.095-1.109-.311-1.389-1.288-1.664q-1.118-.314-2.238-.625l-.682-.19c-2.233-.619-4.764-1.321-7.22-2.051a1.894,1.894,0,0,0-.536-.081,1.379,1.379,0,0,0-.679.166,1.573,1.573,0,0,0-.716,1c-1.318,4.787-2.723,9.78-3.963,14.184l-1.567,5.571a1.33,1.33,0,0,0,1.067,1.909c.882.25,1.78.5,2.649.744l.54.151,3.259.916c1.277.36,2.6.732,3.9,1.09a1.922,1.922,0,0,0,.511.075,1.266,1.266,0,0,0,1.241-1.042c.038-.133.075-.266.115-.407Zm21.853,7.88a4.059,4.059,0,0,1-1.09-.152c-5-1.393-10.256-2.868-15.615-4.385a6.935,6.935,0,0,1-3.739-2.593,4.707,4.707,0,0,0-.647-.717,1.241,1.241,0,0,1-.382-1.361l1.555-5.524c.728-2.59,1.587-5.644,2.442-8.658a1.481,1.481,0,0,1,.855-.951,7.71,7.71,0,0,0,2.971-2.163c2.11-2.236,4.291-4.474,6.4-6.638l.91-.934a5.156,5.156,0,0,0,1.241-2.75c.167-.876.339-1.749.505-2.593l.045-.227c.142-.717.288-1.459.426-2.188a1.16,1.16,0,0,1,1.116-1.008c.112-.01.228-.015.34-.015a3.344,3.344,0,0,1,2.61,1.217,7.609,7.609,0,0,1,1.653,4.153,11.058,11.058,0,0,1-1.283,6.6c-.55,1.113-1.06,2.259-1.554,3.368-.127.286-.248.557-.365.817l1.9.532c2.954.83,6.1,1.716,9.3,2.61a4.177,4.177,0,0,1,2.235,1.411,3.554,3.554,0,0,1-1.313,5.536c-.165.076-.33.146-.5.214.092.094.183.19.273.287a3.649,3.649,0,0,1-2.4,6.177c-.144.012-.286.021-.43.027l.045.12a3.78,3.78,0,0,1-.437,3.751,3.67,3.67,0,0,1-2.977,1.378,4.793,4.793,0,0,1-.566-.034l-.057-.007c.019.093.038.186.056.279A3.736,3.736,0,0,1,417.574,842,3.539,3.539,0,0,1,415.138,842.946Zm-20.067-8.871a6.377,6.377,0,0,1,.78.876,5.519,5.519,0,0,0,2.976,2.068c5.242,1.483,10.493,2.958,15.609,4.382a2.6,2.6,0,0,0,.7.1,2.122,2.122,0,0,0,1.462-.56,2.275,2.275,0,0,0,.65-2.152c-.048-.25-.1-.5-.161-.769l-.306-1.414,1.466.144c.2.019.393.038.589.061a3.368,3.368,0,0,0,.382.022,2.279,2.279,0,0,0,1.854-.82,2.375,2.375,0,0,0,.226-2.35l-.76-2.013,1.5-.046c.3-.007.589-.014.865-.038a2.206,2.206,0,0,0,1.462-3.756c-.21-.227-.429-.446-.661-.679l-.007-.007-1.1-1.117,1-.405.381-.151.122-.048c.314-.122.636-.248.942-.389a2.163,2.163,0,0,0,1.238-1.45,2.2,2.2,0,0,0-.453-1.876,2.732,2.732,0,0,0-1.492-.916l-6.846-1.921-5.97-1.678.349-.766c.19-.418.379-.84.561-1.248l.146-.326c.566-1.273,1.041-2.334,1.577-3.42a9.67,9.67,0,0,0,1.145-5.759,6.3,6.3,0,0,0-1.309-3.4,1.907,1.907,0,0,0-1.522-.722h-.066c-.152.8-.309,1.589-.444,2.273l-.014.071c-.162.823-.33,1.674-.487,2.511a6.493,6.493,0,0,1-1.627,3.49l-1.053,1.081c-2.058,2.113-4.185,4.3-6.24,6.475a9.067,9.067,0,0,1-3.478,2.511l-.013.019c-.753,2.656-1.514,5.36-2.249,7.975Zm-4.373,3.368a1.812,1.812,0,0,1-.469-.063l-8.944-2.424a1.749,1.749,0,0,1-1.08-.836,1.687,1.687,0,0,1-.153-1.3l5.338-18.5a1.769,1.769,0,0,1,1.7-1.254,1.816,1.816,0,0,1,.464.06l8.946,2.424a1.751,1.751,0,0,1,1.08.835,1.682,1.682,0,0,1,.153,1.3L392.4,836.187A1.765,1.765,0,0,1,390.7,837.443Zm-3.611-22.932a.313.313,0,0,0-.309.211l-5.338,18.5a.244.244,0,0,0,.023.192.313.313,0,0,0,.2.152l8.943,2.424a.366.366,0,0,0,.093.012.317.317,0,0,0,.312-.212l5.337-18.5a.25.25,0,0,0-.024-.2.32.32,0,0,0-.2-.149l-8.942-2.423A.382.382,0,0,0,387.088,814.511Z" transform="translate(-378.485 -798.65)" fill="#fe4600"/>
      </g>
    </g>
  </g>
</svg>
