<svg id="Icon_feather-instagram" data-name="Icon feather-instagram" xmlns="http://www.w3.org/2000/svg" width="31.183" height="31.183" viewBox="0 0 31.183 31.183">
  <path id="Path_35" data-name="Path 35" d="M10.8,3H26.387a7.8,7.8,0,0,1,7.8,7.8V26.387a7.8,7.8,0,0,1-7.8,7.8H10.8a7.8,7.8,0,0,1-7.8-7.8V10.8A7.8,7.8,0,0,1,10.8,3Z" transform="translate(-3 -3)" fill="#fff"/>
  <path id="Path_36_-_Outline" data-name="Path 36 - Outline" d="M18.1,10.935a7.074,7.074,0,0,1,1.034.076,7.035,7.035,0,0,1,2.131,13.244,7.067,7.067,0,0,1-3.161.751,7.036,7.036,0,0,1,0-14.071Zm0,12.071a5.036,5.036,0,0,0,4.979-5.774,5.035,5.035,0,0,0-4.242-4.242,5.068,5.068,0,0,0-.741-.055,5.036,5.036,0,0,0,0,10.071Z" transform="translate(-2.44 -2.448)"/>
  <circle id="Ellipse_2" data-name="Ellipse 2" cx="1.5" cy="1.5" r="1.5" transform="translate(22.092 6)"/>
</svg>
