<svg xmlns="http://www.w3.org/2000/svg" width="31" height="31" viewBox="0 0 31 31"><path d="M28.364,1.928H7.778A5.222,5.222,0,0,0,2.571,7.135V27.721a5.222,5.222,0,0,0,5.207,5.207H28.364a5.222,5.222,0,0,0,5.207-5.207V7.135a5.222,5.222,0,0,0-5.207-5.207ZM14.2,27.116H10.321V13.553H14.2V27.116Zm-1.937-15.5A1.938,1.938,0,1,1,14.2,9.678,1.938,1.938,0,0,1,12.258,11.616Zm15.5,15.5H23.883v-7.75a1.938,1.938,0,0,0-3.875,0v7.75H16.133V13.553h3.875v2.406c.8-1.1,2.021-2.406,3.391-2.406A4.621,4.621,0,0,1,27.758,18.4v8.719Z" transform="translate(-2.571 -1.928)" fill="#fff"/></svg>