<?xml version="1.0" encoding="utf-8"?>
<!-- Generator: Adobe Illustrator 25.0.1, SVG Export Plug-In . SVG Version: 6.00 Build 0)  -->
<svg version="1.1" id="Capa_1" xmlns="http://www.w3.org/2000/svg" xmlns:xlink="http://www.w3.org/1999/xlink" x="0px" y="0px"
	 viewBox="0 0 957.1 261.8" style="enable-background:new 0 0 957.1 261.8;" xml:space="preserve">
<style type="text/css">
	.st0{fill:#FFFFFF;}
	.st1{fill:none;}
	.st2{fill:none;stroke:#000000;stroke-width:13;stroke-linecap:round;stroke-linejoin:round;stroke-miterlimit:10;}
	.st3{stroke:#000000;stroke-miterlimit:10;}
	.st4{stroke:#000000;stroke-width:0.75;stroke-miterlimit:10;}
	.st5{stroke:#000000;stroke-width:3;stroke-miterlimit:10;}
	.st6{stroke:#000000;stroke-width:2;stroke-miterlimit:10;}
</style>
<g>
	<g>
		<path d="M287.8,52.8h-80.1c-1.5,0-2.2,0.7-2.2,2.2v14.1c0,1.5,0.7,2.2,2.2,2.2h27.7c0.6,0,0.9,0.3,0.9,0.9v134.5
			c0,1.5,0.7,2.2,2.2,2.2h17c1.5,0,2.2-0.7,2.2-2.2V72.2c0-0.6,0.3-0.9,0.9-0.9h29.2c1.5,0,2.2-0.7,2.2-2.2V55
			C290,53.6,289.3,52.8,287.8,52.8z"/>
		<path d="M399.8,52.8h-70.3c-1.5,0-2.2,0.7-2.2,2.2v151.7c0,1.5,0.7,2.2,2.2,2.2h70.3c1.5,0,2.2-0.7,2.2-2.2v-14.1
			c0-1.5-0.7-2.2-2.2-2.2h-50.2c-0.6,0-0.9-0.3-0.9-0.9v-48.6c0-0.6,0.3-0.9,0.9-0.9h35.8c1.5,0,2.2-0.7,2.2-2.2v-14.1
			c0-1.5-0.7-2.2-2.2-2.2h-35.8c-0.6,0-0.9-0.3-0.9-0.9V72.2c0-0.6,0.3-0.9,0.9-0.9h50.2c1.5,0,2.2-0.7,2.2-2.2V55
			C402,53.6,401.3,52.8,399.8,52.8z"/>
		<path d="M490.3,118.8c-0.1-0.4-0.1-0.9,0-1.3l34.4-62c0.4-0.7,0.5-1.4,0.2-1.9c-0.3-0.5-0.9-0.8-1.8-0.8h-18.3
			c-1,0-1.9,0.5-2.7,1.6l-37.9,67.8c-0.2,0.4-0.4,0.6-0.7,0.6c-0.3-0.1-0.4-0.3-0.4-0.8V55c0-1.5-0.7-2.2-2.2-2.2h-17
			c-1.5,0-2.2,0.7-2.2,2.2v151.7c0,1.5,0.7,2.2,2.2,2.2h17c1.5,0,2.2-0.7,2.2-2.2v-50.2c0-0.6,0.1-1,0.2-1.1l11.4-18.1
			c0.6-0.6,1-0.5,1.1,0.2l29,69.6c0.4,1.2,1.3,1.8,2.5,1.8h18.5c1.3,0,2-0.6,2-1.8l-0.2-0.9L490.3,118.8z"/>
		<path d="M611.9,54.8c-0.1-1.3-1-2-2.5-2h-19.9c-1.3,0-2.2,0.7-2.5,2l-33.2,151.7c-0.1,0.7,0,1.3,0.3,1.8c0.4,0.4,0.9,0.7,1.7,0.7
			h17c1.5,0,2.3-0.7,2.5-2l4.7-25.7c0-0.3,0.1-0.5,0.3-0.7c0.2-0.1,0.5-0.2,0.8-0.2h36.4c0.3,0,0.6,0.1,0.8,0.2
			c0.2,0.1,0.3,0.4,0.3,0.7l4.9,25.7c0.3,1.3,1.1,2,2.5,2h17.4c1.3,0,2-0.7,2-2v-0.4L611.9,54.8z M614.1,163.4h-29.7
			c-0.4,0-0.7-0.3-0.7-0.9l14.9-79.2c0.1-0.3,0.3-0.4,0.4-0.4c0.1,0,0.3,0.1,0.4,0.4l15.2,79.2C614.8,163.1,614.6,163.4,614.1,163.4
			z"/>
	</g>
	<path d="M150.2,41H46.5c-3.2,0-5.8,2.6-5.8,5.8v86.6c0,0.9,0,1.8,0,2.7V215c0,3.2,2.6,5.8,5.8,5.8h103.7c3.2,0,5.8-2.6,5.8-5.8
		V57.7c0,0,0,0,0,0V46.8C156.1,43.6,153.4,41,150.2,41z M52.3,52.6h25.3c-4.8,5.6-6.7,13-8.4,19.7c-0.9,3.6-1.8,7-3,10
		c-2.2,5.5-6.1,10.3-10.2,15.5c-1.3,1.6-2.5,3.2-3.8,4.9V52.6z M52.3,209.1v-42.7c2.4,3,5,5.8,7.5,8.5c3.8,4.1,7.4,8,10.2,12.3
		c1.1,1.7,2.1,3.5,3.2,5.4c1.9,3.4,3.8,6.9,6.5,10.1l0.1,0.2c1.3,1.5,3.1,3.8,6,6.2H52.3z M144.4,209.1h-22.1c0,0,0,0,0,0
		c-0.1,0-0.1,0-0.2,0c-21.8,0-29.7-9.6-33.1-13.7l-0.1-0.2c-2-2.4-3.6-5.3-5.3-8.3c-1.1-2-2.3-4.1-3.6-6.1
		c-3.4-5.2-7.5-9.6-11.5-13.9c-4.4-4.7-8.6-9.2-11.5-14.4c-5.8-10.3-6.1-23.8-0.8-34.4c2.3-4.6,5.6-8.7,9.1-13.2
		c4.4-5.6,9-11.3,11.8-18.3c1.5-3.8,2.5-7.7,3.5-11.6c1.9-7.4,3.5-13.9,8.3-17.1c0.2-0.1,0.4-0.3,0.5-0.4c0,0,3.6-3.1,8.3-5h38.6
		c-2.3,1.4-3.9,3.3-4.8,4.8c-4.6,7.1-8.6,8.6-14,10.6c-2,0.7-4,1.5-6.1,2.5c-7,3.4-13.1,8.9-19.1,17.3
		c-9.1,12.6-15.2,27.2-17.7,42.2c-0.8,4.7-1.5,10.8,0.2,16.9c1.3,4.5,3.6,8.2,5.8,11.8c0.9,1.5,1.8,2.9,2.6,4.3
		c0.8,1.5,1.5,3.1,2.3,4.8c1.6,3.5,3.3,7.1,6,10.5c8.7,11.2,23.4,14.3,37.6,16.5c1.7,0.3,3.3,0.4,4.9,0.4c3.1,0,6.3-0.6,10.4-2.3
		V209.1z M144.4,131.9c-1.5,0.4-3,0.6-4.3,0.5c-0.6-0.1-1-0.1-1-0.6c0-0.8,0.3-1.3,0.9-2.3c0.5-0.8,1-1.1,2-1.1
		c0.8,0,1.6,0.2,2.4,0.4V131.9z M144.4,116.9c-0.9-0.1-1.9-0.2-2.9-0.2c-4.8,0.2-8.9,2.5-11.4,6.6c-1.3,2.1-2.2,4.1-2.8,5.9
		c-1.1,3.6-0.6,6.7,1.3,9.4c2.1,2.9,6,4.9,10.4,5.3c0.6,0.1,1.2,0.1,1.8,0.1c1.2,0,2.4-0.1,3.6-0.3v5.5c-0.4,0.1-0.9,0.2-1.3,0.3
		c-5.1,2-10.4,4.1-15.3,3.7c-5.5-0.4-10.9-4.6-12.7-9.8c-1.9-5.5-0.4-12.2,1.2-18.1c1.5-5.5,3.8-12.5,7.7-18.2
		c1.1-1.6,2.1-2.8,3.1-3.5c3.7-2.8,11.4-2.4,15.5-2.2c0.6,0,1.2,0,1.7-0.2V116.9z M144.4,90c-0.4-0.1-0.7-0.1-1.1-0.2
		c-7.8-0.4-16.7-0.4-23.2,4.6c-2.6,2-4.5,4.5-5.6,6.2c-4.9,7.1-7.6,15.3-9.3,21.7c-2.1,7.6-3.9,16.5-1,25
		c3.3,9.8,12.5,16.9,22.8,17.7c0.7,0.1,1.4,0.1,2.1,0.1c5.6,0,10.8-1.7,15.4-3.4v17.9l-4,2.4c-4.4,1.9-6.3,1.9-9.5,1.4
		c-11.9-1.9-24.1-4.3-30.2-12.1c-1.8-2.3-3.1-5.2-4.6-8.2c-0.8-1.8-1.7-3.6-2.7-5.4c-0.9-1.7-2-3.3-2.9-4.9c-1.9-3-3.7-5.9-4.5-8.8
		c-1.1-3.8-0.6-8.1,0-11.8c2.2-13.3,7.6-26.2,15.6-37.3c4.9-6.8,9.6-11.1,14.7-13.6c1.7-0.8,3.3-1.4,5.1-2.1
		c6.1-2.3,13.1-4.8,19.8-15.3c0.1-0.2,0.1-0.1,0.2-0.2c0.4-0.6,1.3-1.4,2.8-1.4V90z"/>
	<g>
		<path d="M754.3,75.8H744c-0.7,0-1.1,0.4-1.1,1.1v42.6c0,0.7,0.4,1.1,1.1,1.1h10.3c3.6,0,6.5-1.1,8.6-3.3c2.1-2.2,3.2-5.2,3.2-9
			V88.2c0-3.7-1.1-6.8-3.2-9C760.8,77,757.9,75.8,754.3,75.8z M759,108c0,2-0.5,3.6-1.4,4.7c-0.9,1.1-2,1.7-3.4,1.7l-4.3,0.1V82h4.3
			c1.5,0,2.6,0.6,3.5,1.7c0.9,1.2,1.3,2.8,1.3,4.8V108z"/>
		<path d="M797.4,75.8h-19.7c-0.7,0-1.1,0.4-1.1,1.1v42.6c0,0.7,0.4,1.1,1.1,1.1h19.7c0.7,0,1.1-0.4,1.1-1.1v-3.9
			c0-0.7-0.4-1.1-1.1-1.1h-13.8v-13.2h8.4c0.7,0,1.1-0.4,1.1-1.1v-3.9c0-0.7-0.4-1.1-1.1-1.1h-8.4V82h13.8c0.7,0,1.1-0.4,1.1-1.1V77
			C798.5,76.3,798.1,75.8,797.4,75.8z"/>
		<path d="M811.2,96.9c1.2,1.1,2.9,2.5,5.1,4.1c1.9,1.4,3.3,2.5,4.1,3.2c0.8,0.7,1.5,1.5,2,2.3c0.5,0.8,0.7,1.8,0.7,2.9
			c0,1.7-0.5,3-1.3,4c-0.9,1-2,1.5-3.4,1.5c-1.4,0-2.4-0.5-3.3-1.5c-0.9-1-1.3-2.5-1.3-4.3v-1.3c0-0.7-0.4-1.1-1.1-1.1h-4.6
			c-0.7,0-1.1,0.4-1.1,1.1v1.6c0,3.5,1.1,6.3,3.2,8.5c2.1,2.2,4.9,3.2,8.3,3.2s6.2-1.1,8.4-3.3c2.1-2.2,3.2-5.1,3.2-8.8
			c0-2-0.4-3.7-1.1-5.2c-0.7-1.4-1.7-2.8-3.1-4c-1.3-1.2-3.2-2.7-5.7-4.6c-2.6-1.9-4.3-3.4-5.2-4.5c-0.9-1.1-1.3-2.3-1.3-3.9
			c0-1.7,0.4-3,1.2-4c0.8-0.9,1.9-1.4,3.2-1.4c1.4,0,2.5,0.5,3.4,1.5c0.9,1,1.3,2.5,1.3,4.2V89c0,0.7,0.4,1.1,1.1,1.1h4.6
			c0.7,0,1.1-0.4,1.1-1.1v-1.6c0-3.6-1.1-6.5-3.2-8.7c-2.1-2.2-4.9-3.3-8.4-3.3c-3.3,0-6.1,1-8.2,3.1c-2.1,2.1-3.2,4.9-3.2,8.4
			c0,2.2,0.4,4.2,1.3,5.8C808.9,94.3,809.9,95.7,811.2,96.9z"/>
		<path d="M846.7,119.5V77c0-0.7-0.4-1.1-1.1-1.1h-4.8c-0.7,0-1.1,0.4-1.1,1.1v42.6c0,0.7,0.4,1.1,1.1,1.1h4.8
			C846.3,120.7,846.7,120.2,846.7,119.5z"/>
		<path d="M880.9,109.7V98.1c0-0.7-0.4-1.1-1.1-1.1h-10.4c-0.7,0-1.1,0.4-1.1,1.1v3.9c0,0.7,0.4,1.1,1.1,1.1h4.5v6.6
			c0,1.6-0.4,2.8-1.3,3.8c-0.9,0.9-2,1.4-3.5,1.4s-2.6-0.5-3.5-1.4c-0.9-1-1.3-2.2-1.3-3.8v-23c0-1.6,0.4-2.8,1.3-3.8
			c0.9-0.9,2-1.4,3.5-1.4s2.6,0.5,3.5,1.4c0.9,1,1.3,2.2,1.3,3.8v2.8c0,0.7,0.4,1.1,1.1,1.1h4.8c0.7,0,1.1-0.4,1.1-1.1v-2.6
			c0-3.5-1.1-6.3-3.3-8.4c-2.2-2.1-5-3.1-8.5-3.1s-6.4,1.1-8.5,3.1c-2.2,2.1-3.3,4.9-3.3,8.3v22.9c0,3.4,1.1,6.2,3.3,8.3
			c2.2,2.1,5,3.1,8.5,3.1s6.4-1.1,8.5-3.1C879.8,115.9,880.9,113.1,880.9,109.7z"/>
		<path d="M897.3,120.7c0.7,0,1.1-0.4,1.1-1.1L898.4,93l10,26.8c0.2,0.5,0.6,0.8,1.2,0.8h5.4c0.7,0,1.1-0.4,1.1-1.1V77
			c0-0.7-0.4-1.1-1.1-1.1h-4.7c-0.7,0-1.1,0.4-1.1,1.1v26.6l-10.1-26.9c-0.2-0.5-0.6-0.8-1.2-0.8h-5.3c-0.7,0-1.1,0.4-1.1,1.1v42.6
			c0,0.7,0.4,1.1,1.1,1.1H897.3z"/>
		<path d="M761.6,163.9c-1.3-1.2-3.2-2.7-5.7-4.6c-2.6-1.9-4.3-3.4-5.2-4.5c-0.8-1.1-1.3-2.4-1.3-3.9c0-1.7,0.4-3,1.2-4
			c0.8-0.9,1.9-1.4,3.2-1.4c1.4,0,2.5,0.5,3.4,1.5c0.9,1.1,1.3,2.5,1.3,4.2v1.7c0,0.7,0.4,1.1,1.1,1.1h4.6c0.7,0,1.1-0.4,1.1-1.1
			v-1.6c0-3.6-1.1-6.5-3.2-8.7c-2.1-2.2-4.9-3.3-8.4-3.3c-3.3,0-6.1,1-8.2,3.1c-2.1,2.1-3.2,4.9-3.2,8.4c0,2.2,0.4,4.2,1.3,5.8
			c0.9,1.6,1.9,3,3.2,4.2c1.2,1.1,2.9,2.5,5.1,4.1c1.9,1.4,3.3,2.5,4.1,3.2c0.8,0.7,1.5,1.5,2,2.3c0.5,0.8,0.7,1.8,0.7,2.9
			c0,1.7-0.5,3-1.3,4c-0.9,1-2,1.5-3.4,1.5c-1.4,0-2.4-0.5-3.3-1.5c-0.9-1-1.3-2.5-1.3-4.3v-1.3c0-0.7-0.4-1.1-1.1-1.1h-4.6
			c-0.7,0-1.1,0.4-1.1,1.1v1.6c0,3.5,1.1,6.3,3.2,8.5c2.1,2.2,4.9,3.2,8.3,3.2s6.2-1.1,8.4-3.3c2.1-2.2,3.2-5.1,3.2-8.8
			c0-2-0.4-3.7-1.1-5.2C763.9,166.4,762.9,165.1,761.6,163.9z"/>
		<path d="M796.4,139.8h-22.5c-0.7,0-1.1,0.4-1.1,1.1v3.9c0,0.7,0.4,1.1,1.1,1.1h7.5v37.5c0,0.7,0.4,1.1,1.1,1.1h4.8
			c0.7,0,1.1-0.4,1.1-1.1V146h8c0.7,0,1.1-0.4,1.1-1.1V141C797.5,140.3,797.1,139.8,796.4,139.8z"/>
		<path d="M829.3,139.8h-4.8c-0.7,0-1.1,0.4-1.1,1.1v31.9c0,1.8-0.5,3.3-1.4,4.4c-0.9,1.1-2,1.6-3.5,1.6c-1.4,0-2.6-0.5-3.5-1.6
			c-0.9-1.1-1.4-2.6-1.4-4.4V141c0-0.7-0.4-1.1-1.1-1.1h-4.8c-0.7,0-1.1,0.4-1.1,1.1v31.3c0,3.8,1.1,7,3.2,9.3
			c2.2,2.4,5,3.6,8.6,3.6c3.6,0,6.5-1.2,8.6-3.6c2.2-2.4,3.3-5.5,3.3-9.3V141C830.4,140.3,830,139.8,829.3,139.8z"/>
		<path d="M852.3,139.8H842c-0.7,0-1.1,0.4-1.1,1.1v42.6c0,0.7,0.4,1.1,1.1,1.1h10.3c3.6,0,6.5-1.1,8.6-3.3c2.1-2.2,3.2-5.2,3.2-9
			v-20.2c0-3.7-1.1-6.8-3.2-9C858.8,141,855.9,139.8,852.3,139.8z M857,152.5V172c0,2-0.5,3.6-1.4,4.7c-0.9,1.1-2,1.7-3.4,1.7
			l-4.3,0.1V146h4.3c1.5,0,2.6,0.6,3.5,1.7C856.6,148.9,857,150.5,857,152.5z"/>
		<path d="M880.8,139.8h-4.8c-0.7,0-1.1,0.4-1.1,1.1v42.6c0,0.7,0.4,1.1,1.1,1.1h4.8c0.7,0,1.1-0.4,1.1-1.1V141
			C881.9,140.3,881.5,139.8,880.8,139.8z"/>
		<path d="M913.1,142.6c-2.2-2.2-5.1-3.3-8.7-3.3c-3.5,0-6.4,1.1-8.6,3.3c-2.2,2.2-3.3,5.1-3.3,8.7v21.9c0,3.6,1.1,6.5,3.3,8.7
			c2.2,2.2,5.1,3.3,8.6,3.3c3.6,0,6.5-1.1,8.7-3.3c2.2-2.2,3.3-5.1,3.3-8.7v-21.9C916.4,147.8,915.3,144.8,913.1,142.6z M899.5,151
			c0-1.7,0.5-3,1.3-4c0.9-1,2-1.5,3.5-1.5c1.5,0,2.7,0.5,3.6,1.5c0.9,1,1.4,2.4,1.4,4v22.4c0,1.7-0.5,3-1.4,4
			c-0.9,1-2.1,1.5-3.6,1.5c-1.5,0-2.7-0.5-3.5-1.5c-0.9-1-1.3-2.4-1.3-4V151z"/>
	</g>
	<path d="M696.5,71.6h-4.8c-0.5,0-1.6,0.2-1.6,2.4v113.8c0,2.2,1.1,2.4,1.6,2.4h4.8c0.5,0,1.6-0.2,1.6-2.4V74
		C698.1,71.8,697,71.6,696.5,71.6z"/>
</g>
</svg>
